<svg width="48" height="48" viewBox="0 0 48 48" fill="none" xmlns="http://www.w3.org/2000/svg">
<g clip-path="url(#clip0_17_503)">
<rect width="48" height="48" fill="#54B738"/>
<path d="M10.5606 42.3211C10.9696 42.5589 11.4432 43.1894 11.9814 44.2127C11.263 43.8698 10.7894 43.2393 10.5606 42.3211Z" fill="white" fill-opacity="0.2"/>
<path d="M14.5202 38.3914C14.8513 38.2505 15.4509 38.2492 16.319 38.3874C15.7831 38.6688 15.1836 38.6701 14.5202 38.3914Z" fill="white" fill-opacity="0.2"/>
<path d="M47.4817 17.3737C47.6138 17.0731 48.0118 16.6975 48.6755 16.2467C48.495 16.7688 48.0971 17.1444 47.4817 17.3737Z" fill="white" fill-opacity="0.2"/>
<path d="M17.1267 46.8918C17.3778 46.5874 17.9609 46.2833 18.8758 45.9793C18.4963 46.5239 17.9133 46.828 17.1267 46.8918Z" fill="white" fill-opacity="0.2"/>
<path d="M19.0245 18.738C19.3722 18.4348 20.1027 18.1949 21.216 18.0185C20.6745 18.5744 19.944 18.8143 19.0245 18.738Z" fill="white" fill-opacity="0.2"/>
<path d="M42.6565 19.2638C42.8777 19.4974 43.0655 19.9995 43.22 20.7702C42.8173 20.4087 42.6295 19.9066 42.6565 19.2638Z" fill="white" fill-opacity="0.2"/>
<path d="M45.6607 17.1623C46.0241 17.0368 46.6634 17.08 47.5786 17.2919C46.9864 17.5519 46.3471 17.5087 45.6607 17.1623Z" fill="white" fill-opacity="0.2"/>
<path d="M11.7227 19.7424C11.751 19.2443 12.1179 18.4982 12.8232 17.5039C12.8436 18.343 12.4768 19.0891 11.7227 19.7424Z" fill="white" fill-opacity="0.2"/>
<path d="M31.0848 27.71C31.3597 27.4851 31.9277 27.3183 32.7887 27.2096C32.3585 27.6242 31.7905 27.791 31.0848 27.71Z" fill="white" fill-opacity="0.2"/>
<path d="M21.6261 2.30869C22.1236 2.4508 22.7952 2.9919 23.6408 3.93198C22.787 3.76167 22.1155 3.22057 21.6261 2.30869Z" fill="white" fill-opacity="0.2"/>
<path d="M46.7512 45.8065C47.1426 46.152 47.5191 46.9366 47.8808 48.16C47.1773 47.634 46.8007 46.8495 46.7512 45.8065Z" fill="white" fill-opacity="0.2"/>
<path d="M31.0027 9.47943C31.2789 9.1942 31.888 8.93561 32.83 8.70366C32.4059 9.21966 31.7968 9.47825 31.0027 9.47943Z" fill="white" fill-opacity="0.2"/>
<path d="M7.37271 7.94895C7.5471 7.6114 8.0339 7.20639 8.8331 6.73395C8.58681 7.3238 8.10001 7.7288 7.37271 7.94895Z" fill="white" fill-opacity="0.2"/>
<path d="M47.2426 47.874C47.5904 48.0168 48.0316 48.4617 48.5662 49.2088C47.9636 49.0168 47.5224 48.5719 47.2426 47.874Z" fill="white" fill-opacity="0.2"/>
<path d="M42.1761 17.5598C42.3601 17.1308 42.921 16.5916 43.8588 15.9423C43.6089 16.6868 43.048 17.226 42.1761 17.5598Z" fill="white" fill-opacity="0.2"/>
<path d="M11.518 46.2753C11.9088 46.0425 12.66 45.9386 13.7713 45.9639C13.1478 46.4078 12.3967 46.5116 11.518 46.2753Z" fill="white" fill-opacity="0.2"/>
<path d="M40.0222 22.2409C40.2664 21.7883 40.9351 21.252 42.0283 20.632C41.6806 21.4243 41.0119 21.9606 40.0222 22.2409Z" fill="white" fill-opacity="0.2"/>
<path d="M45.2175 25.6488C45.6863 25.4437 46.5389 25.4332 47.7755 25.6171C47.0175 26.025 46.1649 26.0356 45.2175 25.6488Z" fill="white" fill-opacity="0.2"/>
<path d="M46.0117 19.8934C46.4353 19.6631 47.235 19.5844 48.4108 19.6574C47.7321 20.1015 46.9324 20.1801 46.0117 19.8934Z" fill="white" fill-opacity="0.2"/>
<path d="M33.1846 30.3727C33.4508 30.5178 33.7654 30.9134 34.1282 31.5595C33.6619 31.3525 33.3473 30.9569 33.1846 30.3727Z" fill="white" fill-opacity="0.2"/>
<path d="M25.9881 8.06876C26.3227 8.25923 26.7127 8.76876 27.158 9.59735C26.571 9.32369 26.181 8.81416 25.9881 8.06876Z" fill="white" fill-opacity="0.2"/>
<path d="M47.1155 19.6132C47.6282 19.5295 48.4697 19.7337 49.6399 20.2258C48.7916 20.4363 47.9501 20.2321 47.1155 19.6132Z" fill="white" fill-opacity="0.2"/>
<path d="M29.3281 13.0351C29.7038 13.082 30.2501 13.3978 30.967 13.9825C30.3307 13.9552 29.7843 13.6394 29.3281 13.0351Z" fill="white" fill-opacity="0.2"/>
<path d="M1.17273 43.3066C1.60593 43.4646 2.16837 43.9883 2.86006 44.8778C2.11208 44.672 1.54964 44.1483 1.17273 43.3066Z" fill="white" fill-opacity="0.2"/>
<path d="M46.1987 34.8162C46.5507 35.0011 46.9712 35.5134 47.46 36.3531C46.8444 36.0912 46.424 35.5789 46.1987 34.8162Z" fill="white" fill-opacity="0.2"/>
<path d="M45.138 41.3903C45.6257 41.5797 46.2515 42.1868 47.0154 43.2118C46.1718 42.961 45.5459 42.3539 45.138 41.3903Z" fill="white" fill-opacity="0.2"/>
<path d="M24.8607 31.8392C24.9398 31.3233 25.396 30.5828 26.2294 29.6177C26.1672 30.4934 25.711 31.2339 24.8607 31.8392Z" fill="white" fill-opacity="0.2"/>
<path d="M47.0428 33.3863C47.5144 33.3538 48.2593 33.6101 49.2776 34.1551C48.4914 34.2739 47.7464 34.0176 47.0428 33.3863Z" fill="white" fill-opacity="0.2"/>
<path d="M3.74814 47.281C4.10638 47.2736 4.66111 47.4948 5.41233 47.9446C4.81264 48.0059 4.25791 47.7847 3.74814 47.281Z" fill="white" fill-opacity="0.2"/>
<path d="M42.022 33.3801C42.3277 33.3939 42.7881 33.6135 43.403 34.0389C42.8885 34.0575 42.4282 33.8379 42.022 33.3801Z" fill="white" fill-opacity="0.2"/>
<path d="M45.5456 0.0415642C45.9209 -0.183699 46.6431 -0.285946 47.7124 -0.265177C47.114 0.163822 46.3917 0.266069 45.5456 0.0415642Z" fill="white" fill-opacity="0.2"/>
<path d="M46.6017 28.9937C46.9469 28.7562 47.6309 28.6158 48.6538 28.5723C48.1074 29.0176 47.4234 29.1581 46.6017 28.9937Z" fill="white" fill-opacity="0.2"/>
<path d="M35.1203 6.17657C35.335 6.42135 35.5058 6.9365 35.6327 7.722C35.2391 7.34091 35.0683 6.82577 35.1203 6.17657Z" fill="white" fill-opacity="0.2"/>
<path d="M27.7027 23.3358C28.0539 23.1001 28.7461 22.9664 29.7792 22.9345C29.2224 23.3777 28.5302 23.5114 27.7027 23.3358Z" fill="white" fill-opacity="0.2"/>
<path d="M21.997 0.491379C22.2428 0.731235 22.4645 1.25898 22.662 2.07461C22.2171 1.70602 21.9954 1.17827 21.997 0.491379Z" fill="white" fill-opacity="0.2"/>
<path d="M44.1089 2.85483C44.4342 2.58486 45.1088 2.38159 46.1327 2.24501C45.6241 2.74214 44.9495 2.94541 44.1089 2.85483Z" fill="white" fill-opacity="0.2"/>
<path d="M42.2499 27.213C42.332 26.9234 42.646 26.5321 43.192 26.0392C43.0938 26.536 42.7798 26.9273 42.2499 27.213Z" fill="white" fill-opacity="0.2"/>
<path d="M32.259 0.435211C32.5662 0.489117 33.0029 0.771296 33.5691 1.28175C33.0465 1.23335 32.6098 0.951167 32.259 0.435211Z" fill="white" fill-opacity="0.2"/>
<path d="M29.1035 3.49086C29.1909 3.03256 29.6223 2.38567 30.398 1.55022C30.3142 2.33064 29.8827 2.97752 29.1035 3.49086Z" fill="white" fill-opacity="0.2"/>
<path d="M47.6517 28.7471C47.9261 28.3675 48.5936 27.9629 49.6544 27.5333C49.2462 28.2073 48.5786 28.6119 47.6517 28.7471Z" fill="white" fill-opacity="0.2"/>
<path d="M6.6987 0.278303C6.88862 -0.0653632 7.40322 -0.469659 8.2425 -0.934586C7.971 -0.332377 7.4564 0.0719192 6.6987 0.278303Z" fill="white" fill-opacity="0.2"/>
<path d="M33.0038 10.2564C33.1725 9.76855 33.7481 9.12912 34.7306 8.33813C34.5144 9.17923 33.9388 9.81865 33.0038 10.2564Z" fill="white" fill-opacity="0.2"/>
<path d="M41.0301 20.8082C41.28 21.0139 41.53 21.4919 41.7802 22.2422C41.3331 21.9313 41.0831 21.4533 41.0301 20.8082Z" fill="white" fill-opacity="0.2"/>
<path d="M8.17203 34.8075C8.35245 34.4326 8.87274 33.9742 9.73289 33.4323C9.48158 34.0856 8.96129 34.544 8.17203 34.8075Z" fill="white" fill-opacity="0.2"/>
<path d="M29.0198 6.70368C29.2838 6.48827 29.8288 6.32892 30.6548 6.22562C30.2416 6.62287 29.6966 6.78223 29.0198 6.70368Z" fill="white" fill-opacity="0.2"/>
<path d="M4.92554 27.8679C5.39922 27.7597 6.19663 27.9009 7.31776 28.2917C6.53829 28.538 5.74088 28.3967 4.92554 27.8679Z" fill="white" fill-opacity="0.2"/>
<path d="M30.5135 24.0656C30.8349 23.82 31.4877 23.6515 32.472 23.5601C31.9666 24.016 31.3138 24.1845 30.5135 24.0656Z" fill="white" fill-opacity="0.2"/>
<path d="M1.66352 45.7286C1.6339 45.3731 1.81916 44.8082 2.2193 44.0338C2.31755 44.6258 2.13229 45.1908 1.66352 45.7286Z" fill="white" fill-opacity="0.2"/>
<path d="M2.96854 15.1321C3.13008 14.8662 3.55062 14.5629 4.23016 14.2222C3.99561 14.6901 3.57507 14.9934 2.96854 15.1321Z" fill="white" fill-opacity="0.2"/>
<path d="M4.72546 42.0481C5.14061 42.1776 5.69381 42.646 6.38505 43.4531C5.67123 43.2926 5.11803 42.8242 4.72546 42.0481Z" fill="white" fill-opacity="0.2"/>
<path d="M23.6823 6.41867C24.0603 6.53892 24.5624 6.9688 25.1887 7.70831C24.5386 7.55833 24.0364 7.12845 23.6823 6.41867Z" fill="white" fill-opacity="0.2"/>
<path d="M24.4019 27.5406C24.7158 27.469 25.2443 27.5627 25.9872 27.8217C25.4706 27.9848 24.9422 27.8911 24.4019 27.5406Z" fill="white" fill-opacity="0.2"/>
<path d="M11.2072 26.2193C11.657 26.1871 12.3684 26.4295 13.3414 26.9465C12.5916 27.0621 11.8802 26.8197 11.2072 26.2193Z" fill="white" fill-opacity="0.2"/>
<path d="M31.1885 24.8973C31.5453 24.7658 32.1784 24.7955 33.0879 24.9863C32.5075 25.2557 31.8744 25.226 31.1885 24.8973Z" fill="white" fill-opacity="0.2"/>
<path d="M34.3648 6.77878C34.3924 6.35466 34.71 5.7215 35.3176 4.87929C35.3293 5.59421 35.0117 6.22737 34.3648 6.77878Z" fill="white" fill-opacity="0.2"/>
<path d="M14.3872 27.9767C14.3943 27.6699 14.6042 27.2035 15.017 26.5775C15.0471 27.0929 14.8372 27.5593 14.3872 27.9767Z" fill="white" fill-opacity="0.2"/>
<path d="M45.1202 30.854C45.5139 30.9748 46.04 31.4156 46.6984 32.1766C46.0217 32.028 45.4957 31.5872 45.1202 30.854Z" fill="white" fill-opacity="0.2"/>
<path d="M39.6273 4.71858C39.8108 4.43676 40.2753 4.1232 41.021 3.77792C40.7519 4.27556 40.2873 4.58912 39.6273 4.71858Z" fill="white" fill-opacity="0.2"/>
<path d="M39.1477 40.274C39.5367 40.2283 40.1635 40.4105 41.028 40.8208C40.3821 40.9506 39.7553 40.7683 39.1477 40.274Z" fill="white" fill-opacity="0.2"/>
<path d="M47.4936 23.7698C47.8345 23.972 48.2266 24.5038 48.6699 25.365C48.0706 25.0725 47.6785 24.5407 47.4936 23.7698Z" fill="white" fill-opacity="0.2"/>
<path d="M2.7626 1.98334C3.1203 1.87102 3.7423 1.93075 4.62861 2.16255C4.04417 2.39976 3.42217 2.34002 2.7626 1.98334Z" fill="white" fill-opacity="0.2"/>
<path d="M31.037 13.2803C31.4124 13.0372 32.1466 12.9076 33.2394 12.8917C32.6431 13.3506 31.9089 13.4802 31.037 13.2803Z" fill="white" fill-opacity="0.2"/>
<path d="M21.8549 8.65735C22.1305 8.86221 22.4204 9.3555 22.7248 10.1372C22.2349 9.83137 21.9449 9.33807 21.8549 8.65735Z" fill="white" fill-opacity="0.2"/>
<path d="M21.2505 3.15623C21.5824 2.82634 22.306 2.53534 23.4214 2.28323C22.9099 2.88175 22.1863 3.17275 21.2505 3.15623Z" fill="white" fill-opacity="0.2"/>
<path d="M18.4927 35.7298C18.9369 35.5567 19.7312 35.5793 20.8755 35.7975C20.1543 36.1485 19.36 36.1259 18.4927 35.7298Z" fill="white" fill-opacity="0.2"/>
<path d="M16.679 28.0046C17.0759 28.3476 17.4627 29.1318 17.8393 30.3571C17.1268 29.8362 16.74 29.0521 16.679 28.0046Z" fill="white" fill-opacity="0.2"/>
<path d="M3.09314 0.643127C3.5705 0.691437 4.27195 1.07542 5.19748 1.79508C4.39044 1.7793 3.68899 1.39532 3.09314 0.643127Z" fill="white" fill-opacity="0.2"/>
<path d="M24.0438 36.5384C24.296 36.7556 24.5423 37.2526 24.7826 38.0296C24.33 37.7 24.0837 37.2029 24.0438 36.5384Z" fill="white" fill-opacity="0.2"/>
<path d="M46.2426 0.408005C46.6518 0.695221 47.0937 1.40175 47.5681 2.5276C46.8426 2.10192 46.4008 1.39539 46.2426 0.408005Z" fill="white" fill-opacity="0.2"/>
<path d="M18.4021 3.73672C18.8727 3.85823 19.5162 4.35018 20.3327 5.21259C19.5271 5.07315 18.8835 4.5812 18.4021 3.73672Z" fill="white" fill-opacity="0.2"/>
<path d="M6.33835 41.9919C6.67761 41.9687 7.21352 42.1531 7.94606 42.5454C7.38037 42.6307 6.84446 42.4463 6.33835 41.9919Z" fill="white" fill-opacity="0.2"/>
<path d="M34.6413 25.521C34.9165 25.7712 35.1766 26.334 35.4216 27.2093C34.9259 26.8273 34.6658 26.2646 34.6413 25.521Z" fill="white" fill-opacity="0.2"/>
<path d="M25.6263 15.3402C26.0872 15.4858 26.7003 16.0084 27.4656 16.9081C26.6728 16.727 26.0597 16.2044 25.6263 15.3402Z" fill="white" fill-opacity="0.2"/>
<path d="M2.53799 23.4579C2.77302 23.0237 3.41564 22.5096 4.46585 21.9158C4.1311 22.676 3.48849 23.1901 2.53799 23.4579Z" fill="white" fill-opacity="0.2"/>
<path d="M35.2387 13.5248C35.3524 13.1642 35.7609 12.6846 36.4642 12.0858C36.3229 12.7059 35.9144 13.1855 35.2387 13.5248Z" fill="white" fill-opacity="0.2"/>
<path d="M41.6858 21.4607C42.1564 21.4458 42.8886 21.7283 43.8822 22.3084C43.0951 22.3977 42.363 22.1151 41.6858 21.4607Z" fill="white" fill-opacity="0.2"/>
<path d="M41.2401 47.8324C41.4378 47.5922 41.8971 47.3516 42.6182 47.1108C42.3196 47.5407 41.8603 47.7812 41.2401 47.8324Z" fill="white" fill-opacity="0.2"/>
<path d="M38.0232 16.0727C38.4072 16.0769 38.9939 16.3326 39.7834 16.8397C39.139 16.8851 38.5522 16.6295 38.0232 16.0727Z" fill="white" fill-opacity="0.2"/>
<path d="M42.7731 34.7025C42.9626 34.3557 43.4785 33.9463 44.3208 33.4742C44.0505 34.0816 43.5347 34.491 42.7731 34.7025Z" fill="white" fill-opacity="0.2"/>
<path d="M19.005 7.54301C19.3477 7.66498 19.7947 8.07467 20.346 8.77208C19.7546 8.6144 19.3076 8.20472 19.005 7.54301Z" fill="white" fill-opacity="0.2"/>
<path d="M8.159 7.99593C8.51298 8.16911 8.94397 8.6647 9.45198 9.48271C8.83477 9.24069 8.40377 8.7451 8.159 7.99593Z" fill="white" fill-opacity="0.2"/>
<path d="M27.4059 14.6856C27.8643 14.5059 28.6845 14.5274 29.8667 14.7501C29.1228 15.1142 28.3025 15.0927 27.4059 14.6856Z" fill="white" fill-opacity="0.2"/>
<path d="M41.8516 34.6029C42.2592 34.7337 42.8001 35.1989 43.4742 35.9986C42.7729 35.8351 42.232 35.3699 41.8516 34.6029Z" fill="white" fill-opacity="0.2"/>
<path d="M1.49554 36.903C1.93349 37.1376 2.4535 37.782 3.05558 38.8362C2.28917 38.5027 1.76916 37.8582 1.49554 36.903Z" fill="white" fill-opacity="0.2"/>
<path d="M22.3336 4.35742C22.4705 3.9055 22.974 3.30064 23.8441 2.54282C23.6762 3.31929 23.1727 3.92416 22.3336 4.35742Z" fill="white" fill-opacity="0.2"/>
<path d="M1.51215 20.6518C1.81383 20.8693 2.13579 21.399 2.47802 22.2409C1.94244 21.9174 1.62048 21.3877 1.51215 20.6518Z" fill="white" fill-opacity="0.2"/>
<path d="M23.7916 35.9061C24.1425 35.9213 24.6712 36.1724 25.3778 36.6594C24.7874 36.6818 24.2587 36.4307 23.7916 35.9061Z" fill="white" fill-opacity="0.2"/>
<path d="M33.1683 10.2502C33.4808 10.2152 33.9833 10.3642 34.6758 10.6972C34.1566 10.7987 33.6541 10.6497 33.1683 10.2502Z" fill="white" fill-opacity="0.2"/>
<path d="M47.0518 2.19247C47.0578 1.72913 47.3676 1.0217 47.9812 0.0701752C48.0346 0.8479 47.7248 1.55533 47.0518 2.19247Z" fill="white" fill-opacity="0.2"/>
<path d="M33.129 17.6414C33.5136 17.9582 33.8984 18.6942 34.2834 19.8493C33.5952 19.3706 33.2104 18.6347 33.129 17.6414Z" fill="white" fill-opacity="0.2"/>
<path d="M32.9875 22.643C33.1167 22.2056 33.599 21.6178 34.4344 20.8799C34.2775 21.6311 33.7952 22.2188 32.9875 22.643Z" fill="white" fill-opacity="0.2"/>
<path d="M34.6638 21.641C35.0612 21.4399 35.8017 21.3891 36.8854 21.4887C36.2465 21.8801 35.506 21.9309 34.6638 21.641Z" fill="white" fill-opacity="0.2"/>
<path d="M11.4448 31.9485C11.7927 32.2735 12.1158 32.9984 12.4141 34.1229C11.7863 33.6254 11.4632 32.9006 11.4448 31.9485Z" fill="white" fill-opacity="0.2"/>
<path d="M4.34055 21.3823C4.74218 21.137 5.51791 21.0212 6.66774 21.0348C6.0278 21.501 5.25206 21.6168 4.34055 21.3823Z" fill="white" fill-opacity="0.2"/>
<path d="M0.709851 15.9667C0.70621 15.6064 0.934476 15.0509 1.39465 14.3003C1.44999 14.9039 1.22173 15.4594 0.709851 15.9667Z" fill="white" fill-opacity="0.2"/>
<path d="M17.4312 11.9968C17.5272 11.6932 17.8715 11.2895 18.4643 10.7856C18.3449 11.3078 18.0005 11.7115 17.4312 11.9968Z" fill="white" fill-opacity="0.2"/>
<path d="M11.0733 34.7858C11.4674 34.8609 12.0237 35.2319 12.7421 35.8989C12.071 35.8269 11.5147 35.4559 11.0733 34.7858Z" fill="white" fill-opacity="0.2"/>
<path d="M28.1493 23.265C28.552 23.0308 29.3223 22.9327 30.4601 22.9707C29.8167 23.4184 29.0465 23.5165 28.1493 23.265Z" fill="white" fill-opacity="0.2"/>
<path d="M40.5912 10.6592C40.9072 10.7441 41.3372 11.0795 41.8812 11.6654C41.3397 11.5663 40.9097 11.2309 40.5912 10.6592Z" fill="white" fill-opacity="0.2"/>
<path d="M28.8412 25.6576C28.8317 25.345 29.02 24.8589 29.4061 24.1994C29.4648 24.7223 29.2765 25.2084 28.8412 25.6576Z" fill="white" fill-opacity="0.2"/>
<path d="M20.8641 31.9696C21.0189 31.5148 21.5516 30.917 22.4624 30.1763C22.2651 30.9601 21.7323 31.5579 20.8641 31.9696Z" fill="white" fill-opacity="0.2"/>
<path d="M46.739 42.9759C47.058 42.9961 47.5347 43.2342 48.169 43.6901C47.6313 43.6999 47.1546 43.4618 46.739 42.9759Z" fill="white" fill-opacity="0.2"/>
<path d="M44.3602 42.2422C44.7783 42.1958 45.4502 42.3959 46.376 42.8425C45.6813 42.9775 45.0093 42.7774 44.3602 42.2422Z" fill="white" fill-opacity="0.2"/>
<path d="M7.04535 46.0092C7.44234 45.9347 8.1001 46.078 9.01862 46.4392C8.36312 46.6183 7.70536 46.475 7.04535 46.0092Z" fill="white" fill-opacity="0.2"/>
<path d="M6.27518 31.9802C6.7686 31.8323 7.62199 31.9256 8.83537 32.2601C8.02821 32.5754 7.17481 32.4821 6.27518 31.9802Z" fill="white" fill-opacity="0.2"/>
<path d="M10.6777 27.1844C11.0059 27.362 11.3946 27.8479 11.8435 28.6418C11.2688 28.3887 10.8802 27.9029 10.6777 27.1844Z" fill="white" fill-opacity="0.2"/>
<path d="M8.90015 38.8429C8.92054 38.5025 9.17278 37.9932 9.65687 37.315C9.66919 37.8886 9.41695 38.3979 8.90015 38.8429Z" fill="white" fill-opacity="0.2"/>
<path d="M33.1542 31.6381C33.441 31.3874 34.0439 31.1888 34.963 31.0423C34.5164 31.5017 33.9134 31.7003 33.1542 31.6381Z" fill="white" fill-opacity="0.2"/>
<path d="M36.2399 1.21024C36.6708 1.47923 37.1577 2.17183 37.7006 3.28805C36.9413 2.89588 36.4544 2.20328 36.2399 1.21024Z" fill="white" fill-opacity="0.2"/>
<path d="M18.927 39.039C19.3808 38.9386 20.1424 39.0791 21.212 39.4603C20.4649 39.6906 19.7032 39.5501 18.927 39.039Z" fill="white" fill-opacity="0.2"/>
<path d="M46.1277 23.2013C46.6359 23.1662 47.4389 23.4422 48.5366 24.0293C47.6891 24.1576 46.8862 23.8816 46.1277 23.2013Z" fill="white" fill-opacity="0.2"/>
<path d="M18.546 10.4492C18.7632 9.97381 19.405 9.38503 20.4716 8.68283C20.1724 9.50957 19.5306 10.0983 18.546 10.4492Z" fill="white" fill-opacity="0.2"/>
<path d="M25.2136 43.4388C25.2256 43.084 25.4744 42.5471 25.9598 41.8282C25.9881 42.4248 25.7394 42.9616 25.2136 43.4388Z" fill="white" fill-opacity="0.2"/>
<path d="M26.1713 42.1108C26.4999 42.2638 26.9049 42.712 27.3864 43.4553C26.8146 43.2436 26.4095 42.7954 26.1713 42.1108Z" fill="white" fill-opacity="0.2"/>
<path d="M25.7718 5.36096C26.2377 5.12317 27.1072 5.06051 28.3804 5.17298C27.6316 5.63538 26.7621 5.69804 25.7718 5.36096Z" fill="white" fill-opacity="0.2"/>
<path d="M13.7845 2.64417C14.1383 2.2756 14.9208 1.93947 16.1318 1.63579C15.5888 2.30216 14.8063 2.63828 13.7845 2.64417Z" fill="white" fill-opacity="0.2"/>
<path d="M19.0101 1.41061C19.4374 1.37303 20.1178 1.59267 21.0512 2.06954C20.3398 2.19095 19.6595 1.97131 19.0101 1.41061Z" fill="white" fill-opacity="0.2"/>
<path d="M6.40918 9.63034C6.7902 9.61133 7.38744 9.82945 8.2009 10.2847C7.56461 10.3686 6.96737 10.1505 6.40918 9.63034Z" fill="white" fill-opacity="0.2"/>
<path d="M29.149 45.6518C29.4568 45.5892 29.9699 45.6927 30.6885 45.9625C30.181 46.1097 29.6678 46.0061 29.149 45.6518Z" fill="white" fill-opacity="0.2"/>
<path d="M14.908 26.118C14.9999 25.8186 15.3354 25.4185 15.9144 24.9179C15.8012 25.4326 15.4657 25.8326 14.908 26.118Z" fill="white" fill-opacity="0.2"/>
<path d="M45.8384 44.8918C46.1579 45.1604 46.474 45.7801 46.7866 46.7508C46.2143 46.3441 45.8982 45.7244 45.8384 44.8918Z" fill="white" fill-opacity="0.2"/>
<path d="M16.4998 2.96814C16.9668 3.04836 17.6315 3.47456 18.4941 4.24675C17.7002 4.17606 17.0354 3.74985 16.4998 2.96814Z" fill="white" fill-opacity="0.2"/>
<path d="M38.4164 22.602C38.7086 22.6978 39.095 23.0346 39.5755 23.6122C39.0725 23.4915 38.6861 23.1548 38.4164 22.602Z" fill="white" fill-opacity="0.2"/>
<path d="M8.1774 17.7506C8.63698 17.6602 9.40119 17.8196 10.47 18.229C9.71174 18.4434 8.94754 18.284 8.1774 17.7506Z" fill="white" fill-opacity="0.2"/>
<path d="M11.7649 1.57182C12.2803 1.65238 13.0193 2.11057 13.9817 2.94637C13.1064 2.88172 12.3675 2.42354 11.7649 1.57182Z" fill="white" fill-opacity="0.2"/>
<path d="M47.2763 21.3167C47.638 21.5907 48.0154 22.246 48.4085 23.2826C47.7646 22.8727 47.3872 22.2174 47.2763 21.3167Z" fill="white" fill-opacity="0.2"/>
<path d="M28.4921 20.1429C28.9598 20.1924 29.6456 20.572 30.5495 21.2817C29.7585 21.2625 29.0727 20.8829 28.4921 20.1429Z" fill="white" fill-opacity="0.2"/>
<path d="M36.4323 12.3432C36.8138 12.6889 37.1749 13.4672 37.5159 14.678C36.829 14.1504 36.4679 13.3722 36.4323 12.3432Z" fill="white" fill-opacity="0.2"/>
<path d="M43.4606 7.02818C43.9678 6.98524 44.7742 7.24847 45.8799 7.81789C45.0353 7.9592 44.2289 7.69597 43.4606 7.02818Z" fill="white" fill-opacity="0.2"/>
<path d="M39.1365 15.6756C39.3426 15.3477 39.8717 14.9779 40.724 14.5664C40.4234 15.1445 39.8942 15.5142 39.1365 15.6756Z" fill="white" fill-opacity="0.2"/>
<path d="M12.5188 15.1354C12.9258 15.3417 13.4169 15.9226 13.9918 16.878C13.2811 16.5877 12.79 16.0069 12.5188 15.1354Z" fill="white" fill-opacity="0.2"/>
<path d="M11.4266 46.3352C11.7999 46.5177 12.2545 47.0401 12.7904 47.9024C12.1396 47.6474 11.6849 47.125 11.4266 46.3352Z" fill="white" fill-opacity="0.2"/>
<path d="M23.42 9.72819C23.48 9.42717 23.7673 9.00398 24.2821 8.45862C24.2228 8.97154 23.9354 9.39473 23.42 9.72819Z" fill="white" fill-opacity="0.2"/>
<path d="M8.34671 40.395C8.77636 40.4008 9.43215 40.6886 10.3141 41.2584C9.59284 41.3073 8.93705 41.0196 8.34671 40.395Z" fill="white" fill-opacity="0.2"/>
<path d="M37.1985 5.11185C37.348 4.8513 37.7467 4.54837 38.3944 4.20308C38.1793 4.6604 37.7807 4.96333 37.1985 5.11185Z" fill="white" fill-opacity="0.2"/>
<path d="M23.0313 4.96519C23.4526 4.8211 24.1928 4.87331 25.252 5.12183C24.5653 5.42102 23.8251 5.36881 23.0313 4.96519Z" fill="white" fill-opacity="0.2"/>
<path d="M28.2919 36.8397C28.6954 36.567 29.4917 36.4103 30.6808 36.3696C30.0416 36.8819 29.2453 37.0386 28.2919 36.8397Z" fill="white" fill-opacity="0.2"/>
<path d="M8.3924 11.5586C8.74948 11.7267 9.18859 12.2164 9.7097 13.0278C9.08797 12.7948 8.64887 12.3051 8.3924 11.5586Z" fill="white" fill-opacity="0.2"/>
<path d="M4.96207 40.0329C5.07921 39.7426 5.44746 39.3729 6.06681 38.924C5.91006 39.4268 5.54181 39.7964 4.96207 40.0329Z" fill="white" fill-opacity="0.2"/>
<path d="M37.9142 24.6387C38.2396 24.7832 38.6453 25.2161 39.1315 25.9375C38.5661 25.7398 38.1604 25.3069 37.9142 24.6387Z" fill="white" fill-opacity="0.2"/>
<path d="M4.85158 19.4176C5.20364 19.7708 5.51486 20.5414 5.78526 21.7296C5.14667 21.1855 4.83544 20.4148 4.85158 19.4176Z" fill="white" fill-opacity="0.2"/>
<path d="M2.98737 1.30686C3.15404 0.844941 3.70971 0.244027 4.65437 -0.49588C4.43801 0.301438 3.88234 0.902352 2.98737 1.30686Z" fill="white" fill-opacity="0.2"/>
<path d="M2.90982 30.4788C3.14053 30.6902 3.35749 31.1644 3.56071 31.9015C3.14498 31.5786 2.92802 31.1043 2.90982 30.4788Z" fill="white" fill-opacity="0.2"/>
<path d="M11.0153 14.5715C11.2354 14.3296 11.7303 14.101 12.4999 13.8858C12.164 14.3216 11.6691 14.5501 11.0153 14.5715Z" fill="white" fill-opacity="0.2"/>
<path d="M39.7795 2.7095C40.2019 2.72591 40.8397 3.02525 41.6928 3.60752C40.9823 3.63773 40.3445 3.33839 39.7795 2.7095Z" fill="white" fill-opacity="0.2"/>
<path d="M37.6633 22.1153C38.0396 21.8391 38.7965 21.6592 39.934 21.5758C39.3409 22.0904 38.584 22.2702 37.6633 22.1153Z" fill="white" fill-opacity="0.2"/>
<path d="M34.7527 18.4654C35.0758 18.2656 35.7015 18.1687 36.6297 18.1745C36.1152 18.5537 35.4895 18.6506 34.7527 18.4654Z" fill="white" fill-opacity="0.2"/>
<path d="M11.5587 35.0228C11.6187 34.5325 12.0288 33.8189 12.7892 32.8817C12.7557 33.7119 12.3456 34.4256 11.5587 35.0228Z" fill="white" fill-opacity="0.2"/>
<path d="M36.8743 25.6622C37.3739 25.5978 38.1828 25.8231 39.3008 26.3382C38.4718 26.5146 37.663 26.2893 36.8743 25.6622Z" fill="white" fill-opacity="0.2"/>
<path d="M39.7434 10.4343C40.1659 10.718 40.6304 11.4276 41.1369 12.5633C40.3897 12.1454 39.9252 11.4357 39.7434 10.4343Z" fill="white" fill-opacity="0.2"/>
<path d="M38.1285 31.0786C38.4748 31.0849 39.0023 31.3194 39.711 31.7821C39.1295 31.8188 38.602 31.5843 38.1285 31.0786Z" fill="white" fill-opacity="0.2"/>
<path d="M37.4471 23.5883C37.6613 23.3388 38.152 23.0949 38.9192 22.8566C38.5941 23.3041 38.1034 23.548 37.4471 23.5883Z" fill="white" fill-opacity="0.2"/>
<path d="M20.8059 38.543C21.1866 38.4579 21.8261 38.5743 22.7246 38.8923C22.098 39.087 21.4584 38.9705 20.8059 38.543Z" fill="white" fill-opacity="0.2"/>
<path d="M31.7083 22.5845C32.0621 22.779 32.4789 23.3072 32.9588 24.1692C32.339 23.8913 31.9222 23.3631 31.7083 22.5845Z" fill="white" fill-opacity="0.2"/>
<path d="M31.3066 34.7991C31.6345 34.751 32.1689 34.8899 32.9099 35.2159C32.3668 35.3413 31.8324 35.2024 31.3066 34.7991Z" fill="white" fill-opacity="0.2"/>
<path d="M11.6819 33.227C11.7417 32.8592 12.0723 32.3334 12.6736 31.6497C12.6235 32.2746 12.2929 32.8004 11.6819 33.227Z" fill="white" fill-opacity="0.2"/>
<path d="M40.3273 17.9142C40.5462 17.6961 41.0238 17.5034 41.7601 17.3361C41.4228 17.7317 40.9452 17.9244 40.3273 17.9142Z" fill="white" fill-opacity="0.2"/>
<path d="M38.8151 37.2332C39.1122 37.4053 39.4566 37.8623 39.8484 38.6043C39.3266 38.3563 38.9822 37.8993 38.8151 37.2332Z" fill="white" fill-opacity="0.2"/>
<path d="M27.6517 35.3527C28.0337 35.2383 28.6943 35.3106 29.6336 35.5696C29.0087 35.8136 28.3481 35.7413 27.6517 35.3527Z" fill="white" fill-opacity="0.2"/>
<path d="M11.4473 44.5937C11.5202 44.2609 11.848 43.7973 12.4307 43.2029C12.3541 43.7709 12.0263 44.2345 11.4473 44.5937Z" fill="white" fill-opacity="0.2"/>
<path d="M33.3192 45.8963C33.7786 45.6986 34.6123 45.6934 35.8201 45.8806C35.0767 46.2748 34.243 46.2801 33.3192 45.8963Z" fill="white" fill-opacity="0.2"/>
<path d="M40.5216 17.0677C40.7772 16.7455 41.3786 16.4166 42.3259 16.0812C41.9415 16.6565 41.3401 16.9853 40.5216 17.0677Z" fill="white" fill-opacity="0.2"/>
<path d="M9.84357 19.606C10.176 19.3159 10.8746 19.0865 11.9394 18.9176C11.4215 19.4494 10.7229 19.6788 9.84357 19.606Z" fill="white" fill-opacity="0.2"/>
<path d="M8.81058 24.1229C9.08721 23.7428 9.75859 23.3388 10.8247 22.911C10.4128 23.5862 9.74142 23.9902 8.81058 24.1229Z" fill="white" fill-opacity="0.2"/>
<path d="M41.3361 16.8961C41.7001 17.2161 42.0513 17.9437 42.3895 19.0788C41.7353 18.5919 41.3842 17.8643 41.3361 16.8961Z" fill="white" fill-opacity="0.2"/>
<path d="M13.3787 15.4231C13.712 15.4804 14.1865 15.7847 14.8021 16.3361C14.2354 16.2855 13.7609 15.9812 13.3787 15.4231Z" fill="white" fill-opacity="0.2"/>
<path d="M31.8425 30.4958C32.2331 30.223 33.0099 30.0578 34.1727 30.0002C33.5549 30.511 32.7782 30.6762 31.8425 30.4958Z" fill="white" fill-opacity="0.2"/>
<path d="M2.77615 6.87271C3.07844 6.81088 3.5826 6.91215 4.28865 7.17653C3.79024 7.32152 3.28607 7.22025 2.77615 6.87271Z" fill="white" fill-opacity="0.2"/>
<path d="M20.0586 23.5881C20.2303 23.1026 20.8088 22.4687 21.7943 21.6864C21.5729 22.5239 20.9943 23.1578 20.0586 23.5881Z" fill="white" fill-opacity="0.2"/>
<path d="M34.0971 44.1017C34.5531 44.2958 35.1273 44.8896 35.8195 45.8832C35.0283 45.6202 34.4542 45.0264 34.0971 44.1017Z" fill="white" fill-opacity="0.2"/>
<path d="M34.45 11.1502C34.8149 10.784 35.6127 10.4586 36.8435 10.1741C36.2817 10.8381 35.4838 11.1634 34.45 11.1502Z" fill="white" fill-opacity="0.2"/>
<path d="M7.97876 26.431C8.0722 26.0758 8.44616 25.5912 9.10065 24.9771C8.99252 25.5855 8.61856 26.0701 7.97876 26.431Z" fill="white" fill-opacity="0.2"/>
<path d="M18.6461 26.2804C18.6991 25.8714 19.0459 25.278 19.6864 24.5002C19.6535 25.1932 19.3067 25.7866 18.6461 26.2804Z" fill="white" fill-opacity="0.2"/>
<path d="M38.2702 37.2015C38.6678 37.1715 39.2976 37.3836 40.1596 37.8376C39.497 37.9422 38.8672 37.7302 38.2702 37.2015Z" fill="white" fill-opacity="0.2"/>
<path d="M35.0773 28.4127C35.2126 28.0544 35.6527 27.5923 36.3978 27.0263C36.2199 27.6454 35.7798 28.1076 35.0773 28.4127Z" fill="white" fill-opacity="0.2"/>
<path d="M22.6849 11.416C22.6538 10.9212 22.927 10.1416 23.5047 9.07695C23.6246 9.90224 23.3513 10.6819 22.6849 11.416Z" fill="white" fill-opacity="0.2"/>
<path d="M1.01007 20.5589C1.24572 20.3551 1.73969 20.1953 2.49199 20.0794C2.1247 20.4533 1.63073 20.6131 1.01007 20.5589Z" fill="white" fill-opacity="0.2"/>
<path d="M16.3911 18.7435C16.6961 18.9983 16.9988 19.5874 17.2993 20.5107C16.7532 20.1251 16.4505 19.5361 16.3911 18.7435Z" fill="white" fill-opacity="0.2"/>
<path d="M3.21973 13.0521C3.62169 13.1664 4.16454 13.6028 4.84828 14.3613C4.15865 14.2245 3.6158 13.7881 3.21973 13.0521Z" fill="white" fill-opacity="0.2"/>
<path d="M45.1249 30.6569C45.3752 30.2911 45.9969 29.8919 46.99 29.4594C46.6203 30.1071 45.9986 30.5063 45.1249 30.6569Z" fill="white" fill-opacity="0.2"/>
<path d="M29.0814 22.1227C29.5017 22.2861 30.0408 22.8096 30.6987 23.6934C29.9717 23.4769 29.4326 22.9533 29.0814 22.1227Z" fill="white" fill-opacity="0.2"/>
<path d="M44.5109 12.8119C44.7821 12.6327 45.3147 12.5337 46.1088 12.5147C45.6785 12.8522 45.1459 12.9513 44.5109 12.8119Z" fill="white" fill-opacity="0.2"/>
<path d="M14.5039 3.37858C14.821 3.17761 15.4381 3.07485 16.3553 3.07031C15.8512 3.45063 15.234 3.55339 14.5039 3.37858Z" fill="white" fill-opacity="0.2"/>
<path d="M34.1995 4.06502C34.3837 3.75578 34.8673 3.40066 35.6502 2.99966C35.3835 3.54337 34.8999 3.89849 34.1995 4.06502Z" fill="white" fill-opacity="0.2"/>
<path d="M35.8019 39.1931C36.0644 39 36.5927 38.8739 37.3867 38.8148C36.973 39.1745 36.4447 39.3006 35.8019 39.1931Z" fill="white" fill-opacity="0.2"/>
<path d="M18.0294 34.3807C18.3002 34.6559 18.5373 35.2541 18.7406 36.1752C18.249 35.7508 18.0119 35.1526 18.0294 34.3807Z" fill="white" fill-opacity="0.2"/>
<path d="M31.6019 24.9092C31.9696 24.8595 32.5662 25.0218 33.3919 25.3961C32.7822 25.5297 32.1855 25.3674 31.6019 24.9092Z" fill="white" fill-opacity="0.2"/>
<path d="M24.278 2.87829C24.6207 2.55532 25.3565 2.28197 26.4852 2.05824C25.9547 2.64663 25.2189 2.91998 24.278 2.87829Z" fill="white" fill-opacity="0.2"/>
<path d="M33.9156 36.4556C34.3253 36.243 35.0921 36.1826 36.2161 36.2743C35.5582 36.6867 34.7914 36.7471 33.9156 36.4556Z" fill="white" fill-opacity="0.2"/>
<path d="M29.8887 39.6277C30.2916 39.7462 30.833 40.1896 31.5131 40.9579C30.8215 40.8142 30.28 40.3708 29.8887 39.6277Z" fill="white" fill-opacity="0.2"/>
<path d="M25.3728 45.5188C25.4582 45.0817 25.8731 44.4661 26.6173 43.6721C26.5338 44.4167 26.119 45.0323 25.3728 45.5188Z" fill="white" fill-opacity="0.2"/>
<path d="M17.1428 9.6263C17.5109 9.48361 18.1688 9.50353 19.1162 9.68606C18.5183 9.97563 17.8605 9.95572 17.1428 9.6263Z" fill="white" fill-opacity="0.2"/>
<path d="M30.3753 30.903C30.7633 30.8302 31.4062 30.9701 32.304 31.3229C31.6634 31.4981 31.0205 31.3582 30.3753 30.903Z" fill="white" fill-opacity="0.2"/>
<path d="M11.4958 11.4422C11.4697 10.9742 11.7333 10.2388 12.2868 9.23607C12.3945 10.0173 12.1309 10.7527 11.4958 11.4422Z" fill="white" fill-opacity="0.2"/>
<path d="M26.3779 27.6048C26.7909 27.553 27.4587 27.7415 28.3811 28.1704C27.6956 28.3137 27.0278 28.1252 26.3779 27.6048Z" fill="white" fill-opacity="0.2"/>
<path d="M14.6942 26.7525C15.0313 26.5267 15.6952 26.3989 16.686 26.369C16.1517 26.7936 15.4878 26.9214 14.6942 26.7525Z" fill="white" fill-opacity="0.2"/>
<path d="M36.3764 32.5383C36.702 32.7608 37.0575 33.3136 37.4428 34.1968C36.8664 33.8683 36.5109 33.3155 36.3764 32.5383Z" fill="white" fill-opacity="0.2"/>
<path d="M16.6748 9.74399C17.0244 9.89013 17.4662 10.3414 18.0001 11.0977C17.394 10.9004 16.9523 10.4492 16.6748 9.74399Z" fill="white" fill-opacity="0.2"/>
<path d="M44.2687 7.30265C44.7136 7.12676 45.5107 7.14551 46.6601 7.3589C45.9381 7.71463 45.141 7.69588 44.2687 7.30265Z" fill="white" fill-opacity="0.2"/>
<path d="M7.05261 33.459C7.37838 33.4134 7.90804 33.5549 8.64161 33.8834C8.10159 34.0044 7.57193 33.8629 7.05261 33.459Z" fill="white" fill-opacity="0.2"/>
<path d="M32.2526 29.6483C32.7293 29.545 33.5281 29.6958 34.6491 30.1007C33.8639 30.3391 33.065 30.1883 32.2526 29.6483Z" fill="white" fill-opacity="0.2"/>
<path d="M31.9661 15.0234C32.2571 15.3528 32.4899 16.0474 32.6646 17.1072C32.1317 16.5945 31.8989 15.8999 31.9661 15.0234Z" fill="white" fill-opacity="0.2"/>
<path d="M33.668 3.42886C34.0782 3.6783 34.5462 4.32748 35.0717 5.37641C34.3497 5.01423 33.8818 4.36505 33.668 3.42886Z" fill="white" fill-opacity="0.2"/>
<path d="M25.3457 30.9041C25.7927 31.0384 26.3918 31.5346 27.1428 32.3928C26.375 32.2287 25.7759 31.7325 25.3457 30.9041Z" fill="white" fill-opacity="0.2"/>
<path d="M18.5555 9.451C18.9064 9.74722 19.2527 10.4297 19.5945 11.4983C18.9658 11.0496 18.6194 10.3671 18.5555 9.451Z" fill="white" fill-opacity="0.2"/>
<path d="M33.3478 46.5301C33.6288 46.7623 33.9095 47.3011 34.1898 48.1464C33.6869 47.7955 33.4063 47.2568 33.3478 46.5301Z" fill="white" fill-opacity="0.2"/>
<path d="M8.79523 23.2025C9.16574 22.8546 9.96034 22.561 11.179 22.3217C10.6053 22.9557 9.81069 23.2493 8.79523 23.2025Z" fill="white" fill-opacity="0.2"/>
<path d="M3.70853 47.2404C3.70736 46.7867 4.00005 46.0894 4.58659 45.1486C4.65055 45.9092 4.35786 46.6065 3.70853 47.2404Z" fill="white" fill-opacity="0.2"/>
<path d="M44.2607 9.92928C44.5002 10.2003 44.692 10.7717 44.836 11.6436C44.3974 11.2219 44.2056 10.6505 44.2607 9.92928Z" fill="white" fill-opacity="0.2"/>
<path d="M23.7654 37.5295C24.1727 37.3855 24.8914 37.4286 25.9215 37.659C25.2583 37.9562 24.5396 37.9131 23.7654 37.5295Z" fill="white" fill-opacity="0.2"/>
<path d="M12.2537 29.2678C12.53 29.4253 12.8519 29.8463 13.2195 30.5309C12.7347 30.3047 12.4128 29.8836 12.2537 29.2678Z" fill="white" fill-opacity="0.2"/>
<path d="M19.1255 28.1779C19.4173 28.4112 19.7137 28.9589 20.0148 29.8208C19.4937 29.4693 19.1972 28.9217 19.1255 28.1779Z" fill="white" fill-opacity="0.2"/>
<path d="M44.1705 38.5624C44.6072 38.406 45.3791 38.4494 46.4861 38.6924C45.7753 39.0144 45.0034 38.971 44.1705 38.5624Z" fill="white" fill-opacity="0.2"/>
<path d="M46.7193 38.5775C46.9508 38.3782 47.4354 38.2225 48.1732 38.1104C47.8124 38.4762 47.3277 38.6319 46.7193 38.5775Z" fill="white" fill-opacity="0.2"/>
<path d="M36.5783 14.9196C36.587 14.4975 36.8743 13.8552 37.4403 12.9926C37.4834 13.7016 37.196 14.3439 36.5783 14.9196Z" fill="white" fill-opacity="0.2"/>
<path d="M26.4752 21.339C26.7948 21.1914 27.3811 21.1721 28.2343 21.2813C27.7186 21.5725 27.1323 21.5917 26.4752 21.339Z" fill="white" fill-opacity="0.2"/>
<path d="M3.02396 13.121C3.14245 12.6588 3.62431 12.0262 4.46955 11.2232C4.33402 12.0144 3.85216 12.647 3.02396 13.121Z" fill="white" fill-opacity="0.2"/>
<path d="M10.0835 42.0191C10.4098 41.8546 11.0175 41.8137 11.9065 41.8965C11.3819 42.217 10.7743 42.2579 10.0835 42.0191Z" fill="white" fill-opacity="0.2"/>
<path d="M46.5849 6.15833C47.0372 6.18365 47.7152 6.51612 48.6188 7.15574C47.8568 7.17509 47.1789 6.84262 46.5849 6.15833Z" fill="white" fill-opacity="0.2"/>
<path d="M43.2456 3.01828C43.7079 3.2313 44.2794 3.85837 44.96 4.89951C44.1557 4.6055 43.5842 3.97843 43.2456 3.01828Z" fill="white" fill-opacity="0.2"/>
<path d="M3.81216 37.0742C4.04347 36.6781 4.65567 36.2201 5.64874 35.7002C5.31502 36.3961 4.70283 36.8541 3.81216 37.0742Z" fill="white" fill-opacity="0.2"/>
<path d="M32.337 4.88184C32.6105 5.04794 32.9226 5.48043 33.2731 6.1793C32.7918 5.93815 32.4798 5.50566 32.337 4.88184Z" fill="white" fill-opacity="0.2"/>
<path d="M37.2891 45.5158C37.6177 45.6142 38.0583 45.9787 38.6108 46.6092C38.0463 46.489 37.6057 46.1245 37.2891 45.5158Z" fill="white" fill-opacity="0.2"/>
<path d="M9.99246 32.3576C10.302 32.1962 10.8819 32.1495 11.7321 32.2173C11.2351 32.5301 10.6552 32.5768 9.99246 32.3576Z" fill="white" fill-opacity="0.2"/>
<path d="M37.8966 9.84308C38.285 10.0956 38.7174 10.7354 39.1937 11.7624C38.5079 11.3921 38.0755 10.7523 37.8966 9.84308Z" fill="white" fill-opacity="0.2"/>
<path d="M41.9537 21.7147C42.1285 21.3895 42.6078 21.0038 43.3917 20.5576C43.1431 21.1266 42.6637 21.5124 41.9537 21.7147Z" fill="white" fill-opacity="0.2"/>
<path d="M7.31985 4.85127C7.71311 4.76258 8.37436 4.88167 9.3036 5.20854C8.65631 5.41099 7.99506 5.2919 7.31985 4.85127Z" fill="white" fill-opacity="0.2"/>
<path d="M41.0995 43.7279C41.4804 43.8894 41.9602 44.3846 42.5391 45.2133C41.8784 44.9945 41.3985 44.4994 41.0995 43.7279Z" fill="white" fill-opacity="0.2"/>
<path d="M20.2177 14.8858C20.5628 14.9058 21.0796 15.1605 21.7682 15.65C21.1867 15.6636 20.6699 15.4088 20.2177 14.8858Z" fill="white" fill-opacity="0.2"/>
<path d="M12.4286 20.1452C12.8651 20.3289 13.416 20.8941 14.0812 21.8409C13.3242 21.5926 12.7733 21.0274 12.4286 20.1452Z" fill="white" fill-opacity="0.2"/>
<path d="M4.93726 11.4722C5.41785 11.6282 6.05441 12.1794 6.84693 13.1261C6.01976 12.9303 5.38321 12.379 4.93726 11.4722Z" fill="white" fill-opacity="0.2"/>
<path d="M9.4379 46.2488C9.68576 45.876 10.3082 45.4647 11.3052 45.0148C10.9405 45.6737 10.3181 46.085 9.4379 46.2488Z" fill="white" fill-opacity="0.2"/>
<path d="M44.6647 26.3937C44.7711 26.0916 45.1304 25.6969 45.7427 25.2096C45.6057 25.7307 45.2463 26.1254 44.6647 26.3937Z" fill="white" fill-opacity="0.2"/>
<path d="M12.7961 47.8098C13.0792 47.5215 13.7009 47.2627 14.6613 47.0334C14.2259 47.5555 13.6042 47.8143 12.7961 47.8098Z" fill="white" fill-opacity="0.2"/>
<path d="M21.8735 13.1318C22.2073 12.9949 22.8084 13.0014 23.677 13.1513C23.1361 13.4264 22.5349 13.4199 21.8735 13.1318Z" fill="white" fill-opacity="0.2"/>
<path d="M8.26855 14.7119C8.54683 14.8267 8.89951 15.1835 9.32659 15.7823C8.8443 15.6279 8.49162 15.2711 8.26855 14.7119Z" fill="white" fill-opacity="0.2"/>
<path d="M3.99685 0.157257C4.28298 0.449724 4.53239 1.0844 4.74509 2.06127C4.22535 1.60996 3.97594 0.975293 3.99685 0.157257Z" fill="white" fill-opacity="0.2"/>
<path d="M37.2117 5.99514C37.5359 5.9533 38.0607 6.09948 38.7861 6.43367C38.2482 6.54813 37.7234 6.40195 37.2117 5.99514Z" fill="white" fill-opacity="0.2"/>
<path d="M0.142365 15.19C0.219603 14.8041 0.588653 14.2618 1.24951 13.5631C1.17274 14.2208 0.803691 14.7631 0.142365 15.19Z" fill="white" fill-opacity="0.2"/>
<path d="M42.1009 6.15211C42.5387 6.23219 43.1589 6.63929 43.9613 7.37341C43.2162 7.29896 42.5961 6.89186 42.1009 6.15211Z" fill="white" fill-opacity="0.2"/>
<path d="M45.3121 32.9366C45.4819 32.5386 46.0008 32.0377 46.8688 31.4341C46.6386 32.1247 46.1197 32.6255 45.3121 32.9366Z" fill="white" fill-opacity="0.2"/>
<path d="M27.2474 38.3915C27.2935 38.0094 27.6123 37.4527 28.2037 36.7215C28.1786 37.3685 27.8599 37.9252 27.2474 38.3915Z" fill="white" fill-opacity="0.2"/>
<path d="M1.40942 20.1202C1.77702 20.292 2.22981 20.7943 2.76781 21.6271C2.12795 21.3892 1.67516 20.8869 1.40942 20.1202Z" fill="white" fill-opacity="0.2"/>
<path d="M10.297 11.2386C10.5652 11.5272 10.7896 12.1443 10.9702 13.09C10.481 12.6427 10.2566 12.0255 10.297 11.2386Z" fill="white" fill-opacity="0.2"/>
<path d="M35.501 11.3353C36.0003 11.48 36.6729 12.0263 37.5188 12.974C36.6617 12.7996 35.9891 12.2534 35.501 11.3353Z" fill="white" fill-opacity="0.2"/>
<path d="M45.0509 18.6024C45.3557 18.284 46.0301 17.9932 47.0742 17.7298C46.6067 18.3052 45.9322 18.596 45.0509 18.6024Z" fill="white" fill-opacity="0.2"/>
<path d="M26.0621 12.4729C26.3066 12.7121 26.5267 13.238 26.7224 14.0506C26.2797 13.6829 26.0596 13.157 26.0621 12.4729Z" fill="white" fill-opacity="0.2"/>
<path d="M41.6986 25.6047C41.934 25.163 42.5819 24.6378 43.6425 24.0289C43.3082 24.8017 42.6603 25.3269 41.6986 25.6047Z" fill="white" fill-opacity="0.2"/>
<path d="M40.5874 40.5925C40.855 40.9001 41.0661 41.546 41.2207 42.5301C40.73 42.0509 40.5189 41.405 40.5874 40.5925Z" fill="white" fill-opacity="0.2"/>
<path d="M37.1366 12.6816C37.1142 12.1907 37.3985 11.4226 37.9895 10.3773C38.094 11.1974 37.8097 11.9655 37.1366 12.6816Z" fill="white" fill-opacity="0.2"/>
<path d="M31.0987 42.1019C31.1855 41.7455 31.5499 41.2548 32.1921 40.6296C32.0954 41.239 31.7309 41.7298 31.0987 42.1019Z" fill="white" fill-opacity="0.2"/>
<path d="M17.2915 37.5087C17.6163 37.7942 17.9296 38.4433 18.2315 39.456C17.6478 39.0217 17.3345 38.3726 17.2915 37.5087Z" fill="white" fill-opacity="0.2"/>
<path d="M27.8313 34.1004C27.8903 33.7333 28.2191 33.208 28.8177 32.5245C28.769 33.1481 28.4402 33.6734 27.8313 34.1004Z" fill="white" fill-opacity="0.2"/>
<path d="M30.7357 45.7653C31.0858 45.4926 31.8001 45.3012 32.8787 45.1911C32.329 45.6962 31.6147 45.8875 30.7357 45.7653Z" fill="white" fill-opacity="0.2"/>
<path d="M36.075 34.5493C36.4449 34.2295 37.2203 33.9787 38.4012 33.7968C37.8246 34.3835 37.0492 34.6344 36.075 34.5493Z" fill="white" fill-opacity="0.2"/>
<path d="M37.6643 20.0931C37.6456 19.7198 37.8591 19.1344 38.305 18.3372C38.3874 18.9607 38.1739 19.546 37.6643 20.0931Z" fill="white" fill-opacity="0.2"/>
<path d="M34.1504 33.3369C34.5163 33.3667 35.0586 33.6499 35.7775 34.1864C35.1599 34.1865 34.6175 33.9033 34.1504 33.3369Z" fill="white" fill-opacity="0.2"/>
<path d="M9.38818 12.6579C9.66878 12.8727 9.96016 13.3844 10.2623 14.1932C9.76246 13.8715 9.47108 13.3597 9.38818 12.6579Z" fill="white" fill-opacity="0.2"/>
<path d="M35.9723 5.95888C36.1758 5.54746 36.7552 5.04796 37.7105 4.46036C37.4255 5.17803 36.8461 5.67754 35.9723 5.95888Z" fill="white" fill-opacity="0.2"/>
<path d="M39.8812 25.28C40.2335 25.1742 40.8432 25.2404 41.71 25.4787C41.1336 25.7043 40.524 25.6381 39.8812 25.28Z" fill="white" fill-opacity="0.2"/>
<path d="M25.7553 45.6287C26.2353 45.663 26.9499 46.0272 27.8991 46.7213C27.0895 46.7294 26.3749 46.3652 25.7553 45.6287Z" fill="white" fill-opacity="0.2"/>
<path d="M6.57104 21.0394C6.99134 21.3493 7.43544 22.0977 7.90334 23.2847C7.15625 22.8226 6.71215 22.0742 6.57104 21.0394Z" fill="white" fill-opacity="0.2"/>
<path d="M13.4689 22.5583C13.8966 22.7761 14.4117 23.3881 15.0144 24.3941C14.2675 24.0874 13.7523 23.4754 13.4689 22.5583Z" fill="white" fill-opacity="0.2"/>
<path d="M10.7143 26.9975C11.0487 27.1464 11.4655 27.5919 11.9646 28.3342C11.3835 28.1303 10.9667 27.6847 10.7143 26.9975Z" fill="white" fill-opacity="0.2"/>
<path d="M21.1726 9.00061C21.5607 8.81529 22.2768 8.78269 23.3208 8.90283C22.6954 9.26662 21.9793 9.29921 21.1726 9.00061Z" fill="white" fill-opacity="0.2"/>
<path d="M9.53602 28.6954C9.52701 28.2698 9.78943 27.6105 10.3233 26.7176C10.3966 27.4301 10.1342 28.0894 9.53602 28.6954Z" fill="white" fill-opacity="0.2"/>
<path d="M21.6829 18.1861C22.0465 18.4576 22.4284 19.1105 22.8287 20.1446C22.1819 19.739 21.7999 19.0861 21.6829 18.1861Z" fill="white" fill-opacity="0.2"/>
<path d="M12.1152 14.4556C12.1028 14.0496 12.3472 13.4184 12.8484 12.5618C12.9247 13.2408 12.6803 13.8721 12.1152 14.4556Z" fill="white" fill-opacity="0.2"/>
<path d="M21.2041 16.5239C21.5761 16.5779 22.1122 16.9024 22.8124 17.4972C22.1811 17.4574 21.645 17.133 21.2041 16.5239Z" fill="white" fill-opacity="0.2"/>
<path d="M43.3437 43.4308C43.6684 43.0627 44.4056 42.7084 45.5556 42.3678C45.0615 43.0294 44.3242 43.3837 43.3437 43.4308Z" fill="white" fill-opacity="0.2"/>
<path d="M6.38126 33.1318C6.85098 33.133 7.57127 33.4398 8.54212 34.052C7.75433 34.1141 7.03404 33.8074 6.38126 33.1318Z" fill="white" fill-opacity="0.2"/>
<path d="M16.0798 47.9748C16.3585 47.5418 17.0674 47.0579 18.2066 46.5231C17.7984 47.2874 17.0895 47.7713 16.0798 47.9748Z" fill="white" fill-opacity="0.2"/>
<path d="M14.4827 36.8133C14.7628 36.5901 15.3375 36.4292 16.207 36.3306C15.768 36.7431 15.1932 36.9041 14.4827 36.8133Z" fill="white" fill-opacity="0.2"/>
<path d="M9.85413 17.7431C10.1963 17.4083 10.9387 17.1166 12.0814 16.8678C11.5535 17.4758 10.8111 17.7675 9.85413 17.7431Z" fill="white" fill-opacity="0.2"/>
<path d="M6.45346 9.72934C6.78537 9.78566 7.25833 10.0875 7.87235 10.635C7.30811 10.5859 6.83515 10.284 6.45346 9.72934Z" fill="white" fill-opacity="0.2"/>
<path d="M37.719 32.3673C38.2088 32.3594 38.966 32.6652 39.9904 33.2847C39.1701 33.3649 38.4129 33.0591 37.719 32.3673Z" fill="white" fill-opacity="0.2"/>
<path d="M20.0795 8.28986C20.5155 8.23456 21.2207 8.43267 22.1952 8.88419C21.4716 9.0365 20.7664 8.83839 20.0795 8.28986Z" fill="white" fill-opacity="0.2"/>
<path d="M39.7869 40.8542C40.0233 41.1112 40.2194 41.659 40.3752 42.4978C39.9438 42.0993 39.7477 41.5514 39.7869 40.8542Z" fill="white" fill-opacity="0.2"/>
<path d="M10.0615 3.72321C10.436 3.49674 11.1578 3.39213 12.227 3.40936C11.63 3.84027 10.9082 3.94489 10.0615 3.72321Z" fill="white" fill-opacity="0.2"/>
<path d="M32.9231 45.089C32.8853 44.6093 33.1385 43.8483 33.6828 42.806C33.8119 43.6052 33.5586 44.3662 32.9231 45.089Z" fill="white" fill-opacity="0.2"/>
<path d="M35.6664 45.844C35.9602 45.7218 36.4905 45.7249 37.2572 45.8533C36.7813 46.0983 36.2511 46.0952 35.6664 45.844Z" fill="white" fill-opacity="0.2"/>
<path d="M35.6605 40.2445C36.1094 40.307 36.758 40.6943 37.6063 41.4065C36.845 41.363 36.1964 40.9757 35.6605 40.2445Z" fill="white" fill-opacity="0.2"/>
<path d="M35.1166 47.2337C35.3985 47.0867 35.9267 47.0441 36.7011 47.1057C36.2485 47.3907 35.7203 47.4334 35.1166 47.2337Z" fill="white" fill-opacity="0.2"/>
<path d="M35.4778 46.3886C35.9362 46.5239 36.552 47.0293 37.3253 47.9045C36.5381 47.7402 35.9223 47.2348 35.4778 46.3886Z" fill="white" fill-opacity="0.2"/>
<path d="M12.7465 46.15C13.1782 46.4265 13.6615 47.1311 14.1964 48.2639C13.4347 47.8593 12.9514 47.1547 12.7465 46.15Z" fill="white" fill-opacity="0.2"/>
<path d="M13.1476 5.01855C13.4928 5.05645 13.9981 5.33866 14.6635 5.86518C14.0795 5.84881 13.5742 5.5666 13.1476 5.01855Z" fill="white" fill-opacity="0.2"/>
<path d="M27.5632 40.8005C27.9388 40.4644 28.7336 40.1921 29.9476 39.9838C29.3637 40.5988 28.5689 40.8711 27.5632 40.8005Z" fill="white" fill-opacity="0.2"/>
<path d="M9.78467 17.1599C10.1517 17.2426 10.6614 17.6078 11.3138 18.2554C10.6871 18.1668 10.1774 17.8017 9.78467 17.1599Z" fill="white" fill-opacity="0.2"/>
<path d="M19.9756 17.7496C20.2717 17.822 20.6792 18.1254 21.198 18.6598C20.6917 18.5788 20.2842 18.2753 19.9756 17.7496Z" fill="white" fill-opacity="0.2"/>
<path d="M44.285 34.2251C44.6581 34.126 45.2952 34.216 46.1963 34.4951C45.5842 34.7123 44.9471 34.6223 44.285 34.2251Z" fill="white" fill-opacity="0.2"/>
<path d="M25.1999 22.8877C25.4885 23.2102 25.7221 23.8927 25.9008 24.9351C25.3728 24.4336 25.1392 23.7512 25.1999 22.8877Z" fill="white" fill-opacity="0.2"/>
<path d="M45.3539 10.7238C45.6878 10.8015 46.15 11.1376 46.7404 11.732C46.1698 11.6473 45.7077 11.3112 45.3539 10.7238Z" fill="white" fill-opacity="0.2"/>
<path d="M21.0968 15.2451C21.5676 15.2046 22.3166 15.4482 23.3439 15.9757C22.5599 16.1078 21.8108 15.8643 21.0968 15.2451Z" fill="white" fill-opacity="0.2"/>
<path d="M44.7589 27.063C45.1706 27.1018 45.7774 27.4288 46.5793 28.0437C45.8836 28.0348 45.2768 27.7078 44.7589 27.063Z" fill="white" fill-opacity="0.2"/>
<path d="M39.1451 12.7756C39.516 12.5786 40.2131 12.5169 41.2365 12.5905C40.6416 12.9715 39.9444 13.0332 39.1451 12.7756Z" fill="white" fill-opacity="0.2"/>
<path d="M17.9683 3.27611C18.28 3.35147 18.7095 3.66943 19.2569 4.23C18.724 4.14623 18.2945 3.82827 17.9683 3.27611Z" fill="white" fill-opacity="0.2"/>
<path d="M46.9043 15.4979C47.3462 15.5861 47.9673 16.0084 48.7676 16.7646C48.0146 16.6771 47.3935 16.2548 46.9043 15.4979Z" fill="white" fill-opacity="0.2"/>
<path d="M35.5338 15.1971C35.9403 14.8763 36.7726 14.6477 38.0307 14.5114C37.3928 15.1048 36.5605 15.3334 35.5338 15.1971Z" fill="white" fill-opacity="0.2"/>
<path d="M3.45114 22.8628C3.74802 22.9402 4.15353 23.2517 4.66769 23.7972C4.15931 23.7081 3.7538 23.3966 3.45114 22.8628Z" fill="white" fill-opacity="0.2"/>
<path d="M23.6541 16.2944C24.0792 16.2541 24.7579 16.4681 25.6903 16.9364C24.983 17.0621 24.3043 16.8481 23.6541 16.2944Z" fill="white" fill-opacity="0.2"/>
<path d="M10.2989 33.4996C10.768 33.4107 11.5459 33.5787 12.6325 34.0036C11.858 34.2168 11.0801 34.0488 10.2989 33.4996Z" fill="white" fill-opacity="0.2"/>
<path d="M38.3781 0.553686C38.6611 0.155076 39.3542 -0.273179 40.4574 -0.731079C40.0374 -0.0240265 39.3443 0.404229 38.3781 0.553686Z" fill="white" fill-opacity="0.2"/>
<path d="M29.9907 3.79051C30.1399 3.31868 30.6752 2.69122 31.5965 1.90813C31.4108 2.71966 30.8755 3.34712 29.9907 3.79051Z" fill="white" fill-opacity="0.2"/>
<path d="M9.06177 20.4782C9.37577 20.5024 9.84206 20.7434 10.4606 21.2012C9.93081 21.2035 9.46452 20.9625 9.06177 20.4782Z" fill="white" fill-opacity="0.2"/>
<path d="M30.5388 17.6866C30.5049 17.2474 30.738 16.5514 31.2379 15.5983C31.3547 16.33 31.1216 17.0261 30.5388 17.6866Z" fill="white" fill-opacity="0.2"/>
<path d="M13.0461 18.3347C13.3667 18.1976 13.9479 18.1952 14.7896 18.3276C14.2707 18.6013 13.6895 18.6037 13.0461 18.3347Z" fill="white" fill-opacity="0.2"/>
<path d="M9.36362 26.266C9.44018 25.819 9.84781 25.1825 10.5865 24.3565C10.5192 25.1165 10.1116 25.753 9.36362 26.266Z" fill="white" fill-opacity="0.2"/>
<path d="M46.4043 30.8584C46.6682 31.0837 46.9272 31.6009 47.1812 32.41C46.7078 32.0682 46.4488 31.551 46.4043 30.8584Z" fill="white" fill-opacity="0.2"/>
<path d="M17.6078 2.17465C17.9242 1.89797 18.5894 1.67855 19.6034 1.51639C19.1108 2.02355 18.4456 2.24297 17.6078 2.17465Z" fill="white" fill-opacity="0.2"/>
<path d="M24.6201 20.2911C24.8497 20.0338 25.3691 19.7877 26.1785 19.5529C25.8287 20.0158 25.3092 20.2619 24.6201 20.2911Z" fill="white" fill-opacity="0.2"/>
<path d="M14.4265 4.64524C14.6588 4.40059 15.1743 4.17583 15.9729 3.97096C15.6167 4.41294 15.1012 4.6377 14.4265 4.64524Z" fill="white" fill-opacity="0.2"/>
<path d="M35.2908 37.4384C35.615 37.1615 36.2922 36.947 37.3226 36.7946C36.8169 37.3031 36.1397 37.5177 35.2908 37.4384Z" fill="white" fill-opacity="0.2"/>
<path d="M6.25174 40.9249C6.57503 41.0454 6.99315 41.4401 7.50609 42.1091C6.94754 41.9513 6.52942 41.5566 6.25174 40.9249Z" fill="white" fill-opacity="0.2"/>
<path d="M46.2495 36.7169C46.5961 36.6795 47.1525 36.8471 47.9186 37.2198C47.3424 37.3298 46.7861 37.1621 46.2495 36.7169Z" fill="white" fill-opacity="0.2"/>
<path d="M0.0183716 23.016C0.0969317 22.5477 0.521462 21.8799 1.29196 21.0124C1.22423 21.8083 0.799696 22.4762 0.0183716 23.016Z" fill="white" fill-opacity="0.2"/>
<path d="M26.4568 25.1249C26.7909 25.1111 27.3128 25.3066 28.0225 25.7115C27.4642 25.7804 26.9423 25.5849 26.4568 25.1249Z" fill="white" fill-opacity="0.2"/>
<path d="M20.5 22.4565C20.968 22.5973 21.595 23.1171 22.381 24.0161C21.5771 23.8439 20.9501 23.3241 20.5 22.4565Z" fill="white" fill-opacity="0.2"/>
<path d="M24.6478 14.2816C24.875 13.9621 25.4313 13.6191 26.3165 13.2526C25.9791 13.8194 25.4229 14.1624 24.6478 14.2816Z" fill="white" fill-opacity="0.2"/>
<path d="M34.6119 27.917C35.125 27.8323 35.9675 28.0354 37.1394 28.5261C36.2907 28.7381 35.4482 28.5351 34.6119 27.917Z" fill="white" fill-opacity="0.2"/>
<path d="M46.6231 15.139C47.0913 15.236 47.747 15.6887 48.5903 16.4972C47.7921 16.3985 47.1363 15.9458 46.6231 15.139Z" fill="white" fill-opacity="0.2"/>
<path d="M19.1767 28.192C19.6055 28.1545 20.288 28.3752 21.2244 28.8542C20.5105 28.9757 19.8279 28.7549 19.1767 28.192Z" fill="white" fill-opacity="0.2"/>
<path d="M5.34042 14.299C5.41545 13.8567 5.81768 13.2264 6.54711 12.4082C6.48174 13.1601 6.07951 13.7903 5.34042 14.299Z" fill="white" fill-opacity="0.2"/>
<path d="M13.5835 38.9221C13.8536 38.7613 14.3727 38.6897 15.1406 38.7073C14.7097 39.0139 14.1906 39.0855 13.5835 38.9221Z" fill="white" fill-opacity="0.2"/>
<path d="M39.4562 31.2186C39.4401 30.9113 39.615 30.4291 39.9807 29.7721C40.0496 30.2852 39.8748 30.7674 39.4562 31.2186Z" fill="white" fill-opacity="0.2"/>
<path d="M26.6775 40.1034C27.1968 40.1443 27.9674 40.5442 28.9893 41.3031C28.1129 41.3054 27.3423 40.9055 26.6775 40.1034Z" fill="white" fill-opacity="0.2"/>
<path d="M1.43454 22.1913C1.61366 21.8574 2.10533 21.4611 2.90954 21.0025C2.65481 21.5868 2.16314 21.9831 1.43454 22.1913Z" fill="white" fill-opacity="0.2"/>
<path d="M33.6467 0.865494C33.8502 0.597322 34.3368 0.317781 35.1064 0.0268707C34.8017 0.504357 34.3151 0.783898 33.6467 0.865494Z" fill="white" fill-opacity="0.2"/>
<path d="M43.5263 28.8758C43.8506 29.2207 44.1246 29.9607 44.3482 31.0957C43.7573 30.5616 43.4833 29.8217 43.5263 28.8758Z" fill="white" fill-opacity="0.2"/>
<path d="M11.899 38.667C12.1995 38.6976 12.6409 38.9395 13.2232 39.3927C12.7152 39.3825 12.2739 39.1406 11.899 38.667Z" fill="white" fill-opacity="0.2"/>
<path d="M42.1316 6.08263C42.1865 5.62296 42.5691 4.95295 43.2794 4.0726C43.2502 4.85087 42.8676 5.52088 42.1316 6.08263Z" fill="white" fill-opacity="0.2"/>
<path d="M39.35 14.6248C39.5667 14.2188 40.1629 13.7361 41.1385 13.1769C40.8306 13.8873 40.2345 14.3699 39.35 14.6248Z" fill="white" fill-opacity="0.2"/>
<path d="M35.3303 18.5636C35.6404 18.4974 36.1595 18.5971 36.8875 18.8626C36.3765 19.016 35.8574 18.9163 35.3303 18.5636Z" fill="white" fill-opacity="0.2"/>
<path d="M11.7346 5.90481C12.0747 5.88035 12.6125 6.06349 13.3481 6.45422C12.7813 6.54169 12.2435 6.35855 11.7346 5.90481Z" fill="white" fill-opacity="0.2"/>
<path d="M45.2954 15.5175C45.6029 15.5462 46.0563 15.7897 46.6557 16.2481C46.1362 16.2421 45.6828 15.9985 45.2954 15.5175Z" fill="white" fill-opacity="0.2"/>
<path d="M24.5126 5.4499C24.7814 5.16948 25.3759 4.91342 26.2962 4.68172C25.8839 5.18864 25.2894 5.4447 24.5126 5.4499Z" fill="white" fill-opacity="0.2"/>
<path d="M18.4312 23.3451C18.6685 23.0086 19.251 22.6461 20.1789 22.2574C19.8271 22.8541 19.2445 23.2166 18.4312 23.3451Z" fill="white" fill-opacity="0.2"/>
<path d="M6.40494 16.6109C6.86855 16.5875 7.59547 16.8523 8.5857 17.4055C7.81153 17.5082 7.08461 17.2434 6.40494 16.6109Z" fill="white" fill-opacity="0.2"/>
<path d="M25.2941 16.3926C25.7116 16.1462 26.5124 16.0388 27.6965 16.0705C27.0302 16.5408 26.2294 16.6481 25.2941 16.3926Z" fill="white" fill-opacity="0.2"/>
<path d="M26.0818 13.0068C26.3037 12.6863 26.8523 12.3382 27.7277 11.9627C27.3995 12.5305 26.8509 12.8785 26.0818 13.0068Z" fill="white" fill-opacity="0.2"/>
<path d="M13.3526 14.1688C13.6581 13.9272 14.2838 13.7546 15.2297 13.651C14.7505 14.0978 14.1248 14.2704 13.3526 14.1688Z" fill="white" fill-opacity="0.2"/>
<path d="M38.0984 33.4012C38.3946 33.6466 38.69 34.2156 38.9847 35.1082C38.4544 34.7371 38.159 34.1681 38.0984 33.4012Z" fill="white" fill-opacity="0.2"/>
<path d="M12.4148 41.8996C12.7857 41.9464 13.3248 42.259 14.0319 42.8373C13.4036 42.8095 12.8645 42.497 12.4148 41.8996Z" fill="white" fill-opacity="0.2"/>
<path d="M27.3265 4.82773C27.3409 4.49002 27.5822 3.98095 28.0504 3.30052C28.0723 3.86875 27.8311 4.37782 27.3265 4.82773Z" fill="white" fill-opacity="0.2"/>
<path d="M31.1797 13.7239C31.3582 13.4388 31.8174 13.1169 32.5571 12.7583C32.2967 13.2609 31.8376 13.5827 31.1797 13.7239Z" fill="white" fill-opacity="0.2"/>
<path d="M4.97098 7.65279C5.29628 7.92785 5.61712 8.56122 5.93351 9.55291C5.35046 9.13614 5.02962 8.50277 4.97098 7.65279Z" fill="white" fill-opacity="0.2"/>
<path d="M7.2861 38.8163C7.63899 38.5008 8.38552 38.2454 9.5257 38.0501C8.97711 38.6275 8.23058 38.8829 7.2861 38.8163Z" fill="white" fill-opacity="0.2"/>
<path d="M5.91342 44.2107C6.26089 44.3639 6.69482 44.8247 7.21523 45.593C6.61167 45.3835 6.17773 44.9227 5.91342 44.2107Z" fill="white" fill-opacity="0.2"/>
<path d="M41.1829 30.2445C41.5302 30.2446 42.0632 30.4702 42.782 30.9213C42.1997 30.9685 41.6666 30.7429 41.1829 30.2445Z" fill="white" fill-opacity="0.2"/>
<path d="M10.1913 0.83842C10.2737 0.384004 10.6951 -0.260073 11.4556 -1.09381C11.3795 -0.320588 10.9581 0.323489 10.1913 0.83842Z" fill="white" fill-opacity="0.2"/>
<path d="M22.5984 16.5676C22.9191 16.2917 23.5905 16.0764 24.6126 15.9215C24.1125 16.428 23.4411 16.6433 22.5984 16.5676Z" fill="white" fill-opacity="0.2"/>
<path d="M16.7349 41.2782C17.0402 41.28 17.5077 41.4809 18.1373 41.8809C17.6252 41.9196 17.1577 41.7187 16.7349 41.2782Z" fill="white" fill-opacity="0.2"/>
<path d="M18.3828 3.82576C18.8021 3.61276 19.584 3.55791 20.7285 3.66122C20.0546 4.07567 19.2727 4.13052 18.3828 3.82576Z" fill="white" fill-opacity="0.2"/>
<path d="M9.61252 30.242C10.0577 30.3569 10.6666 30.8222 11.4391 31.638C10.6769 31.5061 10.068 31.0408 9.61252 30.242Z" fill="white" fill-opacity="0.2"/>
<path d="M38.8611 32.0943C39.0997 32.3413 39.3058 32.8753 39.4792 33.6965C39.0453 33.3149 38.8392 32.7808 38.8611 32.0943Z" fill="white" fill-opacity="0.2"/>
<path d="M18.0431 7.48586C18.2649 7.28004 18.7389 7.108 19.4651 6.96976C19.1214 7.34518 18.6474 7.51722 18.0431 7.48586Z" fill="white" fill-opacity="0.2"/>
<path d="M46.8204 35.6658C47.0109 35.3709 47.4947 35.0418 48.2718 34.6786C47.9927 35.1991 47.5089 35.5281 46.8204 35.6658Z" fill="white" fill-opacity="0.2"/>
<path d="M17.3194 14.6024C17.8251 14.7309 18.5179 15.2564 19.398 16.1788C18.5325 16.0324 17.8397 15.507 17.3194 14.6024Z" fill="white" fill-opacity="0.2"/>
<path d="M34.9144 41.6484C35.16 41.2162 35.8175 40.7121 36.887 40.136C36.5343 40.8944 35.8767 41.3985 34.9144 41.6484Z" fill="white" fill-opacity="0.2"/>
<path d="M45.5361 39.6231C45.7947 39.4304 46.3168 39.3024 47.1024 39.2392C46.695 39.5977 46.1729 39.7256 45.5361 39.6231Z" fill="white" fill-opacity="0.2"/>
<path d="M15.6646 47.3685C15.6521 47.0577 15.8347 46.5725 16.2124 45.9129C16.2758 46.4323 16.0931 46.9175 15.6646 47.3685Z" fill="white" fill-opacity="0.2"/>
<path d="M28.1661 42.8941C28.457 42.7629 28.9887 42.7503 29.7612 42.8562C29.2913 43.116 28.7596 43.1286 28.1661 42.8941Z" fill="white" fill-opacity="0.2"/>
<path d="M47.4388 29.7246C47.8123 29.3782 48.6107 29.0889 49.8338 28.8566C49.2547 29.4886 48.4563 29.7779 47.4388 29.7246Z" fill="white" fill-opacity="0.2"/>
<path d="M9.86716 40.7626C9.90627 40.3882 10.2094 39.8387 10.7764 39.1142C10.762 39.7474 10.4589 40.2969 9.86716 40.7626Z" fill="white" fill-opacity="0.2"/>
<path d="M35.6956 14.803C35.9402 14.9951 36.1909 15.4487 36.4479 16.1638C36.0116 15.8751 35.7608 15.4215 35.6956 14.803Z" fill="white" fill-opacity="0.2"/>
<path d="M31.4585 3.68793C31.5416 3.24444 31.957 2.61757 32.7047 1.80733C32.6259 2.56232 32.2105 3.18918 31.4585 3.68793Z" fill="white" fill-opacity="0.2"/>
<path d="M5.05475 10.014C5.35155 10.2358 5.66326 10.7687 5.98989 11.613C5.46192 11.2818 5.15021 10.7488 5.05475 10.014Z" fill="white" fill-opacity="0.2"/>
<path d="M28.2944 11.5378C28.4394 11.0598 28.9721 10.42 29.8927 9.61842C29.715 10.4398 29.1823 11.0796 28.2944 11.5378Z" fill="white" fill-opacity="0.2"/>
<path d="M34.0936 17.4072C34.3757 17.5982 34.6848 18.0745 35.0209 18.8361C34.5218 18.5544 34.2127 18.0781 34.0936 17.4072Z" fill="white" fill-opacity="0.2"/>
<path d="M2.89456 37.6101C3.11311 37.3795 3.59829 37.1673 4.35008 36.9736C4.01513 37.3901 3.52996 37.6023 2.89456 37.6101Z" fill="white" fill-opacity="0.2"/>
<path d="M2.56537 25.2798C2.75889 25.0098 3.23121 24.7209 3.98232 24.4132C3.69471 24.8924 3.2224 25.1812 2.56537 25.2798Z" fill="white" fill-opacity="0.2"/>
<path d="M44.6066 26.9631C45.0362 27.1751 45.5579 27.7795 46.1718 28.776C45.4226 28.4791 44.9009 27.8748 44.6066 26.9631Z" fill="white" fill-opacity="0.2"/>
<path d="M31.6079 6.50519C31.9525 6.11875 32.7322 5.74915 33.9472 5.39639C33.4222 6.09146 32.6425 6.46106 31.6079 6.50519Z" fill="white" fill-opacity="0.2"/>
<path d="M6.72452 47.8409C6.90485 47.5553 7.36701 47.234 8.11102 46.8769C7.84767 47.3804 7.3855 47.7017 6.72452 47.8409Z" fill="white" fill-opacity="0.2"/>
<path d="M10.5797 31.8164C10.6396 31.4675 10.958 30.9707 11.535 30.3262C11.4822 30.9195 11.1638 31.4162 10.5797 31.8164Z" fill="white" fill-opacity="0.2"/>
<path d="M43.5407 37.8924C43.9046 38.0066 44.3893 38.418 44.9945 39.1267C44.3687 38.9851 43.8841 38.5736 43.5407 37.8924Z" fill="white" fill-opacity="0.2"/>
<path d="M41.8256 44.4836C42.15 44.1627 42.8563 43.8806 43.9445 43.6374C43.4444 44.2198 42.7381 44.5019 41.8256 44.4836Z" fill="white" fill-opacity="0.2"/>
<path d="M38.9393 5.82738C39.3824 5.69309 40.1499 5.77457 41.2417 6.07182C40.5169 6.35756 39.7495 6.27608 38.9393 5.82738Z" fill="white" fill-opacity="0.2"/>
<path d="M45.3266 9.47458C45.3119 9.13932 45.5069 8.61513 45.9116 7.90199C45.9821 8.46213 45.7871 8.98632 45.3266 9.47458Z" fill="white" fill-opacity="0.2"/>
<path d="M22.6785 41.093C22.9047 41.3483 23.0861 41.8869 23.2228 42.7088C22.8088 42.3117 22.6274 41.7731 22.6785 41.093Z" fill="white" fill-opacity="0.2"/>
<path d="M43.9706 34.4613C44.2463 34.1269 44.8865 33.7924 45.8913 33.458C45.4747 34.0564 44.8345 34.3908 43.9706 34.4613Z" fill="white" fill-opacity="0.2"/>
<path d="M29.3894 27.0784C29.4719 26.6939 29.848 26.1572 30.5178 25.4683C30.4321 26.1242 30.0559 26.661 29.3894 27.0784Z" fill="white" fill-opacity="0.2"/>
<path d="M38.8878 3.19425C39.273 3.16628 39.8826 3.37339 40.7164 3.81557C40.0743 3.91511 39.4647 3.70801 38.8878 3.19425Z" fill="white" fill-opacity="0.2"/>
<path d="M15.3962 33.9244C15.7173 34.2161 16.021 34.8723 16.3072 35.8929C15.7288 35.4477 15.4252 34.7916 15.3962 33.9244Z" fill="white" fill-opacity="0.2"/>
<path d="M3.82391 26.6617C3.96996 26.2637 4.45243 25.7477 5.27132 25.1135C5.08081 25.8007 4.59834 26.3167 3.82391 26.6617Z" fill="white" fill-opacity="0.2"/>
<path d="M41.4896 38.7331C41.8826 38.8056 42.4388 39.1721 43.1582 39.8324C42.4893 39.7644 41.9331 39.398 41.4896 38.7331Z" fill="white" fill-opacity="0.2"/>
<path d="M41.2288 18.9941C41.4784 18.7565 42.0159 18.5538 42.8412 18.3859C42.455 18.8184 41.9176 19.0212 41.2288 18.9941Z" fill="white" fill-opacity="0.2"/>
<path d="M32.6211 7.70535C33.0298 7.62726 33.708 7.77269 34.6556 8.14164C33.9809 8.32844 33.3027 8.18301 32.6211 7.70535Z" fill="white" fill-opacity="0.2"/>
<path d="M31.4681 1.52545C31.4421 1.16627 31.6354 0.59806 32.048 -0.179184C32.1405 0.419538 31.9472 0.98775 31.4681 1.52545Z" fill="white" fill-opacity="0.2"/>
<path d="M25.7474 36.3022C25.9027 35.9448 26.3731 35.4972 27.1585 34.9591C26.9468 35.5794 26.4765 36.0271 25.7474 36.3022Z" fill="white" fill-opacity="0.2"/>
<path d="M3.91159 32.4546C4.33689 32.4848 4.97019 32.8071 5.81151 33.4215C5.09426 33.4291 4.46095 33.1068 3.91159 32.4546Z" fill="white" fill-opacity="0.2"/>
<path d="M33.4711 47.5334C33.8785 47.482 34.5373 47.6674 35.4474 48.0897C34.7713 48.2316 34.1126 48.0462 33.4711 47.5334Z" fill="white" fill-opacity="0.2"/>
<path d="M25.7719 45.1867C26.101 45.1892 26.6047 45.4065 27.2829 45.8388C26.7306 45.8797 26.227 45.6623 25.7719 45.1867Z" fill="white" fill-opacity="0.2"/>
<path d="M39.3893 11.8409C39.6525 11.9917 39.9588 12.394 40.308 13.0478C39.846 12.8309 39.5398 12.4287 39.3893 11.8409Z" fill="white" fill-opacity="0.2"/>
<path d="M37.6317 34.1575C37.9251 34.3193 38.2704 34.7582 38.6676 35.4741C38.1536 35.2428 37.8083 34.8039 37.6317 34.1575Z" fill="white" fill-opacity="0.2"/>
<path d="M16.5654 41.7356C17.034 41.7264 17.7593 42.0162 18.7414 42.6052C17.957 42.6848 17.2317 42.395 16.5654 41.7356Z" fill="white" fill-opacity="0.2"/>
<path d="M23.7414 23.7837C23.9132 23.5052 24.3578 23.1891 25.0752 22.8354C24.8251 23.326 24.3805 23.6421 23.7414 23.7837Z" fill="white" fill-opacity="0.2"/>
<path d="M26.5096 39.0561C26.4856 38.536 26.7861 37.722 27.4114 36.6141C27.5228 37.4829 27.2222 38.2968 26.5096 39.0561Z" fill="white" fill-opacity="0.2"/>
<path d="M46.4305 33.8707C46.4213 33.4062 46.7086 32.6871 47.2924 31.7134C47.3714 32.491 47.0841 33.2101 46.4305 33.8707Z" fill="white" fill-opacity="0.2"/>
<path d="M41.3989 15.4432C41.7507 15.6594 42.1503 16.2197 42.5978 17.1239C41.9785 16.8094 41.5788 16.2492 41.3989 15.4432Z" fill="white" fill-opacity="0.2"/>
<path d="M30.4635 10.7336C30.839 10.9076 31.3025 11.4184 31.854 12.2661C31.2006 12.0256 30.7371 11.5148 30.4635 10.7336Z" fill="white" fill-opacity="0.2"/>
<path d="M4.35358 18.7698C4.7536 18.5369 5.51882 18.4391 6.64925 18.4762C6.01032 18.9214 5.2451 19.0192 4.35358 18.7698Z" fill="white" fill-opacity="0.2"/>
<path d="M27.1616 32.0173C27.3069 31.6052 27.7973 31.0668 28.6329 30.4022C28.4457 31.1131 27.9553 31.6514 27.1616 32.0173Z" fill="white" fill-opacity="0.2"/>
<path d="M25.7454 29.8238C26.2406 29.8992 26.9519 30.3365 27.8792 31.1355C27.0385 31.0767 26.3272 30.6394 25.7454 29.8238Z" fill="white" fill-opacity="0.2"/>
<path d="M28.812 10.6878C29.1838 10.4429 29.9136 10.3084 31.0013 10.2842C30.4112 10.7456 29.6814 10.8801 28.812 10.6878Z" fill="white" fill-opacity="0.2"/>
<path d="M20.0857 20.5175C20.4397 20.7809 20.8121 21.4151 21.203 22.42C20.5734 22.0266 20.201 21.3924 20.0857 20.5175Z" fill="white" fill-opacity="0.2"/>
<path d="M22.286 42.693C22.6906 42.9397 23.1517 43.581 23.6692 44.617C22.9569 44.2586 22.4959 43.6173 22.286 42.693Z" fill="white" fill-opacity="0.2"/>
<path d="M4.88037 32.4393C5.27092 32.2032 6.02368 32.0942 7.13866 32.1124C6.51606 32.5617 5.7633 32.6706 4.88037 32.4393Z" fill="white" fill-opacity="0.2"/>
<path d="M38.2113 1.52342C38.4566 1.34736 38.9473 1.23628 39.6835 1.19016C39.2964 1.51887 38.8056 1.62996 38.2113 1.52342Z" fill="white" fill-opacity="0.2"/>
<path d="M23.4644 33.6815C23.7765 33.4885 24.3808 33.3949 25.2775 33.4005C24.7805 33.7667 24.1761 33.8604 23.4644 33.6815Z" fill="white" fill-opacity="0.2"/>
<path d="M18.84 14.1331C18.8376 13.7104 19.1081 13.0598 19.6517 12.1815C19.7136 12.89 19.4431 13.5405 18.84 14.1331Z" fill="white" fill-opacity="0.2"/>
<path d="M25.3683 28.9453C25.3403 28.4701 25.6056 27.7222 26.1644 26.7019C26.2765 27.495 26.0111 28.2428 25.3683 28.9453Z" fill="white" fill-opacity="0.2"/>
<path d="M30.1607 18.9956C30.26 18.6345 30.6469 18.1447 31.3213 17.5261C31.204 18.1451 30.8172 18.635 30.1607 18.9956Z" fill="white" fill-opacity="0.2"/>
<path d="M29.3968 25.7546C29.7989 25.8737 30.3388 26.3174 31.0166 27.0858C30.3262 26.9411 29.7862 26.4974 29.3968 25.7546Z" fill="white" fill-opacity="0.2"/>
<path d="M6.48538 4.63445C6.78646 4.84532 7.11177 5.36445 7.46132 6.19183C6.92766 5.87937 6.60235 5.36024 6.48538 4.63445Z" fill="white" fill-opacity="0.2"/>
<path d="M43.5898 18.4127C43.9642 18.3891 44.5542 18.5959 45.36 19.0331C44.7354 19.1238 44.1453 18.917 43.5898 18.4127Z" fill="white" fill-opacity="0.2"/>
<path d="M23.6029 1.42788C23.6581 0.949279 24.0533 0.250352 24.7887 -0.6689C24.7616 0.141147 24.3664 0.840074 23.6029 1.42788Z" fill="white" fill-opacity="0.2"/>
<path d="M6.56619 47.5041C7.05142 47.5778 7.74844 48.006 8.65723 48.7885C7.83352 48.7312 7.13651 48.303 6.56619 47.5041Z" fill="white" fill-opacity="0.2"/>
<path d="M16.446 25.2271C16.6491 24.9248 17.1571 24.5925 17.97 24.2303C17.6707 24.765 17.1627 25.0972 16.446 25.2271Z" fill="white" fill-opacity="0.2"/>
<path d="M37.3198 0.0472717C37.6988 0.302092 38.1151 0.939215 38.5688 1.95864C37.8986 1.58314 37.4823 0.94602 37.3198 0.0472717Z" fill="white" fill-opacity="0.2"/>
<path d="M47.1196 19.3303C47.468 19.569 47.8478 20.1615 48.2592 21.1078C47.6425 20.7552 47.2626 20.1627 47.1196 19.3303Z" fill="white" fill-opacity="0.2"/>
<path d="M7.6008 13.9129C7.59758 13.5447 7.83162 12.9773 8.30291 12.2109C8.35863 12.8278 8.12459 13.3952 7.6008 13.9129Z" fill="white" fill-opacity="0.2"/>
<path d="M7.68533 39.7916C8.1673 39.865 8.85951 40.2906 9.76196 41.0682C8.94376 41.0109 8.25155 40.5854 7.68533 39.7916Z" fill="white" fill-opacity="0.2"/>
<path d="M12.6295 17.6021C12.8366 17.3687 13.3061 17.1448 14.0379 16.9304C13.7225 17.3502 13.253 17.5741 12.6295 17.6021Z" fill="white" fill-opacity="0.2"/>
<path d="M38.6808 8.0164C38.962 7.89087 39.475 7.88065 40.22 7.98574C39.7657 8.23463 39.2527 8.24485 38.6808 8.0164Z" fill="white" fill-opacity="0.2"/>
<path d="M10.176 0.628422C10.2481 0.279466 10.5853 -0.209411 11.1875 -0.838211C11.1143 -0.243231 10.7771 0.245646 10.176 0.628422Z" fill="white" fill-opacity="0.2"/>
<path d="M32.7213 8.57119C32.8405 8.27868 33.2135 7.90705 33.8401 7.45631C33.6801 7.9631 33.3071 8.33472 32.7213 8.57119Z" fill="white" fill-opacity="0.2"/>
<path d="M32.7636 32.6711C33.0456 32.39 33.661 32.1415 34.6097 31.9256C34.1752 32.4355 33.5599 32.684 32.7636 32.6711Z" fill="white" fill-opacity="0.2"/>
<path d="M21.7371 45.3938C22.2331 45.4994 22.926 45.9836 23.8158 46.8462C22.9696 46.7369 22.2767 46.2527 21.7371 45.3938Z" fill="white" fill-opacity="0.2"/>
<path d="M2.60779 30.1314C2.91481 30.2069 3.33711 30.5221 3.87468 31.077C3.34955 30.9923 2.92726 30.6771 2.60779 30.1314Z" fill="white" fill-opacity="0.2"/>
<path d="M29.07 10.7768C29.3889 10.3597 30.149 9.92634 31.3504 9.47668C30.8728 10.2196 30.1127 10.653 29.07 10.7768Z" fill="white" fill-opacity="0.2"/>
<path d="M4.37065 4.85649C4.68727 5.17618 4.96583 5.87244 5.20632 6.94527C4.63173 6.45248 4.35317 5.75622 4.37065 4.85649Z" fill="white" fill-opacity="0.2"/>
<path d="M6.85837 22.3557C7.18976 22.4513 7.6364 22.8133 8.19829 23.4415C7.62954 23.3264 7.1829 22.9644 6.85837 22.3557Z" fill="white" fill-opacity="0.2"/>
<path d="M37.188 2.79839C37.6674 2.81205 38.3944 3.14416 39.3691 3.79473C38.5634 3.83733 37.8364 3.50522 37.188 2.79839Z" fill="white" fill-opacity="0.2"/>
<path d="M7.77557 16.0155C8.08127 16.0126 8.55244 16.2065 9.18909 16.5973C8.6769 16.6439 8.20573 16.45 7.77557 16.0155Z" fill="white" fill-opacity="0.2"/>
<path d="M6.73645 2.03059C7.14337 2.08229 7.73449 2.42574 8.5098 3.06097C7.82041 3.02989 7.2293 2.68644 6.73645 2.03059Z" fill="white" fill-opacity="0.2"/>
<path d="M41.5979 19.2093C41.8293 18.821 42.4366 18.3752 43.4197 17.8718C43.0847 18.5545 42.4774 19.0003 41.5979 19.2093Z" fill="white" fill-opacity="0.2"/>
<path d="M42.9741 1.10506C43.0064 0.63086 43.3638 -0.0761166 44.0462 -1.01587C44.0568 -0.216321 43.6995 0.490656 42.9741 1.10506Z" fill="white" fill-opacity="0.2"/>
<path d="M17.0143 9.78551C17.3628 10.0854 17.703 10.7719 18.035 11.8451C17.4098 11.3898 17.0696 10.7033 17.0143 9.78551Z" fill="white" fill-opacity="0.2"/>
<path d="M44.5411 38.1468C44.9583 38.1091 45.6233 38.3221 46.5361 38.7858C45.8416 38.9059 45.1766 38.693 44.5411 38.1468Z" fill="white" fill-opacity="0.2"/>
<path d="M46.3806 11.6849C46.7031 11.645 47.2239 11.7931 47.9432 12.129C47.408 12.24 46.8872 12.0919 46.3806 11.6849Z" fill="white" fill-opacity="0.2"/>
<path d="M39.7931 35.8852C40.0656 35.7552 40.5682 35.7325 41.3011 35.8171C40.8619 36.0723 40.3593 36.095 39.7931 35.8852Z" fill="white" fill-opacity="0.2"/>
<path d="M42.5019 14.3348C42.6752 14.0146 43.149 13.6354 43.9234 13.1974C43.6767 13.758 43.2028 14.1372 42.5019 14.3348Z" fill="white" fill-opacity="0.2"/>
<path d="M47.4574 39.427C47.7312 39.6591 48.0009 40.193 48.2666 41.0289C47.7757 40.6772 47.506 40.1432 47.4574 39.427Z" fill="white" fill-opacity="0.2"/>
<path d="M15.0798 21.4792C15.4145 21.1824 16.1209 20.9439 17.199 20.7638C16.6784 21.3073 15.972 21.5457 15.0798 21.4792Z" fill="white" fill-opacity="0.2"/>
<path d="M3.78751 5.99617C4.2528 6.22877 4.8161 6.88783 5.47741 7.97333C4.66543 7.64689 4.10213 6.98784 3.78751 5.99617Z" fill="white" fill-opacity="0.2"/>
<path d="M1.28967 20.8117C1.62414 20.6166 2.26419 20.5342 3.20982 20.5645C2.67566 20.9373 2.03561 21.0197 1.28967 20.8117Z" fill="white" fill-opacity="0.2"/>
<path d="M47.2128 15.0429C47.4609 14.7724 48.0174 14.5183 48.8823 14.2804C48.5031 14.7679 47.9466 15.022 47.2128 15.0429Z" fill="white" fill-opacity="0.2"/>
<path d="M12.9655 7.60207C13.2722 7.79841 13.6157 8.29891 13.9958 9.10356C13.4546 8.81624 13.1112 8.31574 12.9655 7.60207Z" fill="white" fill-opacity="0.2"/>
<path d="M20.653 42.2615C21.1044 42.3123 21.7643 42.6833 22.6327 43.3744C21.8689 43.3509 21.209 42.9799 20.653 42.2615Z" fill="white" fill-opacity="0.2"/>
<path d="M12.0604 47.7181C12.3458 47.8427 12.7031 48.2191 13.1322 48.8474C12.6366 48.6775 12.2794 48.3011 12.0604 47.7181Z" fill="white" fill-opacity="0.2"/>
<path d="M18.8722 30.3594C19.1938 30.1528 19.8216 30.0443 20.7556 30.034C20.2446 30.4244 19.6168 30.5329 18.8722 30.3594Z" fill="white" fill-opacity="0.2"/>
<path d="M11.3617 21.1347C11.5102 20.7962 11.9578 20.3729 12.7046 19.8649C12.5019 20.4527 12.0543 20.876 11.3617 21.1347Z" fill="white" fill-opacity="0.2"/>
<path d="M3.02994 21.6684C3.35608 21.4886 3.97347 21.4242 4.88211 21.4752C4.35981 21.8214 3.74242 21.8858 3.02994 21.6684Z" fill="white" fill-opacity="0.2"/>
<path d="M11.5997 4.63468C11.9288 4.44574 12.5567 4.36932 13.4834 4.40541C12.9573 4.76721 12.3294 4.84363 11.5997 4.63468Z" fill="white" fill-opacity="0.2"/>
<path d="M16.577 22.5751C16.7386 22.1418 17.2679 21.5815 18.1649 20.8942C17.9531 21.6428 17.4239 22.2032 16.577 22.5751Z" fill="white" fill-opacity="0.2"/>
<path d="M12.609 36.9503C12.7541 36.6721 13.1574 36.3392 13.8188 35.9517C13.6136 36.4379 13.2103 36.7708 12.609 36.9503Z" fill="white" fill-opacity="0.2"/>
<path d="M39.2333 46.1352C39.5115 45.7264 40.204 45.2793 41.3106 44.7941C40.9 45.5176 40.2076 45.9647 39.2333 46.1352Z" fill="white" fill-opacity="0.2"/>
<path d="M25.0434 21.8207C25.1332 21.4657 25.5015 20.9791 26.1482 20.3609C26.0461 20.9684 25.6778 21.455 25.0434 21.8207Z" fill="white" fill-opacity="0.2"/>
<path d="M40.856 21.2596C40.9298 20.9589 41.2383 20.5451 41.7815 20.0182C41.6989 20.5326 41.3903 20.9464 40.856 21.2596Z" fill="white" fill-opacity="0.2"/>
<path d="M18.9464 38.4478C19.1907 38.0778 19.8057 37.6683 20.7915 37.2193C20.4326 37.8731 19.8176 38.2826 18.9464 38.4478Z" fill="white" fill-opacity="0.2"/>
<path d="M44.1826 16.7965C44.3169 16.4719 44.7336 16.0607 45.4329 15.5629C45.2521 16.1256 44.8354 16.5368 44.1826 16.7965Z" fill="white" fill-opacity="0.2"/>
<path d="M25.9595 0.288771C26.1775 -0.131753 26.7851 -0.635806 27.7823 -1.22339C27.4742 -0.488468 26.8666 0.0155857 25.9595 0.288771Z" fill="white" fill-opacity="0.2"/>
<path d="M25.0291 20.283C25.0171 19.7671 25.3336 18.9675 25.9785 17.8841C26.069 18.7475 25.7525 19.5471 25.0291 20.283Z" fill="white" fill-opacity="0.2"/>
<path d="M32.8492 26.4861C33.2531 26.7468 33.7041 27.4091 34.202 28.473C33.4891 28.0912 33.0381 27.4289 32.8492 26.4861Z" fill="white" fill-opacity="0.2"/>
<path d="M43.9631 3.30518C44.2962 3.68672 44.5598 4.4886 44.754 5.71081C44.1434 5.11655 43.8798 4.31467 43.9631 3.30518Z" fill="white" fill-opacity="0.2"/>
<path d="M30.459 12.985C30.7432 13.1906 31.0459 13.6905 31.3673 14.4849C30.8628 14.1791 30.56 13.6791 30.459 12.985Z" fill="white" fill-opacity="0.2"/>
<path d="M36.0461 7.30058C36.1077 6.8955 36.4653 6.31369 37.1188 5.55515C37.0708 6.24281 36.7132 6.82462 36.0461 7.30058Z" fill="white" fill-opacity="0.2"/>
<path d="M10.8362 2.17696C11.2534 2.3664 11.7708 2.92795 12.3885 3.86162C11.6631 3.60098 11.1457 3.03942 10.8362 2.17696Z" fill="white" fill-opacity="0.2"/>
<path d="M38.8513 19.2613C39.2283 19.3769 39.7321 19.799 40.3626 20.5277C39.7146 20.3854 39.2108 19.9633 38.8513 19.2613Z" fill="white" fill-opacity="0.2"/>
<path d="M21.5466 45.5071C21.9264 45.4514 22.5457 45.6124 23.4044 45.9901C22.7751 46.1354 22.1558 45.9744 21.5466 45.5071Z" fill="white" fill-opacity="0.2"/>
<path d="M12.4189 5.72198C12.8772 5.84791 13.4992 6.33873 14.2847 7.19445C13.4989 7.04594 12.8769 6.55512 12.4189 5.72198Z" fill="white" fill-opacity="0.2"/>
<path d="M24.0227 31.232C24.2579 31.0425 24.7418 30.9044 25.4745 30.8174C25.1061 31.1672 24.6222 31.3054 24.0227 31.232Z" fill="white" fill-opacity="0.2"/>
<path d="M11.0352 30.6089C11.3782 30.5845 11.9204 30.7697 12.662 31.1645C12.0903 31.2522 11.548 31.067 11.0352 30.6089Z" fill="white" fill-opacity="0.2"/>
<path d="M38.2637 28.0048C38.5943 28.1257 39.0234 28.5258 39.551 29.2051C38.9801 29.0476 38.551 28.6475 38.2637 28.0048Z" fill="white" fill-opacity="0.2"/>
<path d="M9.6442 47.4472C10.1543 47.3259 11.0161 47.4706 12.2296 47.8815C11.3909 48.1547 10.5291 48.0099 9.6442 47.4472Z" fill="white" fill-opacity="0.2"/>
<path d="M15.7089 17.5421C16.0357 17.6915 16.4404 18.1328 16.923 18.866C16.3547 18.6603 15.95 18.219 15.7089 17.5421Z" fill="white" fill-opacity="0.2"/>
<path d="M2.63345 39.942C3.05155 40.1151 3.58103 40.6521 4.22189 41.5532C3.49718 41.3201 2.9677 40.783 2.63345 39.942Z" fill="white" fill-opacity="0.2"/>
<path d="M9.16425 12.2788C9.17636 11.9454 9.41135 11.4414 9.86922 10.7669C9.89447 11.3276 9.65947 11.8316 9.16425 12.2788Z" fill="white" fill-opacity="0.2"/>
<path d="M29.9081 20.7017C30.0428 20.3201 30.4972 19.8217 31.2713 19.2066C31.0977 19.8649 30.6432 20.3632 29.9081 20.7017Z" fill="white" fill-opacity="0.2"/>
<path d="M10.8183 20.789C11.2514 20.8986 11.8451 21.348 12.5994 22.1372C11.8582 22.0125 11.2645 21.5631 10.8183 20.789Z" fill="white" fill-opacity="0.2"/>
<path d="M13.8553 0.441467C14.1524 0.530587 14.5507 0.860214 15.05 1.43035C14.5397 1.32151 14.1415 0.991885 13.8553 0.441467Z" fill="white" fill-opacity="0.2"/>
<path d="M35.4125 16.301C35.7649 16.6295 36.0927 17.3625 36.3958 18.5C35.76 17.9973 35.4323 17.2643 35.4125 16.301Z" fill="white" fill-opacity="0.2"/>
<path d="M13.8742 12.3621C14.2801 12.0364 15.1146 11.7999 16.3776 11.6525C15.7416 12.2541 14.9071 12.4906 13.8742 12.3621Z" fill="white" fill-opacity="0.2"/>
<path d="M42.2827 45.2675C42.2874 44.8911 42.539 44.3166 43.0374 43.5437C43.0808 44.1754 42.8292 44.75 42.2827 45.2675Z" fill="white" fill-opacity="0.2"/>
<path d="M43.0932 42.6866C43.1576 42.2017 43.571 41.4991 44.3337 40.5789C44.292 41.4007 43.8785 42.1033 43.0932 42.6866Z" fill="white" fill-opacity="0.2"/>
<path d="M10.6083 41.439C11.0168 41.2274 11.7812 41.1675 12.9016 41.2596C12.2456 41.6703 11.4812 41.7301 10.6083 41.439Z" fill="white" fill-opacity="0.2"/>
<path d="M8.02792 9.67641C8.2303 9.32935 8.76623 8.92793 9.6357 8.47215C9.34378 9.08175 8.80785 9.48317 8.02792 9.67641Z" fill="white" fill-opacity="0.2"/>
<path d="M19.3657 26.8069C19.3635 26.3956 19.6271 25.7628 20.1565 24.9085C20.2164 25.5978 19.9528 26.2307 19.3657 26.8069Z" fill="white" fill-opacity="0.2"/>
<path d="M29.0664 43.5916C29.4385 43.6209 29.9907 43.9075 30.7229 44.4511C30.095 44.4528 29.5428 44.1663 29.0664 43.5916Z" fill="white" fill-opacity="0.2"/>
<path d="M3.36861 32.0782C3.35544 31.6751 3.59679 31.0479 4.09268 30.1964C4.16984 30.8704 3.92849 31.4977 3.36861 32.0782Z" fill="white" fill-opacity="0.2"/>
<path d="M9.11865 24.8464C9.62808 24.8062 10.4362 25.0751 11.543 25.6532C10.6943 25.7902 9.88617 25.5213 9.11865 24.8464Z" fill="white" fill-opacity="0.2"/>
<path d="M47.0403 7.10105C47.3945 6.77229 48.1517 6.49751 49.3118 6.27672C48.7628 6.87639 48.0056 7.15117 47.0403 7.10105Z" fill="white" fill-opacity="0.2"/>
<path d="M13.1212 21.2554C13.4504 21.2854 13.9363 21.545 14.579 22.0343C14.0229 22.0291 13.5369 21.7695 13.1212 21.2554Z" fill="white" fill-opacity="0.2"/>
<path d="M25.107 44.3679C25.3205 44.0801 25.8351 43.7767 26.6508 43.4579C26.3322 43.9698 25.8176 44.2731 25.107 44.3679Z" fill="white" fill-opacity="0.2"/>
<path d="M3.22711 39.847C3.37834 39.4722 3.85379 38.9948 4.65347 38.4151C4.45112 39.0643 3.97567 39.5417 3.22711 39.847Z" fill="white" fill-opacity="0.2"/>
<path d="M46.1047 31.2267C46.5077 31.1095 47.2024 31.191 48.1889 31.4714C47.5292 31.7231 46.8345 31.6415 46.1047 31.2267Z" fill="white" fill-opacity="0.2"/>
<path d="M25.6672 42.6723C25.962 42.4432 26.5632 42.2829 27.4708 42.1913C27.0079 42.6157 26.4067 42.776 25.6672 42.6723Z" fill="white" fill-opacity="0.2"/>
<path d="M13.325 0.705063C13.6942 0.699679 14.2645 0.931042 15.0358 1.39915C14.4174 1.45863 13.8472 1.22727 13.325 0.705063Z" fill="white" fill-opacity="0.2"/>
<path d="M27.098 32.6592C27.5153 32.9581 27.962 33.6879 28.438 34.8484C27.6974 34.4043 27.2507 33.6745 27.098 32.6592Z" fill="white" fill-opacity="0.2"/>
<path d="M28.1276 0.832733C28.5575 1.06653 29.0658 1.70449 29.6525 2.74662C28.8996 2.41335 28.3913 1.77539 28.1276 0.832733Z" fill="white" fill-opacity="0.2"/>
<path d="M40.2096 37.1543C40.515 37.0591 41.0456 37.1111 41.8015 37.3105C41.3024 37.5119 40.7718 37.4598 40.2096 37.1543Z" fill="white" fill-opacity="0.2"/>
<path d="M43.9178 34.1396C44.2257 33.9738 44.806 33.919 45.6588 33.9753C45.1651 34.2955 44.5848 34.3503 43.9178 34.1396Z" fill="white" fill-opacity="0.2"/>
<path d="M46.9695 5.08823C47.3409 5.16 47.8646 5.51126 48.5403 6.142C47.9077 6.0724 47.3841 5.72114 46.9695 5.08823Z" fill="white" fill-opacity="0.2"/>
<path d="M36.9 8.83835C37.2521 8.56971 37.967 8.38586 39.0447 8.2868C38.491 8.78538 37.7761 8.96923 36.9 8.83835Z" fill="white" fill-opacity="0.2"/>
<path d="M31.3281 44.1307C31.7522 44.2966 32.2954 44.8266 32.9579 45.7206C32.2242 45.5003 31.6809 44.9703 31.3281 44.1307Z" fill="white" fill-opacity="0.2"/>
<path d="M40.5189 3.43042C40.9782 3.29501 41.7711 3.38525 42.8977 3.70113C42.1461 3.99095 41.3531 3.90071 40.5189 3.43042Z" fill="white" fill-opacity="0.2"/>
<path d="M25.9355 18.3592C26.3449 18.2629 27.0359 18.3809 28.0084 18.713C27.3351 18.9304 26.6441 18.8124 25.9355 18.3592Z" fill="white" fill-opacity="0.2"/>
<path d="M37.9878 14.1715C38.2864 13.9082 38.9156 13.6979 39.8755 13.5405C39.4108 14.0227 38.7815 14.2331 37.9878 14.1715Z" fill="white" fill-opacity="0.2"/>
<path d="M47.2722 33.6043C47.6946 33.3556 48.5046 33.2479 49.7021 33.2814C49.0277 33.7562 48.2177 33.8639 47.2722 33.6043Z" fill="white" fill-opacity="0.2"/>
<path d="M19.3846 21.2768C19.7239 21.3871 20.1733 21.7766 20.7327 22.4455C20.1486 22.3069 19.6992 21.9174 19.3846 21.2768Z" fill="white" fill-opacity="0.2"/>
<path d="M35.8648 45.0955C35.9806 44.6617 36.4398 44.0709 37.2426 43.3231C37.1078 44.0663 36.6485 44.6571 35.8648 45.0955Z" fill="white" fill-opacity="0.2"/>
<path d="M21.8318 19.6891C22.1913 19.525 22.8497 19.5065 23.807 19.6335C23.2266 19.9578 22.5682 19.9763 21.8318 19.6891Z" fill="white" fill-opacity="0.2"/>
<path d="M11.1625 15.1456C11.4015 14.8766 11.943 14.6189 12.787 14.3724C12.423 14.856 11.8814 15.1138 11.1625 15.1456Z" fill="white" fill-opacity="0.2"/>
<path d="M15.0983 6.03602C15.3377 5.71888 15.911 5.38743 16.8183 5.04166C16.4602 5.60615 15.8869 5.9376 15.0983 6.03602Z" fill="white" fill-opacity="0.2"/>
<path d="M17.5215 30.6228C17.9751 30.6325 18.6652 30.9418 19.5917 31.5507C18.8297 31.5965 18.1396 31.2871 17.5215 30.6228Z" fill="white" fill-opacity="0.2"/>
<path d="M33.7883 45.1321C34.0844 45.4227 34.3504 46.061 34.5863 47.047C34.05 46.6002 33.784 45.9619 33.7883 45.1321Z" fill="white" fill-opacity="0.2"/>
<path d="M12.7107 12.5343C13.0003 12.2926 13.6017 12.1094 14.5151 11.9848C14.0625 12.4298 13.4611 12.6129 12.7107 12.5343Z" fill="white" fill-opacity="0.2"/>
<path d="M43.6356 40.2144C43.8252 39.7847 44.3953 39.2482 45.3457 38.6048C45.0864 39.3512 44.5163 39.8878 43.6356 40.2144Z" fill="white" fill-opacity="0.2"/>
<path d="M33.7311 17.869C34.1199 17.629 34.8724 17.5128 35.9888 17.5206C35.3697 17.9762 34.6172 18.0923 33.7311 17.869Z" fill="white" fill-opacity="0.2"/>
<path d="M18.0372 33.6949C18.3808 33.714 18.8959 33.9664 19.5826 34.4521C19.0037 34.467 18.4886 34.2146 18.0372 33.6949Z" fill="white" fill-opacity="0.2"/>
<path d="M41.957 22.7486C42.0174 22.2871 42.4097 21.6179 43.1338 20.7409C43.0955 21.523 42.7033 22.1922 41.957 22.7486Z" fill="white" fill-opacity="0.2"/>
<path d="M24.6265 34.6038C24.6394 34.1308 24.966 33.4132 25.6066 32.4509C25.6496 33.2456 25.3229 33.9632 24.6265 34.6038Z" fill="white" fill-opacity="0.2"/>
<path d="M43.9309 9.1115C44.0712 8.62634 44.6014 7.97261 45.5215 7.1503C45.3526 7.98298 44.8224 8.63671 43.9309 9.1115Z" fill="white" fill-opacity="0.2"/>
<path d="M44.29 36.7929C44.4323 36.391 44.9116 35.8664 45.7278 35.2191C45.5442 35.9124 45.0649 36.4371 44.29 36.7929Z" fill="white" fill-opacity="0.2"/>
<path d="M15.1959 38.8851C15.5038 39.0926 15.8419 39.6109 16.2101 40.44C15.6654 40.1343 15.3274 39.616 15.1959 38.8851Z" fill="white" fill-opacity="0.2"/>
<path d="M1.83591 0.607895C2.04308 0.84479 2.20736 1.34291 2.32875 2.10225C1.94899 1.73334 1.78471 1.23522 1.83591 0.607895Z" fill="white" fill-opacity="0.2"/>
<path d="M8.1134 37.0805C8.45026 36.9579 9.047 36.9882 9.9036 37.1715C9.35552 37.4232 8.75879 37.3929 8.1134 37.0805Z" fill="white" fill-opacity="0.2"/>
<path d="M36.3603 7.30099C36.5925 7.10776 37.0743 6.96184 37.8058 6.86322C37.4429 7.21894 36.9611 7.36486 36.3603 7.30099Z" fill="white" fill-opacity="0.2"/>
<path d="M17.919 23.4543C18.3261 23.6246 18.8405 24.1501 19.4623 25.0309C18.7564 24.8011 18.242 24.2756 17.919 23.4543Z" fill="white" fill-opacity="0.2"/>
<path d="M7.77173 38.3902C8.09106 38.4624 8.53439 38.7806 9.10171 39.3446C8.55638 39.2671 8.11306 38.949 7.77173 38.3902Z" fill="white" fill-opacity="0.2"/>
<path d="M11.3446 30.7188C11.6537 30.9748 11.962 31.5682 12.2697 32.4993C11.7164 32.1124 11.4081 31.5189 11.3446 30.7188Z" fill="white" fill-opacity="0.2"/>
<path d="M17.0765 26.2136C17.3177 26.4565 17.5302 26.9858 17.7141 27.8015C17.2766 27.4273 17.0641 26.8979 17.0765 26.2136Z" fill="white" fill-opacity="0.2"/>
<path d="M8.16064 13.9544C8.45178 13.8401 8.97288 13.8537 9.72393 13.995C9.25136 14.2264 8.73027 14.2129 8.16064 13.9544Z" fill="white" fill-opacity="0.2"/>
<path d="M38.7516 16.756C38.7784 16.3977 39.0522 15.865 39.573 15.158C39.5769 15.7625 39.3031 16.2952 38.7516 16.756Z" fill="white" fill-opacity="0.2"/>
<path d="M10.3023 41.1389C10.8022 41.212 11.5221 41.6487 12.4621 42.4489C11.6139 42.3946 10.894 41.958 10.3023 41.1389Z" fill="white" fill-opacity="0.2"/>
<path d="M19.5657 28.7907C19.9615 28.9114 20.4907 29.3534 21.1534 30.1169C20.4733 29.9687 19.9441 29.5266 19.5657 28.7907Z" fill="white" fill-opacity="0.2"/>
<path d="M2.55093 8.69164C2.90489 8.76258 3.40219 9.10122 4.04284 9.70755C3.43965 9.63696 2.94234 9.29832 2.55093 8.69164Z" fill="white" fill-opacity="0.2"/>
<path d="M20.6542 29.3042C21.0214 29.3957 21.5258 29.7747 22.1672 30.4411C21.5389 30.3377 21.0345 29.9587 20.6542 29.3042Z" fill="white" fill-opacity="0.2"/>
<path d="M11.0126 23.5566C11.2369 23.1978 11.8142 22.7927 12.7443 22.3412C12.4172 22.9734 11.8399 23.3785 11.0126 23.5566Z" fill="white" fill-opacity="0.2"/>
<path d="M40.1782 14.3782C40.5014 14.5422 40.8911 15.0038 41.3474 15.763C40.7829 15.5321 40.3932 15.0705 40.1782 14.3782Z" fill="white" fill-opacity="0.2"/>
<path d="M45.9948 24.3843C46.0257 23.9692 46.3427 23.3519 46.9456 22.5326C46.9505 23.233 46.6335 23.8502 45.9948 24.3843Z" fill="white" fill-opacity="0.2"/>
<path d="M36.248 45.0849C36.5625 45.0627 37.0597 45.2328 37.7395 45.5952C37.2152 45.6753 36.718 45.5052 36.248 45.0849Z" fill="white" fill-opacity="0.2"/>
<path d="M31.201 2.2091C31.5146 2.06322 32.0907 2.04281 32.9293 2.14788C32.4234 2.43534 31.8473 2.45575 31.201 2.2091Z" fill="white" fill-opacity="0.2"/>
<path d="M2.34421 14.9738C2.75597 15.1632 3.26515 15.7211 3.87174 16.6477C3.15542 16.3864 2.64624 15.8284 2.34421 14.9738Z" fill="white" fill-opacity="0.2"/>
<path d="M10.9855 28.4869C11.2236 28.2638 11.7338 28.0759 12.5163 27.9231C12.1476 28.3297 11.6373 28.5176 10.9855 28.4869Z" fill="white" fill-opacity="0.2"/>
<path d="M34.0681 3.17672C34.3499 3.05546 34.861 3.05215 35.6017 3.1668C35.1458 3.40863 34.6347 3.41194 34.0681 3.17672Z" fill="white" fill-opacity="0.2"/>
<path d="M2.29996 3.14672C2.65034 3.117 3.20749 3.2988 3.97141 3.6921C3.38796 3.7898 2.83081 3.60801 2.29996 3.14672Z" fill="white" fill-opacity="0.2"/>
<path d="M5.61252 31.7108C5.96915 31.3884 6.72585 31.125 7.8826 30.9206C7.32865 31.5099 6.57196 31.7733 5.61252 31.7108Z" fill="white" fill-opacity="0.2"/>
<path d="M34.2968 43.5391C34.6533 43.697 35.0982 44.1707 35.6314 44.9603C35.012 44.7443 34.5671 44.2706 34.2968 43.5391Z" fill="white" fill-opacity="0.2"/>
<path d="M42.8512 20.2076C43.3467 20.1724 44.1301 20.4401 45.2015 21.0106C44.3755 21.1372 43.592 20.8695 42.8512 20.2076Z" fill="white" fill-opacity="0.2"/>
<path d="M47.2305 6.80446C47.3671 6.42513 47.8231 5.93151 48.5983 5.32359C48.4211 5.97831 47.9651 6.47194 47.2305 6.80446Z" fill="white" fill-opacity="0.2"/>
<path d="M20.2274 33.5063C20.623 33.3344 21.3418 33.3271 22.3839 33.4845C21.7442 33.8269 21.0254 33.8342 20.2274 33.5063Z" fill="white" fill-opacity="0.2"/>
<path d="M4.66183 26.1675C5.07609 26.0125 5.81262 26.0434 6.87142 26.2603C6.19798 26.5768 5.46145 26.5459 4.66183 26.1675Z" fill="white" fill-opacity="0.2"/>
<path d="M45.5922 25.5781C45.6443 25.2624 45.9292 24.8115 46.4469 24.2256C46.4027 24.7621 46.1178 25.2129 45.5922 25.5781Z" fill="white" fill-opacity="0.2"/>
<path d="M4.01141 37.8516C4.44765 37.9128 5.07759 38.2899 5.90123 38.9829C5.16139 38.9399 4.53145 38.5628 4.01141 37.8516Z" fill="white" fill-opacity="0.2"/>
<path d="M10.6338 12.0998C10.8137 11.6543 11.3789 11.0873 12.3295 10.3987C12.0887 11.1701 11.5235 11.7372 10.6338 12.0998Z" fill="white" fill-opacity="0.2"/>
<path d="M4.01453 32.9302C4.24031 32.7105 4.72946 32.5199 5.48198 32.3583C5.1334 32.7574 4.64425 32.9481 4.01453 32.9302Z" fill="white" fill-opacity="0.2"/>
<path d="M44.5844 22.4111C44.9202 22.5635 45.3367 23.0154 45.8341 23.7668C45.2502 23.5571 44.8336 23.1053 44.5844 22.4111Z" fill="white" fill-opacity="0.2"/>
<path d="M26.6499 34.9062C27.0143 34.9345 27.5553 35.2143 28.273 35.7457C27.6582 35.7482 27.1171 35.4684 26.6499 34.9062Z" fill="white" fill-opacity="0.2"/>
<path d="M1.61642 31.8789C1.97905 31.8167 2.57605 31.9567 3.40742 32.2987C2.80788 32.4525 2.21088 32.3125 1.61642 31.8789Z" fill="white" fill-opacity="0.2"/>
<path d="M3.86834 8.99097C3.84437 8.64055 4.035 8.08705 4.44024 7.33049C4.52833 7.9148 4.33769 8.46829 3.86834 8.99097Z" fill="white" fill-opacity="0.2"/>
<path d="M25.5473 25.1798C25.8679 24.8934 26.5459 24.6617 27.5814 24.4848C27.083 25.0089 26.405 25.2406 25.5473 25.1798Z" fill="white" fill-opacity="0.2"/>
<path d="M0.814026 1.65014C1.32022 1.59704 2.13175 1.84407 3.24861 2.39121C2.40708 2.54942 1.59555 2.3024 0.814026 1.65014Z" fill="white" fill-opacity="0.2"/>
<path d="M7.75055 23.0121C7.80768 22.5058 8.22393 21.7658 8.9993 20.792C8.97269 21.6486 8.55644 22.3887 7.75055 23.0121Z" fill="white" fill-opacity="0.2"/>
<path d="M19.7195 12.5903C20.0331 12.6612 20.4684 12.9734 21.0254 13.5271C20.49 13.4511 20.0547 13.1388 19.7195 12.5903Z" fill="white" fill-opacity="0.2"/>
<path d="M30.2311 6.1882C30.6371 6.33449 31.1653 6.82253 31.8158 7.65233C31.1151 7.46251 30.5869 6.97447 30.2311 6.1882Z" fill="white" fill-opacity="0.2"/>
<path d="M27.1132 18.6402C27.1812 18.3149 27.4966 17.8596 28.0596 17.2744C27.9901 17.8292 27.6746 18.2844 27.1132 18.6402Z" fill="white" fill-opacity="0.2"/>
<path d="M25.8846 3.64804C26.1229 3.24615 26.7494 2.78383 27.7643 2.26108C27.4198 2.96752 26.7932 3.42984 25.8846 3.64804Z" fill="white" fill-opacity="0.2"/>
<path d="M41.871 35.9799C42.1469 35.5413 42.8549 35.0472 43.9952 34.4974C43.5926 35.2704 42.8846 35.7646 41.871 35.9799Z" fill="white" fill-opacity="0.2"/>
<path d="M31.0373 30.0591C31.0833 29.5469 31.4863 28.7905 32.2464 27.7899C32.2393 28.655 31.8362 29.4114 31.0373 30.0591Z" fill="white" fill-opacity="0.2"/>
<path d="M22.614 4.8628C22.8096 4.40433 23.4074 3.82746 24.4073 3.13219C24.1421 3.92767 23.5443 4.50454 22.614 4.8628Z" fill="white" fill-opacity="0.2"/>
<path d="M23.2846 25.0696C23.3968 24.692 23.8141 24.1851 24.5364 23.549C24.4 24.1975 23.9827 24.7044 23.2846 25.0696Z" fill="white" fill-opacity="0.2"/>
<path d="M44.4991 18.5283C44.9659 18.6619 45.5956 19.1699 46.3883 20.0523C45.5875 19.8921 44.9578 19.3841 44.4991 18.5283Z" fill="white" fill-opacity="0.2"/>
<path d="M38.8392 41.9202C39.168 41.8401 39.7249 41.9305 40.5096 42.1915C39.9692 42.3708 39.4124 42.2803 38.8392 41.9202Z" fill="white" fill-opacity="0.2"/>
<path d="M25.7664 5.8817C25.9188 5.50479 26.3975 5.02514 27.2024 4.44276C26.9982 5.0956 26.5196 5.57525 25.7664 5.8817Z" fill="white" fill-opacity="0.2"/>
<path d="M24.8972 41.7422C24.9841 41.4198 25.3266 40.9813 25.925 40.4266C25.8234 40.9791 25.4808 41.4176 24.8972 41.7422Z" fill="white" fill-opacity="0.2"/>
<path d="M44.8653 26.3104C45.2791 26.4146 45.8466 26.8432 46.5679 27.5961C45.8598 27.4778 45.2923 27.0493 44.8653 26.3104Z" fill="white" fill-opacity="0.2"/>
<path d="M37.8262 39.1971C38.1342 39.4414 38.4485 40.0163 38.7691 40.922C38.2192 40.5544 37.9049 39.9794 37.8262 39.1971Z" fill="white" fill-opacity="0.2"/>
<path d="M20.6259 4.90839C20.8133 4.59782 21.3027 4.24275 22.094 3.84319C21.8221 4.38957 21.3327 4.74464 20.6259 4.90839Z" fill="white" fill-opacity="0.2"/>
<path d="M24.0995 33.1545C24.2907 32.7354 24.8561 32.2161 25.7958 31.5965C25.5326 32.3254 24.9671 32.8447 24.0995 33.1545Z" fill="white" fill-opacity="0.2"/>
<path d="M31.0981 7.21527C31.4842 7.00887 32.2107 6.94258 33.2778 7.01639C32.6587 7.41522 31.9322 7.48152 31.0981 7.21527Z" fill="white" fill-opacity="0.2"/>
<path d="M5.42978 27.4807C5.76164 27.81 6.05734 28.5309 6.31688 29.6435C5.71543 29.1366 5.41973 28.4157 5.42978 27.4807Z" fill="white" fill-opacity="0.2"/>
<path d="M14.8568 19.1575C15.1124 18.91 15.6653 18.6958 16.5157 18.515C16.121 18.9651 15.5681 19.1792 14.8568 19.1575Z" fill="white" fill-opacity="0.2"/>
<path d="M7.07523 15.2245C7.40802 15.5226 7.72539 16.1963 8.02734 17.2454C7.42859 16.791 7.11121 16.1174 7.07523 15.2245Z" fill="white" fill-opacity="0.2"/>
<path d="M33.6639 26.3267C33.7526 25.8257 34.214 25.1142 35.048 24.1922C34.9677 25.0444 34.5063 25.7559 33.6639 26.3267Z" fill="white" fill-opacity="0.2"/>
<path d="M40.6884 47.9981C41.118 47.7183 41.9592 47.5677 43.2118 47.5461C42.5296 48.074 41.6885 48.2247 40.6884 47.9981Z" fill="white" fill-opacity="0.2"/>
<path d="M23.1987 12.3783C23.5004 12.7151 23.7449 13.428 23.9323 14.5169C23.3803 13.9933 23.1358 13.2805 23.1987 12.3783Z" fill="white" fill-opacity="0.2"/>
<path d="M37.4396 38.8748C37.7769 38.5455 38.5084 38.259 39.6341 38.0153C39.1135 38.6135 38.382 38.9 37.4396 38.8748Z" fill="white" fill-opacity="0.2"/>
<path d="M14.0169 34.4868C14.1481 34.1597 14.5617 33.7426 15.2579 33.2355C15.0827 33.802 14.669 34.2191 14.0169 34.4868Z" fill="white" fill-opacity="0.2"/>
<path d="M36.9275 8.68161C37.2348 8.44203 37.8621 8.27371 38.8093 8.17665C38.3267 8.62037 37.6994 8.78869 36.9275 8.68161Z" fill="white" fill-opacity="0.2"/>
<path d="M33.7591 0.136135C34.0055 -0.0602558 34.5113 -0.2018 35.2764 -0.288498C34.89 0.0744812 34.3843 0.216025 33.7591 0.136135Z" fill="white" fill-opacity="0.2"/>
<path d="M25.8948 26.8434C26.0699 26.5789 26.5105 26.2865 27.2165 25.9662C26.959 26.4337 26.5184 26.7261 25.8948 26.8434Z" fill="white" fill-opacity="0.2"/>
<path d="M19.3018 0.0471498C19.7443 0.0469263 20.4237 0.333774 21.3401 0.907692C20.5981 0.968534 19.9187 0.681687 19.3018 0.0471498Z" fill="white" fill-opacity="0.2"/>
<path d="M27.0178 46.2082C27.3114 46.3516 27.6691 46.7622 28.0907 47.4401C27.5789 47.2398 27.2212 46.8292 27.0178 46.2082Z" fill="white" fill-opacity="0.2"/>
<path d="M9.0123 17.1023C9.24333 17.3195 9.45703 17.8029 9.65338 18.5524C9.2363 18.2198 9.02261 17.7364 9.0123 17.1023Z" fill="white" fill-opacity="0.2"/>
<path d="M1.06393 16.3661C1.43957 16.4752 1.94537 16.8866 2.58135 17.6001C1.93658 17.4684 1.43078 17.0571 1.06393 16.3661Z" fill="white" fill-opacity="0.2"/>
<path d="M44.7082 20.8606C44.9647 20.5034 45.5902 20.1216 46.5847 19.715C46.2035 20.349 45.578 20.7309 44.7082 20.8606Z" fill="white" fill-opacity="0.2"/>
<path d="M12.2429 40.1157C12.6825 39.9264 13.4802 39.9212 14.636 40.1C13.9247 40.4774 13.127 40.4827 12.2429 40.1157Z" fill="white" fill-opacity="0.2"/>
<path d="M26.888 14.8476C27.3893 14.9023 28.1234 15.3116 29.0902 16.0755C28.2421 16.0523 27.5081 15.643 26.888 14.8476Z" fill="white" fill-opacity="0.2"/>
<path d="M35.3098 12.9359C35.5013 12.6902 35.9549 12.4372 36.6704 12.1769C36.3829 12.6153 35.9293 12.8683 35.3098 12.9359Z" fill="white" fill-opacity="0.2"/>
</g>
<defs>
<clipPath id="clip0_17_503">
<rect width="48" height="48" fill="white"/>
</clipPath>
</defs>
</svg>
