<svg width="64" height="64" viewBox="0 0 64 64" fill="none" xmlns="http://www.w3.org/2000/svg">
<g clip-path="url(#clip0_17_503)">
<rect width="64" height="64" fill="#54B738"/>
<path d="M14.0807 56.4282C14.6261 56.7452 15.2576 57.5859 15.9751 58.9502C15.0173 58.4931 14.3858 57.6525 14.0807 56.4282Z" fill="white" fill-opacity="0.3"/>
<path d="M19.3603 51.1885C19.8017 51.0007 20.6012 50.999 21.7587 51.1833C21.0442 51.5584 20.2448 51.5601 19.3603 51.1885Z" fill="white" fill-opacity="0.3"/>
<path d="M63.3089 23.1649C63.4851 22.7641 64.0157 22.2633 64.9007 21.6623C64.66 22.3584 64.1294 22.8593 63.3089 23.1649Z" fill="white" fill-opacity="0.3"/>
<path d="M22.8356 62.5224C23.1705 62.1166 23.9479 61.711 25.1678 61.3057C24.6617 62.0318 23.8844 62.4374 22.8356 62.5224Z" fill="white" fill-opacity="0.3"/>
<path d="M25.3661 24.9839C25.8296 24.5797 26.8036 24.2599 28.288 24.0247C27.5659 24.7659 26.592 25.0857 25.3661 24.9839Z" fill="white" fill-opacity="0.3"/>
<path d="M56.8754 25.685C57.1702 25.9965 57.4207 26.6661 57.6267 27.6937C57.0897 27.2116 56.8393 26.5421 56.8754 25.685Z" fill="white" fill-opacity="0.3"/>
<path d="M60.881 22.883C61.3655 22.7157 62.2179 22.7733 63.4381 23.0558C62.6486 23.4026 61.7962 23.345 60.881 22.883Z" fill="white" fill-opacity="0.3"/>
<path d="M15.6302 26.3232C15.668 25.6591 16.1572 24.6642 17.0975 23.3386C17.1248 24.4573 16.6357 25.4521 15.6302 26.3232Z" fill="white" fill-opacity="0.3"/>
<path d="M41.4464 36.9466C41.813 36.6468 42.5702 36.4244 43.7183 36.2794C43.1446 36.8323 42.3873 37.0547 41.4464 36.9466Z" fill="white" fill-opacity="0.3"/>
<path d="M28.8347 3.07825C29.4982 3.26774 30.3936 3.9892 31.521 5.24264C30.3827 5.01556 29.4873 4.2941 28.8347 3.07825Z" fill="white" fill-opacity="0.3"/>
<path d="M62.3349 61.0753C62.8568 61.5361 63.3588 62.5821 63.841 64.2134C62.903 63.5121 62.401 62.466 62.3349 61.0753Z" fill="white" fill-opacity="0.3"/>
<path d="M41.337 12.6392C41.7052 12.2589 42.5174 11.9141 43.7734 11.6049C43.2078 12.2929 42.3957 12.6377 41.337 12.6392Z" fill="white" fill-opacity="0.3"/>
<path d="M9.83029 10.5986C10.0628 10.1485 10.7119 9.60853 11.7775 8.97861C11.4491 9.76507 10.8 10.3051 9.83029 10.5986Z" fill="white" fill-opacity="0.3"/>
<path d="M62.9902 63.8319C63.4539 64.0223 64.0422 64.6156 64.755 65.6117C63.9514 65.3558 63.3632 64.7625 62.9902 63.8319Z" fill="white" fill-opacity="0.3"/>
<path d="M56.2348 23.4131C56.4802 22.8411 57.228 22.1222 58.4784 21.2564C58.1452 22.2491 57.3974 22.968 56.2348 23.4131Z" fill="white" fill-opacity="0.3"/>
<path d="M15.3573 61.7004C15.8784 61.3899 16.8799 61.2515 18.3618 61.2852C17.5304 61.877 16.5289 62.0155 15.3573 61.7004Z" fill="white" fill-opacity="0.3"/>
<path d="M53.3629 29.6546C53.6886 29.0511 54.5802 28.336 56.0378 27.5093C55.5742 28.5657 54.6826 29.2808 53.3629 29.6546Z" fill="white" fill-opacity="0.3"/>
<path d="M60.29 34.1984C60.915 33.9249 62.0519 33.9109 63.7007 34.1561C62.69 34.7 61.5532 34.7141 60.29 34.1984Z" fill="white" fill-opacity="0.3"/>
<path d="M61.349 26.5246C61.9137 26.2174 62.98 26.1125 64.5477 26.2098C63.6428 26.8019 62.5765 26.9069 61.349 26.5246Z" fill="white" fill-opacity="0.3"/>
<path d="M44.2461 40.4969C44.6011 40.6904 45.0205 41.2179 45.5042 42.0794C44.8825 41.8034 44.4631 41.2759 44.2461 40.4969Z" fill="white" fill-opacity="0.3"/>
<path d="M34.6508 10.7583C35.0969 11.0123 35.6168 11.6917 36.2107 12.7965C35.428 12.4316 34.908 11.7522 34.6508 10.7583Z" fill="white" fill-opacity="0.3"/>
<path d="M62.8206 26.1509C63.5043 26.0393 64.6262 26.3115 66.1865 26.9678C65.0554 27.2484 63.9335 26.9762 62.8206 26.1509Z" fill="white" fill-opacity="0.3"/>
<path d="M39.1041 17.3801C39.605 17.4426 40.3334 17.8637 41.2894 18.6433C40.4409 18.607 39.7124 18.1859 39.1041 17.3801Z" fill="white" fill-opacity="0.3"/>
<path d="M1.56363 57.7421C2.14123 57.9528 2.89115 58.6511 3.8134 59.837C2.8161 59.5627 2.06618 58.8644 1.56363 57.7421Z" fill="white" fill-opacity="0.3"/>
<path d="M61.5982 46.4216C62.0676 46.6681 62.6282 47.3511 63.28 48.4707C62.4592 48.1216 61.8986 47.4385 61.5982 46.4216Z" fill="white" fill-opacity="0.3"/>
<path d="M60.184 55.1871C60.8342 55.4395 61.6687 56.2491 62.6872 57.6158C61.5624 57.2814 60.7279 56.4718 60.184 55.1871Z" fill="white" fill-opacity="0.3"/>
<path d="M33.1477 42.4522C33.2531 41.7644 33.8614 40.7771 34.9725 39.4902C34.8896 40.6579 34.2814 41.6452 33.1477 42.4522Z" fill="white" fill-opacity="0.3"/>
<path d="M62.7238 44.515C63.3525 44.4718 64.3458 44.8135 65.7035 45.5401C64.6551 45.6985 63.6619 45.3568 62.7238 44.515Z" fill="white" fill-opacity="0.3"/>
<path d="M4.9975 63.0413C5.47516 63.0315 6.2148 63.3264 7.21642 63.9261C6.41683 64.0078 5.67719 63.7129 4.9975 63.0413Z" fill="white" fill-opacity="0.3"/>
<path d="M56.0294 44.5067C56.437 44.5252 57.0508 44.818 57.8707 45.3853C57.1847 45.4101 56.5709 45.1172 56.0294 44.5067Z" fill="white" fill-opacity="0.3"/>
<path d="M60.7275 0.0554089C61.2278 -0.244942 62.1908 -0.381272 63.6165 -0.35358C62.8186 0.218419 61.8556 0.354749 60.7275 0.0554089Z" fill="white" fill-opacity="0.3"/>
<path d="M62.1357 38.6582C62.5959 38.3416 63.5079 38.1543 64.8717 38.0963C64.1432 38.6901 63.2312 38.8774 62.1357 38.6582Z" fill="white" fill-opacity="0.3"/>
<path d="M46.827 8.23543C47.1133 8.5618 47.3411 9.24866 47.5102 10.296C46.9855 9.78788 46.7577 9.10102 46.827 8.23543Z" fill="white" fill-opacity="0.3"/>
<path d="M36.9369 31.1144C37.4052 30.8002 38.3281 30.6218 39.7056 30.5794C38.9632 31.1702 38.0403 31.3485 36.9369 31.1144Z" fill="white" fill-opacity="0.3"/>
<path d="M29.3293 0.655182C29.6571 0.97499 29.9526 1.67865 30.216 2.76616C29.6228 2.2747 29.3272 1.57104 29.3293 0.655182Z" fill="white" fill-opacity="0.3"/>
<path d="M58.8118 3.80644C59.2456 3.44649 60.1451 3.17546 61.5103 2.99335C60.8322 3.65618 59.9327 3.92721 58.8118 3.80644Z" fill="white" fill-opacity="0.3"/>
<path d="M56.3332 36.284C56.4427 35.8979 56.8614 35.3762 57.5893 34.7189C57.4585 35.3813 57.0398 35.903 56.3332 36.284Z" fill="white" fill-opacity="0.3"/>
<path d="M43.012 0.580276C43.4217 0.652151 44.004 1.02839 44.7588 1.70899C44.062 1.64446 43.4797 1.26822 43.012 0.580276Z" fill="white" fill-opacity="0.3"/>
<path d="M38.8047 4.65447C38.9212 4.04339 39.4965 3.18088 40.5307 2.06694C40.419 3.1075 39.8437 3.97001 38.8047 4.65447Z" fill="white" fill-opacity="0.3"/>
<path d="M63.5356 38.3295C63.9014 37.8234 64.7915 37.2839 66.2059 36.7111C65.6616 37.6097 64.7714 38.1492 63.5356 38.3295Z" fill="white" fill-opacity="0.3"/>
<path d="M8.93161 0.37106C9.18484 -0.087161 9.87098 -0.626222 10.99 -1.24612C10.628 -0.443179 9.94188 0.0958822 8.93161 0.37106Z" fill="white" fill-opacity="0.3"/>
<path d="M44.005 13.6752C44.23 13.0247 44.9974 12.1722 46.3075 11.1175C46.0192 12.239 45.2517 13.0915 44.005 13.6752Z" fill="white" fill-opacity="0.3"/>
<path d="M54.7068 27.7442C55.04 28.0186 55.3733 28.6559 55.7069 29.6562C55.1108 29.2418 54.7775 28.6044 54.7068 27.7442Z" fill="white" fill-opacity="0.3"/>
<path d="M10.8961 46.41C11.1366 45.9102 11.8303 45.299 12.9772 44.5764C12.6421 45.4475 11.9484 46.0587 10.8961 46.41Z" fill="white" fill-opacity="0.3"/>
<path d="M38.6931 8.93824C39.045 8.65104 39.7717 8.43857 40.873 8.30083C40.3222 8.8305 39.5955 9.04297 38.6931 8.93824Z" fill="white" fill-opacity="0.3"/>
<path d="M6.56738 37.1572C7.19896 37.0129 8.26218 37.2013 9.75702 37.7223C8.71771 38.0506 7.6545 37.8623 6.56738 37.1572Z" fill="white" fill-opacity="0.3"/>
<path d="M40.6846 32.0875C41.1132 31.7599 41.9836 31.5353 43.296 31.4135C42.6222 32.0213 41.7517 32.246 40.6846 32.0875Z" fill="white" fill-opacity="0.3"/>
<path d="M2.21801 60.9715C2.17852 60.4975 2.42553 59.7442 2.95905 58.7117C3.09005 59.5011 2.84304 60.2544 2.21801 60.9715Z" fill="white" fill-opacity="0.3"/>
<path d="M3.95807 20.1761C4.17346 19.8216 4.73418 19.4172 5.64023 18.963C5.3275 19.5868 4.76678 19.9912 3.95807 20.1761Z" fill="white" fill-opacity="0.3"/>
<path d="M6.30063 56.0641C6.85416 56.2369 7.59175 56.8613 8.51341 57.9375C7.56164 57.7235 6.82405 57.099 6.30063 56.0641Z" fill="white" fill-opacity="0.3"/>
<path d="M31.5765 8.55823C32.0804 8.71856 32.7499 9.29173 33.585 10.2777C32.7181 10.0778 32.0486 9.5046 31.5765 8.55823Z" fill="white" fill-opacity="0.3"/>
<path d="M32.5359 36.7208C32.9545 36.6252 33.6591 36.7502 34.6496 37.0956C33.9609 37.3131 33.2563 37.1882 32.5359 36.7208Z" fill="white" fill-opacity="0.3"/>
<path d="M14.9429 34.9591C15.5426 34.9161 16.4912 35.2393 17.7886 35.9287C16.7888 36.0828 15.8403 35.7596 14.9429 34.9591Z" fill="white" fill-opacity="0.3"/>
<path d="M41.5846 33.1965C42.0604 33.0211 42.9046 33.0606 44.1172 33.3151C43.3434 33.6742 42.4992 33.6347 41.5846 33.1965Z" fill="white" fill-opacity="0.3"/>
<path d="M45.8197 9.03838C45.8565 8.47289 46.28 7.62867 47.0901 6.50572C47.1058 7.45895 46.6823 8.30317 45.8197 9.03838Z" fill="white" fill-opacity="0.3"/>
<path d="M19.183 37.3022C19.1924 36.8931 19.4723 36.2713 20.0227 35.4366C20.0629 36.1238 19.783 36.7457 19.183 37.3022Z" fill="white" fill-opacity="0.3"/>
<path d="M60.1602 41.1387C60.6852 41.2997 61.3867 41.8875 62.2645 42.9021C61.3623 42.704 60.6608 42.1162 60.1602 41.1387Z" fill="white" fill-opacity="0.3"/>
<path d="M52.8364 6.29145C53.081 5.91567 53.7004 5.4976 54.6946 5.03723C54.3358 5.70075 53.7164 6.11882 52.8364 6.29145Z" fill="white" fill-opacity="0.3"/>
<path d="M52.197 53.6986C52.7156 53.6377 53.5513 53.8807 54.7041 54.4277C53.8428 54.6008 53.0071 54.3578 52.197 53.6986Z" fill="white" fill-opacity="0.3"/>
<path d="M63.3248 31.6931C63.7793 31.9627 64.3022 32.6717 64.8932 33.82C64.0941 33.43 63.5713 32.721 63.3248 31.6931Z" fill="white" fill-opacity="0.3"/>
<path d="M3.68347 2.64446C4.1604 2.4947 4.98974 2.57435 6.17148 2.8834C5.39223 3.19969 4.56289 3.12004 3.68347 2.64446Z" fill="white" fill-opacity="0.3"/>
<path d="M41.3827 17.707C41.8833 17.3829 42.8621 17.2102 44.3192 17.1889C43.5241 17.8008 42.5453 17.9736 41.3827 17.707Z" fill="white" fill-opacity="0.3"/>
<path d="M29.1399 11.5431C29.5073 11.8163 29.8939 12.474 30.2998 13.5163C29.6465 13.1085 29.2599 12.4508 29.1399 11.5431Z" fill="white" fill-opacity="0.3"/>
<path d="M28.334 4.20831C28.7765 3.76845 29.7414 3.38045 31.2285 3.04431C30.5465 3.84234 29.5817 4.23034 28.334 4.20831Z" fill="white" fill-opacity="0.3"/>
<path d="M24.6569 47.6398C25.2492 47.409 26.3082 47.439 27.834 47.73C26.8724 48.198 25.8134 48.1679 24.6569 47.6398Z" fill="white" fill-opacity="0.3"/>
<path d="M22.2386 37.3394C22.7679 37.7967 23.2837 38.8423 23.7858 40.4762C22.8358 39.7817 22.32 38.7361 22.2386 37.3394Z" fill="white" fill-opacity="0.3"/>
<path d="M4.12421 0.857498C4.76069 0.921911 5.69595 1.43389 6.92999 2.39343C5.85394 2.3724 4.91868 1.86042 4.12421 0.857498Z" fill="white" fill-opacity="0.3"/>
<path d="M32.0584 48.7179C32.3947 49.0075 32.7231 49.6702 33.0435 50.7061C32.44 50.2666 32.1116 49.6039 32.0584 48.7179Z" fill="white" fill-opacity="0.3"/>
<path d="M61.6568 0.543991C62.2025 0.926947 62.7916 1.86899 63.4242 3.37012C62.4569 2.80255 61.8677 1.86051 61.6568 0.543991Z" fill="white" fill-opacity="0.3"/>
<path d="M24.5361 4.9823C25.1636 5.14431 26.0217 5.80025 27.1103 6.95011C26.0361 6.7642 25.178 6.10827 24.5361 4.9823Z" fill="white" fill-opacity="0.3"/>
<path d="M8.45114 55.9892C8.90349 55.9582 9.61803 56.2042 10.5948 56.7272C9.8405 56.841 9.12596 56.595 8.45114 55.9892Z" fill="white" fill-opacity="0.3"/>
<path d="M46.1884 34.028C46.5553 34.3617 46.9021 35.112 47.2288 36.2791C46.5678 35.7698 46.221 35.0194 46.1884 34.028Z" fill="white" fill-opacity="0.3"/>
<path d="M34.1684 20.4536C34.783 20.6477 35.6004 21.3446 36.6208 22.5442C35.5637 22.3027 34.7463 21.6058 34.1684 20.4536Z" fill="white" fill-opacity="0.3"/>
<path d="M3.38397 31.2773C3.69734 30.6983 4.55416 30.0129 5.95445 29.221C5.50812 30.2347 4.65129 30.9201 3.38397 31.2773Z" fill="white" fill-opacity="0.3"/>
<path d="M46.985 18.033C47.1366 17.5523 47.6812 16.9128 48.619 16.1144C48.4305 16.9412 47.8858 17.5807 46.985 18.033Z" fill="white" fill-opacity="0.3"/>
<path d="M55.5811 28.6142C56.2086 28.5944 57.1848 28.9711 58.5096 29.7445C57.4602 29.8636 56.484 29.4868 55.5811 28.6142Z" fill="white" fill-opacity="0.3"/>
<path d="M54.9869 63.7766C55.2504 63.4562 55.8629 63.1355 56.8242 62.8144C56.4261 63.3876 55.8137 63.7083 54.9869 63.7766Z" fill="white" fill-opacity="0.3"/>
<path d="M50.6976 21.4302C51.2096 21.4358 51.9919 21.7767 53.0445 22.4529C52.1853 22.5135 51.403 22.1726 50.6976 21.4302Z" fill="white" fill-opacity="0.3"/>
<path d="M57.0309 46.27C57.2834 45.8076 57.9713 45.2617 59.0944 44.6323C58.7341 45.4421 58.0462 45.988 57.0309 46.27Z" fill="white" fill-opacity="0.3"/>
<path d="M25.34 10.0574C25.797 10.22 26.393 10.7662 27.128 11.6961C26.3394 11.4859 25.7434 10.9396 25.34 10.0574Z" fill="white" fill-opacity="0.3"/>
<path d="M10.8787 10.6612C11.3507 10.8921 11.9253 11.5529 12.6027 12.6436C11.7797 12.3209 11.2051 11.6601 10.8787 10.6612Z" fill="white" fill-opacity="0.3"/>
<path d="M36.5412 19.5808C37.1523 19.3411 38.246 19.3698 39.8222 19.6668C38.8303 20.1523 37.7366 20.1236 36.5412 19.5808Z" fill="white" fill-opacity="0.3"/>
<path d="M55.8022 46.1372C56.3456 46.3116 57.0667 46.9319 57.9656 47.9982C57.0305 47.7801 56.3093 47.1598 55.8022 46.1372Z" fill="white" fill-opacity="0.3"/>
<path d="M1.99405 49.2039C2.57798 49.5168 3.27133 50.376 4.0741 51.7816C3.05221 51.3369 2.35886 50.4776 1.99405 49.2039Z" fill="white" fill-opacity="0.3"/>
<path d="M29.7781 5.80989C29.9606 5.20734 30.632 4.40085 31.7921 3.39043C31.5683 4.42573 30.897 5.23222 29.7781 5.80989Z" fill="white" fill-opacity="0.3"/>
<path d="M2.0162 27.5358C2.41845 27.8257 2.84773 28.532 3.30404 29.6545C2.58993 29.2232 2.16065 28.5169 2.0162 27.5358Z" fill="white" fill-opacity="0.3"/>
<path d="M31.7222 47.8748C32.19 47.8951 32.8949 48.2299 33.837 48.8792C33.0498 48.9091 32.3449 48.5743 31.7222 47.8748Z" fill="white" fill-opacity="0.3"/>
<path d="M44.2244 13.667C44.6411 13.6202 45.3111 13.8189 46.2344 14.263C45.5421 14.3983 44.8721 14.1997 44.2244 13.667Z" fill="white" fill-opacity="0.3"/>
<path d="M62.7358 2.92329C62.7437 2.30551 63.1568 1.36227 63.975 0.0935669C64.0462 1.13053 63.6331 2.07377 62.7358 2.92329Z" fill="white" fill-opacity="0.3"/>
<path d="M44.1719 23.5219C44.6848 23.9443 45.1978 24.9256 45.7112 26.4657C44.7936 25.8275 44.2805 24.8462 44.1719 23.5219Z" fill="white" fill-opacity="0.3"/>
<path d="M43.9833 30.1907C44.1556 29.6074 44.7986 28.8238 45.9125 27.8399C45.7033 28.8415 45.0602 29.6251 43.9833 30.1907Z" fill="white" fill-opacity="0.3"/>
<path d="M46.2185 28.8547C46.7483 28.5866 47.7356 28.5189 49.1805 28.6516C48.3287 29.1735 47.3414 29.2412 46.2185 28.8547Z" fill="white" fill-opacity="0.3"/>
<path d="M15.2597 42.5979C15.7236 43.0314 16.1544 43.9978 16.5521 45.4972C15.7151 44.8339 15.2843 43.8674 15.2597 42.5979Z" fill="white" fill-opacity="0.3"/>
<path d="M5.78741 28.5097C6.32293 28.1827 7.35724 28.0283 8.89034 28.0465C8.03708 28.668 7.00277 28.8224 5.78741 28.5097Z" fill="white" fill-opacity="0.3"/>
<path d="M0.946468 21.289C0.941613 20.8085 1.24597 20.0679 1.85953 19.067C1.93332 19.8719 1.62897 20.6126 0.946468 21.289Z" fill="white" fill-opacity="0.3"/>
<path d="M23.2416 15.9957C23.3696 15.5909 23.8287 15.0526 24.6191 14.3808C24.4598 15.077 24.0006 15.6153 23.2416 15.9957Z" fill="white" fill-opacity="0.3"/>
<path d="M14.7644 46.3811C15.2899 46.4812 16.0316 46.9759 16.9895 47.8653C16.0947 47.7692 15.353 47.2745 14.7644 46.3811Z" fill="white" fill-opacity="0.3"/>
<path d="M37.5324 31.02C38.0694 30.7077 39.0964 30.5769 40.6134 30.6276C39.7556 31.2245 38.7286 31.3553 37.5324 31.02Z" fill="white" fill-opacity="0.3"/>
<path d="M54.1216 14.2123C54.5429 14.3254 55.1162 14.7727 55.8415 15.5539C55.1196 15.4217 54.5463 14.9745 54.1216 14.2123Z" fill="white" fill-opacity="0.3"/>
<path d="M38.455 34.2101C38.4423 33.7933 38.6934 33.1452 39.2082 32.2659C39.2864 32.9631 39.0353 33.6111 38.455 34.2101Z" fill="white" fill-opacity="0.3"/>
<path d="M27.8188 42.6261C28.0251 42.0197 28.7355 41.2226 29.9499 40.235C29.6868 41.2801 28.9764 42.0771 27.8188 42.6261Z" fill="white" fill-opacity="0.3"/>
<path d="M62.3186 57.3012C62.744 57.3281 63.3796 57.6456 64.2253 58.2535C63.5083 58.2665 62.8727 57.9491 62.3186 57.3012Z" fill="white" fill-opacity="0.3"/>
<path d="M59.1469 56.323C59.7044 56.2611 60.6003 56.5279 61.8346 57.1233C60.9084 57.3033 60.0125 57.0365 59.1469 56.323Z" fill="white" fill-opacity="0.3"/>
<path d="M9.39377 61.3455C9.92309 61.2463 10.8001 61.4374 12.0248 61.9189C11.1508 62.1578 10.2738 61.9666 9.39377 61.3455Z" fill="white" fill-opacity="0.3"/>
<path d="M8.36691 42.6402C9.02481 42.4431 10.1627 42.5675 11.7805 43.0134C10.7043 43.4339 9.56642 43.3094 8.36691 42.6402Z" fill="white" fill-opacity="0.3"/>
<path d="M14.2369 36.2458C14.6746 36.4827 15.1928 37.1305 15.7914 38.1891C15.0251 37.8517 14.5069 37.2039 14.2369 36.2458Z" fill="white" fill-opacity="0.3"/>
<path d="M11.8669 51.7906C11.8941 51.3367 12.2304 50.6576 12.8758 49.7533C12.8923 50.5181 12.5559 51.1972 11.8669 51.7906Z" fill="white" fill-opacity="0.3"/>
<path d="M44.2056 42.1841C44.588 41.8499 45.3919 41.5851 46.6174 41.3897C46.0218 42.0023 45.2179 42.2671 44.2056 42.1841Z" fill="white" fill-opacity="0.3"/>
<path d="M48.3199 1.61365C48.8944 1.97231 49.5436 2.89578 50.2674 4.38406C49.255 3.86118 48.6058 2.93771 48.3199 1.61365Z" fill="white" fill-opacity="0.3"/>
<path d="M25.236 52.052C25.841 51.9182 26.8566 52.1054 28.2827 52.6138C27.2865 52.9208 26.271 52.7335 25.236 52.052Z" fill="white" fill-opacity="0.3"/>
<path d="M61.5035 30.9351C62.1812 30.8883 63.2518 31.2563 64.7154 32.0391C63.5855 32.2102 62.5149 31.8421 61.5035 30.9351Z" fill="white" fill-opacity="0.3"/>
<path d="M24.7281 13.9322C25.0176 13.2984 25.8734 12.5134 27.2955 11.5771C26.8966 12.6794 26.0408 13.4645 24.7281 13.9322Z" fill="white" fill-opacity="0.3"/>
<path d="M33.6181 57.9184C33.6342 57.4453 33.9658 56.7295 34.6131 55.7709C34.6509 56.5664 34.3192 57.2822 33.6181 57.9184Z" fill="white" fill-opacity="0.3"/>
<path d="M34.8951 56.1477C35.3331 56.3518 35.8732 56.9493 36.5152 57.9405C35.7527 57.6582 35.2127 57.0606 34.8951 56.1477Z" fill="white" fill-opacity="0.3"/>
<path d="M34.3623 7.14795C34.9835 6.83089 36.1429 6.74734 37.8405 6.89731C36.8422 7.51384 35.6828 7.59738 34.3623 7.14795Z" fill="white" fill-opacity="0.3"/>
<path d="M18.3793 3.52557C18.8511 3.03414 19.8943 2.58597 21.509 2.18106C20.785 3.06955 19.7418 3.51772 18.3793 3.52557Z" fill="white" fill-opacity="0.3"/>
<path d="M25.3468 1.88081C25.9166 1.8307 26.8237 2.12355 28.0683 2.75938C27.1198 2.92127 26.2126 2.62841 25.3468 1.88081Z" fill="white" fill-opacity="0.3"/>
<path d="M8.54559 12.8405C9.05362 12.8151 9.84994 13.1059 10.9345 13.7129C10.0862 13.8248 9.28984 13.534 8.54559 12.8405Z" fill="white" fill-opacity="0.3"/>
<path d="M38.8653 60.8691C39.2757 60.7856 39.9599 60.9236 40.918 61.2834C40.2413 61.4796 39.557 61.3415 38.8653 60.8691Z" fill="white" fill-opacity="0.3"/>
<path d="M19.8773 34.824C19.9999 34.4248 20.4472 33.8914 21.2192 33.2239C21.0682 33.9101 20.621 34.4435 19.8773 34.824Z" fill="white" fill-opacity="0.3"/>
<path d="M61.118 59.8557C61.5439 60.2138 61.9653 61.0401 62.3822 62.3345C61.619 61.7921 61.1976 60.9659 61.118 59.8557Z" fill="white" fill-opacity="0.3"/>
<path d="M21.9998 3.9575C22.6224 4.06446 23.5087 4.63273 24.6588 5.66232C23.6002 5.56806 22.7139 4.99979 21.9998 3.9575Z" fill="white" fill-opacity="0.3"/>
<path d="M51.2219 30.136C51.6115 30.2638 52.1267 30.7128 52.7674 31.483C52.0967 31.322 51.5815 30.873 51.2219 30.136Z" fill="white" fill-opacity="0.3"/>
<path d="M10.9032 23.6675C11.516 23.5469 12.5349 23.7595 13.96 24.3053C12.949 24.5913 11.93 24.3786 10.9032 23.6675Z" fill="white" fill-opacity="0.3"/>
<path d="M15.6866 2.09576C16.3738 2.20318 17.359 2.81409 18.6423 3.9285C17.4753 3.8423 16.4901 3.23139 15.6866 2.09576Z" fill="white" fill-opacity="0.3"/>
<path d="M63.035 28.4223C63.5173 28.7875 64.0205 29.6613 64.5447 31.0435C63.6861 30.4969 63.1829 29.6231 63.035 28.4223Z" fill="white" fill-opacity="0.3"/>
<path d="M37.9894 26.8572C38.613 26.9233 39.5274 27.4294 40.7327 28.3756C39.678 28.3501 38.7636 27.8439 37.9894 26.8572Z" fill="white" fill-opacity="0.3"/>
<path d="M48.5764 16.4577C49.085 16.9186 49.5666 17.9563 50.0212 19.5707C49.1054 18.8673 48.6238 17.8296 48.5764 16.4577Z" fill="white" fill-opacity="0.3"/>
<path d="M57.9475 9.37091C58.6237 9.31364 59.6989 9.66462 61.1732 10.4238C60.0471 10.6123 58.9719 10.2613 57.9475 9.37091Z" fill="white" fill-opacity="0.3"/>
<path d="M52.1821 20.9009C52.4568 20.4636 53.1623 19.9705 54.2987 19.4218C53.8978 20.1927 53.1923 20.6857 52.1821 20.9009Z" fill="white" fill-opacity="0.3"/>
<path d="M16.6917 20.1806C17.2345 20.4556 17.8892 21.2301 18.6558 22.504C17.7081 22.117 17.0534 21.3425 16.6917 20.1806Z" fill="white" fill-opacity="0.3"/>
<path d="M15.2354 61.7803C15.7331 62.0236 16.3393 62.7201 17.0539 63.8699C16.1861 63.5299 15.5799 62.8334 15.2354 61.7803Z" fill="white" fill-opacity="0.3"/>
<path d="M31.2267 12.9709C31.3067 12.5696 31.6898 12.0053 32.3762 11.2782C32.2971 11.9621 31.9139 12.5263 31.2267 12.9709Z" fill="white" fill-opacity="0.3"/>
<path d="M11.1289 53.86C11.7018 53.8678 12.5762 54.2515 13.7521 55.0112C12.7904 55.0765 11.9161 54.6928 11.1289 53.86Z" fill="white" fill-opacity="0.3"/>
<path d="M49.598 6.8158C49.7973 6.4684 50.3289 6.0645 51.1926 5.60411C50.9057 6.21388 50.3742 6.61777 49.598 6.8158Z" fill="white" fill-opacity="0.3"/>
<path d="M30.7085 6.62025C31.2702 6.42812 32.2571 6.49774 33.6693 6.82911C32.7537 7.22802 31.7668 7.1584 30.7085 6.62025Z" fill="white" fill-opacity="0.3"/>
<path d="M37.7226 49.1195C38.2605 48.756 39.3222 48.5471 40.9078 48.4928C40.0554 49.1759 38.9937 49.3848 37.7226 49.1195Z" fill="white" fill-opacity="0.3"/>
<path d="M11.1899 15.4115C11.666 15.6356 12.2515 16.2886 12.9463 17.3704C12.1173 17.0598 11.5319 16.4068 11.1899 15.4115Z" fill="white" fill-opacity="0.3"/>
<path d="M6.61609 53.3772C6.77228 52.9901 7.26328 52.4972 8.08908 51.8986C7.88008 52.569 7.38908 53.0619 6.61609 53.3772Z" fill="white" fill-opacity="0.3"/>
<path d="M50.5522 32.8517C50.9861 33.0442 51.5271 33.6214 52.1753 34.5833C51.4215 34.3197 50.8805 33.7425 50.5522 32.8517Z" fill="white" fill-opacity="0.3"/>
<path d="M6.46878 25.8901C6.93819 26.361 7.35316 27.3886 7.71368 28.9727C6.86223 28.2473 6.44726 27.2197 6.46878 25.8901Z" fill="white" fill-opacity="0.3"/>
<path d="M3.98315 1.74248C4.20539 1.12658 4.94628 0.325365 6.20583 -0.661179C5.91734 0.401913 5.17645 1.20313 3.98315 1.74248Z" fill="white" fill-opacity="0.3"/>
<path d="M3.87976 40.6384C4.18737 40.9202 4.47666 41.5525 4.74762 42.5353C4.19331 42.1047 3.90402 41.4724 3.87976 40.6384Z" fill="white" fill-opacity="0.3"/>
<path d="M14.6871 19.4287C14.9805 19.1061 15.6404 18.8013 16.6666 18.5145C16.2186 19.0955 15.5588 19.4002 14.6871 19.4287Z" fill="white" fill-opacity="0.3"/>
<path d="M53.0393 3.61267C53.6025 3.63455 54.4529 4.03366 55.5904 4.81003C54.6431 4.85031 53.7927 4.45119 53.0393 3.61267Z" fill="white" fill-opacity="0.3"/>
<path d="M50.2177 29.4871C50.7194 29.1187 51.7286 28.879 53.2453 28.7677C52.4544 29.4538 51.4452 29.6936 50.2177 29.4871Z" fill="white" fill-opacity="0.3"/>
<path d="M46.3369 24.6205C46.7678 24.3542 47.602 24.2249 48.8396 24.2327C48.1536 24.7382 47.3194 24.8675 46.3369 24.6205Z" fill="white" fill-opacity="0.3"/>
<path d="M15.4117 46.6971C15.4916 46.0434 16.0384 45.0918 17.0523 43.8423C17.0077 44.9492 16.4608 45.9008 15.4117 46.6971Z" fill="white" fill-opacity="0.3"/>
<path d="M49.1657 34.2163C49.8319 34.1304 50.9103 34.4308 52.4011 35.1176C51.2958 35.3528 50.2173 35.0523 49.1657 34.2163Z" fill="white" fill-opacity="0.3"/>
<path d="M52.9912 13.9124C53.5546 14.2906 54.1739 15.2368 54.8493 16.751C53.853 16.1938 53.2336 15.2476 52.9912 13.9124Z" fill="white" fill-opacity="0.3"/>
<path d="M50.838 41.4381C51.2998 41.4466 52.0031 41.7592 52.9481 42.3761C52.1726 42.425 51.4693 42.1124 50.838 41.4381Z" fill="white" fill-opacity="0.3"/>
<path d="M49.9294 31.451C50.215 31.1184 50.8693 30.7932 51.8923 30.4754C51.4589 31.0721 50.8046 31.3973 49.9294 31.451Z" fill="white" fill-opacity="0.3"/>
<path d="M27.7413 51.3907C28.2488 51.2772 29.1015 51.4324 30.2995 51.8563C29.464 52.1159 28.6112 51.9607 27.7413 51.3907Z" fill="white" fill-opacity="0.3"/>
<path d="M42.2778 30.1126C42.7495 30.372 43.3052 31.0763 43.9451 32.2255C43.1187 31.8551 42.5629 31.1508 42.2778 30.1126Z" fill="white" fill-opacity="0.3"/>
<path d="M41.7422 46.3988C42.1793 46.3347 42.8918 46.5199 43.8799 46.9546C43.1558 47.1218 42.4432 46.9365 41.7422 46.3988Z" fill="white" fill-opacity="0.3"/>
<path d="M15.5758 44.3027C15.6556 43.8123 16.0963 43.1112 16.8981 42.1995C16.8313 43.0328 16.3906 43.7338 15.5758 44.3027Z" fill="white" fill-opacity="0.3"/>
<path d="M53.7697 23.8856C54.0616 23.5948 54.6984 23.3379 55.6801 23.1147C55.2304 23.6422 54.5936 23.8992 53.7697 23.8856Z" fill="white" fill-opacity="0.3"/>
<path d="M51.7534 49.6443C52.1496 49.8737 52.6088 50.4831 53.1311 51.4724C52.4355 51.1418 51.9762 50.5324 51.7534 49.6443Z" fill="white" fill-opacity="0.3"/>
<path d="M36.8689 47.1369C37.3782 46.9844 38.2591 47.0808 39.5115 47.4261C38.6783 47.7515 37.7975 47.6551 36.8689 47.1369Z" fill="white" fill-opacity="0.3"/>
<path d="M15.2631 59.4582C15.3602 59.0145 15.7973 58.3964 16.5743 57.6039C16.4721 58.3612 16.035 58.9793 15.2631 59.4582Z" fill="white" fill-opacity="0.3"/>
<path d="M44.4255 61.195C45.0382 60.9315 46.1497 60.9245 47.7602 61.1741C46.7689 61.6998 45.6574 61.7068 44.4255 61.195Z" fill="white" fill-opacity="0.3"/>
<path d="M54.0289 22.757C54.3696 22.3273 55.1715 21.8888 56.4346 21.4416C55.922 22.2086 55.1201 22.6471 54.0289 22.757Z" fill="white" fill-opacity="0.3"/>
<path d="M13.1248 26.1413C13.568 25.7546 14.4995 25.4487 15.9192 25.2235C15.2287 25.9325 14.2973 26.2384 13.1248 26.1413Z" fill="white" fill-opacity="0.3"/>
<path d="M11.7474 32.1639C12.1163 31.6571 13.0115 31.1184 14.4329 30.548C13.8837 31.4482 12.9886 31.9869 11.7474 32.1639Z" fill="white" fill-opacity="0.3"/>
<path d="M55.1148 22.5281C55.6002 22.9548 56.0683 23.9249 56.5193 25.4384C55.6471 24.7892 55.1789 23.8191 55.1148 22.5281Z" fill="white" fill-opacity="0.3"/>
<path d="M17.8383 20.5641C18.2827 20.6405 18.9153 21.0463 19.7362 21.7814C18.9805 21.714 18.3479 21.3082 17.8383 20.5641Z" fill="white" fill-opacity="0.3"/>
<path d="M42.4567 40.6611C42.9775 40.2974 44.0132 40.0771 45.5636 40.0003C44.7399 40.6813 43.7043 40.9016 42.4567 40.6611Z" fill="white" fill-opacity="0.3"/>
<path d="M3.70154 9.16361C4.10458 9.08116 4.7768 9.21619 5.7182 9.5687C5.05365 9.76201 4.38143 9.62698 3.70154 9.16361Z" fill="white" fill-opacity="0.3"/>
<path d="M26.7448 31.4508C26.9737 30.8035 27.7451 29.9583 29.0591 28.9152C28.7638 30.0319 27.9924 30.8771 26.7448 31.4508Z" fill="white" fill-opacity="0.3"/>
<path d="M45.4628 58.8023C46.0708 59.061 46.8363 59.8528 47.7593 61.1776C46.7044 60.8269 45.9389 60.0352 45.4628 58.8023Z" fill="white" fill-opacity="0.3"/>
<path d="M45.9333 14.8669C46.4198 14.3786 47.4836 13.9448 49.1247 13.5655C48.3756 14.4508 47.3118 14.8846 45.9333 14.8669Z" fill="white" fill-opacity="0.3"/>
<path d="M10.6383 35.2413C10.7629 34.7677 11.2615 34.1215 12.1342 33.3028C11.99 34.114 11.4914 34.7601 10.6383 35.2413Z" fill="white" fill-opacity="0.3"/>
<path d="M24.8615 35.0405C24.9322 34.4953 25.3945 33.704 26.2486 32.6669C26.2046 33.5909 25.7423 34.3821 24.8615 35.0405Z" fill="white" fill-opacity="0.3"/>
<path d="M51.0269 49.602C51.557 49.562 52.3968 49.8448 53.5461 50.4502C52.6626 50.5896 51.8229 50.3069 51.0269 49.602Z" fill="white" fill-opacity="0.3"/>
<path d="M46.7697 37.8835C46.9501 37.4059 47.537 36.7897 48.5304 36.035C48.2932 36.8606 47.7063 37.4767 46.7697 37.8835Z" fill="white" fill-opacity="0.3"/>
<path d="M30.2466 15.2213C30.205 14.5616 30.5694 13.5221 31.3396 12.1026C31.4994 13.203 31.1351 14.2425 30.2466 15.2213Z" fill="white" fill-opacity="0.3"/>
<path d="M1.34674 27.4118C1.66094 27.1402 2.31957 26.9271 3.32264 26.7726C2.83292 27.271 2.17429 27.4841 1.34674 27.4118Z" fill="white" fill-opacity="0.3"/>
<path d="M21.8549 24.9914C22.2614 25.3311 22.665 26.1165 23.0657 27.3476C22.3376 26.8335 21.934 26.0481 21.8549 24.9914Z" fill="white" fill-opacity="0.3"/>
<path d="M4.29297 17.4028C4.82891 17.5553 5.55272 18.1371 6.46437 19.1484C5.54487 18.966 4.82107 18.3842 4.29297 17.4028Z" fill="white" fill-opacity="0.3"/>
<path d="M60.1665 40.8759C60.5003 40.3881 61.3292 39.8559 62.6534 39.2793C62.1604 40.1428 61.3314 40.675 60.1665 40.8759Z" fill="white" fill-opacity="0.3"/>
<path d="M38.7752 29.4969C39.3355 29.7148 40.0544 30.4128 40.9316 31.5912C39.9623 31.3025 39.2435 30.6044 38.7752 29.4969Z" fill="white" fill-opacity="0.3"/>
<path d="M59.3479 17.0826C59.7095 16.8436 60.4196 16.7115 61.4783 16.6863C60.9047 17.1363 60.1945 17.2684 59.3479 17.0826Z" fill="white" fill-opacity="0.3"/>
<path d="M19.3386 4.50478C19.7613 4.23681 20.5841 4.0998 21.8071 4.09375C21.1349 4.60084 20.3121 4.73785 19.3386 4.50478Z" fill="white" fill-opacity="0.3"/>
<path d="M45.5993 5.42003C45.845 5.00771 46.4898 4.53422 47.5336 3.99956C47.178 4.7245 46.5332 5.19799 45.5993 5.42003Z" fill="white" fill-opacity="0.3"/>
<path d="M47.7359 52.2575C48.0859 52 48.7902 51.8318 49.8489 51.753C49.2973 52.2326 48.593 52.4008 47.7359 52.2575Z" fill="white" fill-opacity="0.3"/>
<path d="M24.0392 45.8409C24.4003 46.2078 24.7164 47.0054 24.9875 48.2336C24.332 47.6677 24.0159 46.8702 24.0392 45.8409Z" fill="white" fill-opacity="0.3"/>
<path d="M42.1359 33.2122C42.6261 33.1459 43.4216 33.3624 44.5225 33.8615C43.7095 34.0396 42.914 33.8232 42.1359 33.2122Z" fill="white" fill-opacity="0.3"/>
<path d="M32.3706 3.83772C32.8276 3.40709 33.8086 3.04263 35.3136 2.74432C34.6062 3.52884 33.6252 3.89331 32.3706 3.83772Z" fill="white" fill-opacity="0.3"/>
<path d="M45.2209 48.6074C45.767 48.324 46.7895 48.2435 48.2881 48.3657C47.4109 48.9156 46.3885 48.9962 45.2209 48.6074Z" fill="white" fill-opacity="0.3"/>
<path d="M39.8516 52.8369C40.3887 52.9949 41.1107 53.5861 42.0175 54.6105C41.0953 54.4189 40.3733 53.8277 39.8516 52.8369Z" fill="white" fill-opacity="0.3"/>
<path d="M33.8304 60.6917C33.9443 60.1089 34.4974 59.2882 35.4897 58.2295C35.3784 59.2223 34.8252 60.043 33.8304 60.6917Z" fill="white" fill-opacity="0.3"/>
<path d="M22.857 12.8351C23.3479 12.6448 24.225 12.6714 25.4883 12.9148C24.6911 13.3009 23.814 13.2743 22.857 12.8351Z" fill="white" fill-opacity="0.3"/>
<path d="M40.5004 41.2041C41.0177 41.1069 41.8749 41.2935 43.0721 41.7639C42.2179 41.9975 41.3607 41.8109 40.5004 41.2041Z" fill="white" fill-opacity="0.3"/>
<path d="M15.3277 15.2563C15.2929 14.6323 15.6445 13.6518 16.3824 12.3148C16.5261 13.3563 16.1745 14.3369 15.3277 15.2563Z" fill="white" fill-opacity="0.3"/>
<path d="M35.1705 36.8064C35.7213 36.7373 36.6116 36.9887 37.8415 37.5605C36.9274 37.7516 36.0371 37.5003 35.1705 36.8064Z" fill="white" fill-opacity="0.3"/>
<path d="M19.5923 35.6699C20.0417 35.3689 20.9269 35.1985 22.248 35.1586C21.5356 35.7248 20.6504 35.8952 19.5923 35.6699Z" fill="white" fill-opacity="0.3"/>
<path d="M48.5018 43.3844C48.936 43.681 49.41 44.4181 49.9238 45.5957C49.1553 45.1577 48.6813 44.4206 48.5018 43.3844Z" fill="white" fill-opacity="0.3"/>
<path d="M22.2331 12.992C22.6992 13.1868 23.2882 13.7885 24.0002 14.7969C23.192 14.5339 22.603 13.9322 22.2331 12.992Z" fill="white" fill-opacity="0.3"/>
<path d="M59.0249 9.73686C59.6181 9.50234 60.6809 9.52734 62.2134 9.81186C61.2508 10.2862 60.1879 10.2612 59.0249 9.73686Z" fill="white" fill-opacity="0.3"/>
<path d="M9.40347 44.612C9.83783 44.5513 10.544 44.7399 11.5221 45.1779C10.8021 45.3392 10.0959 45.1505 9.40347 44.612Z" fill="white" fill-opacity="0.3"/>
<path d="M43.0034 39.5311C43.639 39.3933 44.7041 39.5944 46.1987 40.1342C45.1518 40.4521 44.0867 40.251 43.0034 39.5311Z" fill="white" fill-opacity="0.3"/>
<path d="M42.6215 20.0312C43.0094 20.4704 43.3199 21.3966 43.5529 22.8096C42.8423 22.126 42.5318 21.1999 42.6215 20.0312Z" fill="white" fill-opacity="0.3"/>
<path d="M44.8907 4.57182C45.4377 4.9044 46.0616 5.76998 46.7623 7.16855C45.7996 6.68564 45.1757 5.82007 44.8907 4.57182Z" fill="white" fill-opacity="0.3"/>
<path d="M33.7943 41.2055C34.3903 41.3845 35.189 42.0461 36.1905 43.1904C35.1666 42.9716 34.3679 42.31 33.7943 41.2055Z" fill="white" fill-opacity="0.3"/>
<path d="M24.7407 12.6013C25.2085 12.9963 25.6703 13.9062 26.1261 15.3311C25.2877 14.7328 24.8259 13.8229 24.7407 12.6013Z" fill="white" fill-opacity="0.3"/>
<path d="M44.4638 62.0402C44.8384 62.3497 45.2126 63.0681 45.5864 64.1952C44.9159 63.7273 44.5417 63.009 44.4638 62.0402Z" fill="white" fill-opacity="0.3"/>
<path d="M11.727 30.9367C12.221 30.4728 13.2804 30.0813 14.9053 29.7622C14.1404 30.6076 13.0809 30.9991 11.727 30.9367Z" fill="white" fill-opacity="0.3"/>
<path d="M4.94474 62.9872C4.94318 62.3822 5.33343 61.4525 6.11549 60.1982C6.20076 61.2123 5.81051 62.142 4.94474 62.9872Z" fill="white" fill-opacity="0.3"/>
<path d="M59.0143 13.239C59.3336 13.6004 59.5893 14.3623 59.7813 15.5248C59.1965 14.9626 58.9408 14.2006 59.0143 13.239Z" fill="white" fill-opacity="0.3"/>
<path d="M31.6873 50.0394C32.2303 49.8473 33.1885 49.9048 34.562 50.212C33.6777 50.6083 32.7195 50.5508 31.6873 50.0394Z" fill="white" fill-opacity="0.3"/>
<path d="M16.3382 39.0238C16.7066 39.2337 17.1359 39.7951 17.626 40.7079C16.9796 40.4062 16.5503 39.8448 16.3382 39.0238Z" fill="white" fill-opacity="0.3"/>
<path d="M25.5007 37.5705C25.8897 37.8816 26.2849 38.6118 26.6864 39.761C25.9915 39.2924 25.5963 38.5622 25.5007 37.5705Z" fill="white" fill-opacity="0.3"/>
<path d="M58.894 51.4166C59.4762 51.208 60.5054 51.2658 61.9815 51.5899C61.0337 52.0192 60.0045 51.9614 58.894 51.4166Z" fill="white" fill-opacity="0.3"/>
<path d="M62.2924 51.4367C62.601 51.171 63.2472 50.9634 64.2309 50.8139C63.7498 51.3016 63.1036 51.5092 62.2924 51.4367Z" fill="white" fill-opacity="0.3"/>
<path d="M48.7711 19.8929C48.7827 19.33 49.1658 18.4736 49.9204 17.3235C49.9778 18.2688 49.5947 19.1253 48.7711 19.8929Z" fill="white" fill-opacity="0.3"/>
<path d="M35.3003 28.452C35.7264 28.2551 36.5082 28.2295 37.6457 28.375C36.9582 28.7633 36.1764 28.7889 35.3003 28.452Z" fill="white" fill-opacity="0.3"/>
<path d="M4.03195 17.4946C4.18994 16.8784 4.83242 16.0349 5.95941 14.9643C5.7787 16.0192 5.13622 16.8626 4.03195 17.4946Z" fill="white" fill-opacity="0.3"/>
<path d="M13.4447 56.0255C13.8797 55.8061 14.6899 55.7516 15.8754 55.862C15.1759 56.2894 14.3657 56.3439 13.4447 56.0255Z" fill="white" fill-opacity="0.3"/>
<path d="M62.1132 8.21109C62.7163 8.24486 63.6203 8.68815 64.8251 9.54098C63.8091 9.56677 62.9051 9.12348 62.1132 8.21109Z" fill="white" fill-opacity="0.3"/>
<path d="M57.6607 4.02438C58.2772 4.30841 59.0392 5.14451 59.9467 6.53269C58.8742 6.14068 58.1122 5.30458 57.6607 4.02438Z" fill="white" fill-opacity="0.3"/>
<path d="M5.08289 49.4323C5.3913 48.9041 6.20756 48.2934 7.53166 47.6003C7.08669 48.5281 6.27044 49.1388 5.08289 49.4323Z" fill="white" fill-opacity="0.3"/>
<path d="M43.1161 6.50911C43.4807 6.73058 43.8968 7.30723 44.3642 8.23906C43.7225 7.91753 43.3064 7.34088 43.1161 6.50911Z" fill="white" fill-opacity="0.3"/>
<path d="M49.7188 60.6877C50.157 60.819 50.7444 61.3049 51.4812 62.1455C50.7285 61.9853 50.141 61.4993 49.7188 60.6877Z" fill="white" fill-opacity="0.3"/>
<path d="M13.3233 43.1434C13.736 42.9283 14.5092 42.8659 15.6428 42.9563C14.9802 43.3734 14.207 43.4358 13.3233 43.1434Z" fill="white" fill-opacity="0.3"/>
<path d="M50.5288 13.1241C51.0467 13.4608 51.6232 14.3139 52.2583 15.6833C51.3438 15.1894 50.7674 14.3364 50.5288 13.1241Z" fill="white" fill-opacity="0.3"/>
<path d="M55.9383 28.9529C56.1713 28.5194 56.8104 28.0051 57.8556 27.4101C57.5241 28.1689 56.885 28.6831 55.9383 28.9529Z" fill="white" fill-opacity="0.3"/>
<path d="M9.7598 6.46835C10.2841 6.3501 11.1658 6.50889 12.4048 6.94472C11.5417 7.21465 10.6601 7.05586 9.7598 6.46835Z" fill="white" fill-opacity="0.3"/>
<path d="M54.7993 58.3039C55.3072 58.5193 55.947 59.1794 56.7188 60.2844C55.8378 59.9927 55.198 59.3326 54.7993 58.3039Z" fill="white" fill-opacity="0.3"/>
<path d="M26.9568 19.8477C27.417 19.8744 28.1062 20.214 29.0242 20.8666C28.2489 20.8848 27.5598 20.5451 26.9568 19.8477Z" fill="white" fill-opacity="0.3"/>
<path d="M16.5715 26.8603C17.1535 27.1052 17.888 27.8588 18.7749 29.1212C17.7656 28.7901 17.0311 28.0365 16.5715 26.8603Z" fill="white" fill-opacity="0.3"/>
<path d="M6.58301 15.2963C7.2238 15.5042 8.07254 16.2393 9.12923 17.5015C8.02635 17.2404 7.17761 16.5053 6.58301 15.2963Z" fill="white" fill-opacity="0.3"/>
<path d="M12.5839 61.665C12.9144 61.168 13.7442 60.6196 15.0736 60.0197C14.5873 60.8982 13.7574 61.4467 12.5839 61.665Z" fill="white" fill-opacity="0.3"/>
<path d="M59.5529 35.1916C59.6948 34.7888 60.1739 34.2626 60.9903 33.6128C60.8076 34.3076 60.3284 34.8338 59.5529 35.1916Z" fill="white" fill-opacity="0.3"/>
<path d="M17.0614 63.7464C17.4389 63.362 18.2679 63.0169 19.5483 62.7112C18.9679 63.4073 18.1389 63.7524 17.0614 63.7464Z" fill="white" fill-opacity="0.3"/>
<path d="M29.1647 17.509C29.6097 17.3265 30.4112 17.3352 31.5693 17.535C30.8481 17.9018 30.0466 17.8932 29.1647 17.509Z" fill="white" fill-opacity="0.3"/>
<path d="M11.0247 19.6158C11.3958 19.7689 11.866 20.2447 12.4354 21.0431C11.7924 20.8372 11.3221 20.3614 11.0247 19.6158Z" fill="white" fill-opacity="0.3"/>
<path d="M5.32913 0.209686C5.71063 0.599642 6.04319 1.44587 6.32679 2.74837C5.6338 2.14663 5.30125 1.3004 5.32913 0.209686Z" fill="white" fill-opacity="0.3"/>
<path d="M49.6155 7.99352C50.0478 7.93773 50.7475 8.13263 51.7148 8.57822C50.9976 8.73083 50.2979 8.53593 49.6155 7.99352Z" fill="white" fill-opacity="0.3"/>
<path d="M0.189819 20.2534C0.292803 19.7388 0.78487 19.0157 1.66602 18.0841C1.56365 18.961 1.07159 19.6841 0.189819 20.2534Z" fill="white" fill-opacity="0.3"/>
<path d="M56.1345 8.20282C56.7183 8.30959 57.5451 8.85239 58.6151 9.83121C57.6216 9.73195 56.7947 9.18915 56.1345 8.20282Z" fill="white" fill-opacity="0.3"/>
<path d="M60.4161 43.9155C60.6425 43.3848 61.3344 42.717 62.4918 41.9121C62.1848 42.8329 61.4929 43.5007 60.4161 43.9155Z" fill="white" fill-opacity="0.3"/>
<path d="M36.3299 51.1886C36.3913 50.6791 36.8164 49.9369 37.605 48.9619C37.5715 49.8247 37.1465 50.5669 36.3299 51.1886Z" fill="white" fill-opacity="0.3"/>
<path d="M1.87921 26.8269C2.36934 27.0559 2.97306 27.7257 3.69039 28.8361C2.83725 28.519 2.23353 27.8492 1.87921 26.8269Z" fill="white" fill-opacity="0.3"/>
<path d="M13.7293 14.9847C14.0869 15.3696 14.3861 16.1924 14.627 17.4533C13.9747 16.8569 13.6755 16.0341 13.7293 14.9847Z" fill="white" fill-opacity="0.3"/>
<path d="M47.3346 15.1137C48.0004 15.3067 48.8972 16.035 50.0251 17.2987C48.8823 17.0661 47.9855 16.3378 47.3346 15.1137Z" fill="white" fill-opacity="0.3"/>
<path d="M60.0679 24.8032C60.4742 24.3787 61.3734 23.9909 62.7656 23.6397C62.1422 24.4069 61.243 24.7947 60.0679 24.8032Z" fill="white" fill-opacity="0.3"/>
<path d="M34.7495 16.6305C35.0755 16.9495 35.369 17.6507 35.6299 18.7342C35.0397 18.2439 34.7462 17.5427 34.7495 16.6305Z" fill="white" fill-opacity="0.3"/>
<path d="M55.5982 34.1396C55.912 33.5507 56.7759 32.8504 58.19 32.0385C57.7443 33.0689 56.8804 33.7692 55.5982 34.1396Z" fill="white" fill-opacity="0.3"/>
<path d="M54.1166 54.1233C54.4734 54.5335 54.7548 55.3946 54.961 56.7068C54.3067 56.0678 54.0253 55.2067 54.1166 54.1233Z" fill="white" fill-opacity="0.3"/>
<path d="M49.5154 16.9088C49.4856 16.2542 49.8647 15.2301 50.6526 13.8365C50.792 14.9299 50.413 15.954 49.5154 16.9088Z" fill="white" fill-opacity="0.3"/>
<path d="M41.465 56.1359C41.5806 55.6607 42.0666 55.0064 42.9228 54.1728C42.7938 54.9853 42.3079 55.6397 41.465 56.1359Z" fill="white" fill-opacity="0.3"/>
<path d="M23.0553 50.0116C23.4884 50.3923 23.9062 51.2578 24.3087 52.6081C23.5304 52.0289 23.1126 51.1634 23.0553 50.0116Z" fill="white" fill-opacity="0.3"/>
<path d="M37.1084 45.4672C37.187 44.9777 37.6254 44.2773 38.4236 43.366C38.3587 44.1975 37.9203 44.8979 37.1084 45.4672Z" fill="white" fill-opacity="0.3"/>
<path d="M40.981 61.0203C41.4477 60.6568 42.4002 60.4016 43.8383 60.2548C43.1054 60.9282 42.153 61.1834 40.981 61.0203Z" fill="white" fill-opacity="0.3"/>
<path d="M48.1 46.0657C48.5932 45.6393 49.627 45.3049 51.2015 45.0624C50.4328 45.8447 49.399 46.1792 48.1 46.0657Z" fill="white" fill-opacity="0.3"/>
<path d="M50.2191 26.7908C50.1941 26.293 50.4789 25.5126 51.0733 24.4496C51.1832 25.2809 50.8985 26.0613 50.2191 26.7908Z" fill="white" fill-opacity="0.3"/>
<path d="M45.5338 44.4492C46.0217 44.4889 46.7448 44.8665 47.7033 45.5819C46.8798 45.582 46.1567 45.2045 45.5338 44.4492Z" fill="white" fill-opacity="0.3"/>
<path d="M12.5176 16.8772C12.8917 17.1635 13.2802 17.8459 13.6831 18.9243C13.0166 18.4953 12.6281 17.813 12.5176 16.8772Z" fill="white" fill-opacity="0.3"/>
<path d="M47.9631 7.94518C48.2344 7.39662 49.0069 6.73061 50.2806 5.94714C49.9007 6.90404 49.1282 7.57005 47.9631 7.94518Z" fill="white" fill-opacity="0.3"/>
<path d="M53.1749 33.7067C53.6447 33.5656 54.4575 33.6539 55.6133 33.9717C54.8448 34.2725 54.032 34.1841 53.1749 33.7067Z" fill="white" fill-opacity="0.3"/>
<path d="M34.3404 60.8383C34.9804 60.884 35.9332 61.3697 37.1988 62.2951C36.1194 62.3059 35.1666 61.8203 34.3404 60.8383Z" fill="white" fill-opacity="0.3"/>
<path d="M8.76138 28.0526C9.32178 28.4657 9.91392 29.4636 10.5378 31.0463C9.54165 30.4302 8.94952 29.4322 8.76138 28.0526Z" fill="white" fill-opacity="0.3"/>
<path d="M17.9585 30.0777C18.5288 30.3681 19.2157 31.1841 20.0192 32.5255C19.0233 32.1165 18.3364 31.3005 17.9585 30.0777Z" fill="white" fill-opacity="0.3"/>
<path d="M14.2857 35.9967C14.7316 36.1952 15.2873 36.7892 15.9527 37.7789C15.178 37.507 14.6223 36.913 14.2857 35.9967Z" fill="white" fill-opacity="0.3"/>
<path d="M28.2301 12.0008C28.7476 11.7537 29.7024 11.7103 31.0944 11.8704C30.2605 12.3555 29.3057 12.3989 28.2301 12.0008Z" fill="white" fill-opacity="0.3"/>
<path d="M12.7147 38.2606C12.7027 37.693 13.0526 36.814 13.7644 35.6234C13.8621 36.5734 13.5122 37.4525 12.7147 38.2606Z" fill="white" fill-opacity="0.3"/>
<path d="M28.9105 24.2481C29.3953 24.6101 29.9046 25.4806 30.4383 26.8595C29.5759 26.3186 29.0666 25.4482 28.9105 24.2481Z" fill="white" fill-opacity="0.3"/>
<path d="M16.1536 19.2741C16.1371 18.7328 16.4629 17.8912 17.1313 16.7491C17.233 17.6545 16.9071 18.4961 16.1536 19.2741Z" fill="white" fill-opacity="0.3"/>
<path d="M28.2721 22.0318C28.7682 22.1039 29.483 22.5365 30.4165 23.3296C29.5748 23.2766 28.86 22.844 28.2721 22.0318Z" fill="white" fill-opacity="0.3"/>
<path d="M57.7916 57.9078C58.2245 57.417 59.2075 56.9445 60.7408 56.4904C60.082 57.3725 59.0989 57.845 57.7916 57.9078Z" fill="white" fill-opacity="0.3"/>
<path d="M8.50836 44.1758C9.13466 44.1774 10.095 44.5863 11.3895 45.4027C10.3391 45.4855 9.37874 45.0766 8.50836 44.1758Z" fill="white" fill-opacity="0.3"/>
<path d="M21.4398 63.9664C21.8114 63.389 22.7566 62.7438 24.2754 62.0308C23.7312 63.0498 22.786 63.695 21.4398 63.9664Z" fill="white" fill-opacity="0.3"/>
<path d="M19.3103 49.0844C19.6837 48.7868 20.4501 48.5722 21.6094 48.4408C21.024 48.9908 20.2576 49.2054 19.3103 49.0844Z" fill="white" fill-opacity="0.3"/>
<path d="M13.1389 23.6574C13.595 23.2111 14.5849 22.8221 16.1086 22.4904C15.4047 23.301 14.4148 23.69 13.1389 23.6574Z" fill="white" fill-opacity="0.3"/>
<path d="M8.60461 12.9724C9.04716 13.0475 9.67778 13.45 10.4965 14.1799C9.74415 14.1145 9.11353 13.712 8.60461 12.9724Z" fill="white" fill-opacity="0.3"/>
<path d="M50.292 43.1564C50.9451 43.1458 51.9547 43.5536 53.3206 44.3796C52.2268 44.4865 51.2172 44.0788 50.292 43.1564Z" fill="white" fill-opacity="0.3"/>
<path d="M26.7726 11.0531C27.354 10.9794 28.2943 11.2436 29.5936 11.8456C28.6288 12.0487 27.6885 11.7845 26.7726 11.0531Z" fill="white" fill-opacity="0.3"/>
<path d="M53.0492 54.4723C53.3644 54.8149 53.6259 55.5454 53.8336 56.6637C53.2583 56.1323 52.9969 55.4019 53.0492 54.4723Z" fill="white" fill-opacity="0.3"/>
<path d="M13.4153 4.96429C13.9146 4.66233 14.877 4.52284 16.3026 4.54582C15.5067 5.12036 14.5443 5.25985 13.4153 4.96429Z" fill="white" fill-opacity="0.3"/>
<path d="M43.8975 60.1187C43.847 59.479 44.1846 58.4644 44.9104 57.0747C45.0825 58.1403 44.7448 59.155 43.8975 60.1187Z" fill="white" fill-opacity="0.3"/>
<path d="M47.5552 61.1253C47.9469 60.9624 48.6539 60.9666 49.6762 61.1378C49.0417 61.4644 48.3347 61.4603 47.5552 61.1253Z" fill="white" fill-opacity="0.3"/>
<path d="M47.5473 53.6593C48.1459 53.7426 49.0107 54.2591 50.1417 55.2087C49.1266 55.1507 48.2618 54.6342 47.5473 53.6593Z" fill="white" fill-opacity="0.3"/>
<path d="M46.8221 62.9783C47.198 62.7823 47.9022 62.7254 48.9348 62.8077C48.3313 63.1876 47.627 63.2445 46.8221 62.9783Z" fill="white" fill-opacity="0.3"/>
<path d="M47.3037 61.8514C47.9149 62.0319 48.736 62.7057 49.767 63.8727C48.7175 63.6536 47.8964 62.9798 47.3037 61.8514Z" fill="white" fill-opacity="0.3"/>
<path d="M16.9953 61.5334C17.5709 61.902 18.2154 62.8415 18.9286 64.3519C17.9129 63.8125 17.2685 62.8729 16.9953 61.5334Z" fill="white" fill-opacity="0.3"/>
<path d="M17.5301 6.69142C17.9903 6.74195 18.6641 7.11823 19.5513 7.82026C18.7726 7.79843 18.0989 7.42215 17.5301 6.69142Z" fill="white" fill-opacity="0.3"/>
<path d="M36.7509 54.4007C37.2517 53.9525 38.3115 53.5895 39.9302 53.3118C39.1516 54.1318 38.0918 54.4947 36.7509 54.4007Z" fill="white" fill-opacity="0.3"/>
<path d="M13.0462 22.8799C13.5356 22.9902 14.2152 23.477 15.0851 24.3405C14.2495 24.2225 13.5699 23.7356 13.0462 22.8799Z" fill="white" fill-opacity="0.3"/>
<path d="M26.6341 23.6661C27.0289 23.7627 27.5722 24.1673 28.2641 24.8798C27.5889 24.7717 27.0456 24.3671 26.6341 23.6661Z" fill="white" fill-opacity="0.3"/>
<path d="M59.0467 45.6334C59.5442 45.5013 60.3936 45.6213 61.595 45.9935C60.7789 46.283 59.9295 46.163 59.0467 45.6334Z" fill="white" fill-opacity="0.3"/>
<path d="M33.6 30.5169C33.9847 30.947 34.2962 31.857 34.5344 33.2468C33.8305 32.5782 33.519 31.6682 33.6 30.5169Z" fill="white" fill-opacity="0.3"/>
<path d="M60.4719 14.2983C60.9171 14.402 61.5333 14.8501 62.3205 15.6427C61.5597 15.5297 60.9435 15.0816 60.4719 14.2983Z" fill="white" fill-opacity="0.3"/>
<path d="M28.129 20.3267C28.7568 20.2728 29.7555 20.5976 31.1251 21.3009C30.0798 21.4771 29.0811 21.1524 28.129 20.3267Z" fill="white" fill-opacity="0.3"/>
<path d="M59.6786 36.084C60.2275 36.1358 61.0366 36.5717 62.1058 37.3916C61.1782 37.3797 60.3691 36.9438 59.6786 36.084Z" fill="white" fill-opacity="0.3"/>
<path d="M52.1935 17.0341C52.6879 16.7715 53.6174 16.6892 54.982 16.7874C54.1887 17.2953 53.2593 17.3776 52.1935 17.0341Z" fill="white" fill-opacity="0.3"/>
<path d="M23.9577 4.36813C24.3733 4.46861 24.946 4.89257 25.6759 5.64C24.9653 5.5283 24.3926 5.10435 23.9577 4.36813Z" fill="white" fill-opacity="0.3"/>
<path d="M62.5391 20.6638C63.1283 20.7815 63.9565 21.3445 65.0235 22.3529C64.0195 22.2361 63.1913 21.6731 62.5391 20.6638Z" fill="white" fill-opacity="0.3"/>
<path d="M47.3783 20.2628C47.9204 19.8351 49.0301 19.5303 50.7075 19.3485C49.857 20.1397 48.7473 20.4445 47.3783 20.2628Z" fill="white" fill-opacity="0.3"/>
<path d="M4.6015 30.4838C4.99734 30.5869 5.53802 31.0022 6.22356 31.7296C5.54573 31.6107 5.00504 31.1954 4.6015 30.4838Z" fill="white" fill-opacity="0.3"/>
<path d="M31.5388 21.7259C32.1056 21.6721 33.0106 21.9575 34.2538 22.5819C33.3107 22.7495 32.4057 22.4642 31.5388 21.7259Z" fill="white" fill-opacity="0.3"/>
<path d="M13.7318 44.6662C14.3573 44.5476 15.3945 44.7716 16.8434 45.3381C15.8107 45.6224 14.7735 45.3984 13.7318 44.6662Z" fill="white" fill-opacity="0.3"/>
<path d="M51.1708 0.738258C51.5481 0.206778 52.4722 -0.364228 53.9432 -0.974762C53.3832 -0.0320252 52.4591 0.538982 51.1708 0.738258Z" fill="white" fill-opacity="0.3"/>
<path d="M39.9876 5.054C40.1866 4.4249 40.9003 3.58829 42.1287 2.54416C41.8811 3.62621 41.1674 4.46282 39.9876 5.054Z" fill="white" fill-opacity="0.3"/>
<path d="M12.0824 27.3042C12.501 27.3366 13.1228 27.6579 13.9475 28.2683C13.2411 28.2713 12.6194 27.9499 12.0824 27.3042Z" fill="white" fill-opacity="0.3"/>
<path d="M40.7184 23.5821C40.6732 22.9966 40.9839 22.0685 41.6505 20.7978C41.8062 21.7734 41.4955 22.7015 40.7184 23.5821Z" fill="white" fill-opacity="0.3"/>
<path d="M17.3948 24.4463C17.8223 24.2635 18.5971 24.2603 19.7194 24.4368C19.0276 24.8017 18.2527 24.8049 17.3948 24.4463Z" fill="white" fill-opacity="0.3"/>
<path d="M12.4848 35.0213C12.5869 34.4253 13.1304 33.5766 14.1154 32.4753C14.0256 33.4886 13.4821 34.3373 12.4848 35.0213Z" fill="white" fill-opacity="0.3"/>
<path d="M61.8723 41.1445C62.2243 41.4449 62.5696 42.1345 62.9082 43.2133C62.277 42.7576 61.9317 42.068 61.8723 41.1445Z" fill="white" fill-opacity="0.3"/>
<path d="M23.4771 2.89954C23.8989 2.53063 24.7858 2.23807 26.1379 2.02185C25.481 2.69807 24.5941 2.99063 23.4771 2.89954Z" fill="white" fill-opacity="0.3"/>
<path d="M32.8268 27.0548C33.1329 26.7117 33.8255 26.3836 34.9047 26.0706C34.4383 26.6878 33.7456 27.0159 32.8268 27.0548Z" fill="white" fill-opacity="0.3"/>
<path d="M19.2353 6.19365C19.5451 5.86745 20.2324 5.56777 21.2972 5.29462C20.8223 5.88393 20.135 6.18361 19.2353 6.19365Z" fill="white" fill-opacity="0.3"/>
<path d="M47.0544 49.9178C47.4866 49.5487 48.3896 49.2626 49.7635 49.0595C49.0892 49.7375 48.1862 50.0236 47.0544 49.9178Z" fill="white" fill-opacity="0.3"/>
<path d="M8.33566 54.5666C8.76672 54.7272 9.32421 55.2535 10.0081 56.1454C9.26339 55.9351 8.70591 55.4088 8.33566 54.5666Z" fill="white" fill-opacity="0.3"/>
<path d="M61.666 48.9558C62.1281 48.906 62.87 49.1295 63.8915 49.6263C63.1233 49.773 62.3814 49.5495 61.666 48.9558Z" fill="white" fill-opacity="0.3"/>
<path d="M0.0245056 30.688C0.129252 30.0636 0.695293 29.1731 1.72263 28.0165C1.63231 29.0778 1.06627 29.9683 0.0245056 30.688Z" fill="white" fill-opacity="0.3"/>
<path d="M35.2758 33.4999C35.7213 33.4814 36.4171 33.7421 37.3633 34.282C36.6189 34.3739 35.9231 34.1132 35.2758 33.4999Z" fill="white" fill-opacity="0.3"/>
<path d="M27.3333 29.942C27.9573 30.1297 28.7933 30.8229 29.8413 32.0214C28.7694 31.7919 27.9334 31.0988 27.3333 29.942Z" fill="white" fill-opacity="0.3"/>
<path d="M32.8637 19.0421C33.1667 18.6161 33.9084 18.1588 35.0886 17.6701C34.6388 18.4259 33.8972 18.8832 32.8637 19.0421Z" fill="white" fill-opacity="0.3"/>
<path d="M46.1493 37.2227C46.8333 37.1098 47.9566 37.3805 49.5193 38.0348C48.3877 38.3175 47.2643 38.0468 46.1493 37.2227Z" fill="white" fill-opacity="0.3"/>
<path d="M62.1641 20.1853C62.7883 20.3146 63.6627 20.9183 64.7871 21.9962C63.7227 21.8647 62.8484 21.2611 62.1641 20.1853Z" fill="white" fill-opacity="0.3"/>
<path d="M25.5689 37.5893C26.1406 37.5393 27.0507 37.8336 28.2992 38.4722C27.3473 38.6342 26.4372 38.3399 25.5689 37.5893Z" fill="white" fill-opacity="0.3"/>
<path d="M7.12054 19.0653C7.22058 18.4756 7.75689 17.6352 8.72946 16.5443C8.64231 17.5468 8.106 18.3871 7.12054 19.0653Z" fill="white" fill-opacity="0.3"/>
<path d="M18.1114 51.8962C18.4715 51.6817 19.1635 51.5862 20.1875 51.6098C19.6129 52.0186 18.9209 52.114 18.1114 51.8962Z" fill="white" fill-opacity="0.3"/>
<path d="M52.6082 41.6249C52.5868 41.2151 52.82 40.5722 53.3076 39.6961C53.3994 40.3803 53.1663 41.0232 52.6082 41.6249Z" fill="white" fill-opacity="0.3"/>
<path d="M35.5699 53.4712C36.2623 53.5258 37.2898 54.059 38.6523 55.0707C37.4839 55.0738 36.4564 54.5407 35.5699 53.4712Z" fill="white" fill-opacity="0.3"/>
<path d="M1.91272 29.5884C2.15155 29.1432 2.8071 28.6149 3.87938 28.0033C3.53975 28.7824 2.88419 29.3108 1.91272 29.5884Z" fill="white" fill-opacity="0.3"/>
<path d="M44.8622 1.15399C45.1337 0.79643 45.7824 0.423708 46.8085 0.0358276C46.4022 0.672477 45.7534 1.0452 44.8622 1.15399Z" fill="white" fill-opacity="0.3"/>
<path d="M58.0351 38.5011C58.4675 38.961 58.8328 39.9476 59.131 41.4609C58.3431 40.7489 57.9778 39.7623 58.0351 38.5011Z" fill="white" fill-opacity="0.3"/>
<path d="M15.8654 51.5561C16.266 51.5968 16.8545 51.9193 17.6309 52.5236C16.9537 52.51 16.3652 52.1875 15.8654 51.5561Z" fill="white" fill-opacity="0.3"/>
<path d="M56.1755 8.11017C56.2487 7.49728 56.7588 6.60393 57.7059 5.43013C57.6669 6.46782 57.1568 7.36117 56.1755 8.11017Z" fill="white" fill-opacity="0.3"/>
<path d="M52.4667 19.4998C52.7556 18.9584 53.5505 18.3149 54.8513 17.5692C54.4408 18.5164 53.646 19.1599 52.4667 19.4998Z" fill="white" fill-opacity="0.3"/>
<path d="M47.107 24.7514C47.5206 24.6632 48.2127 24.7961 49.1833 25.1501C48.502 25.3547 47.8099 25.2218 47.107 24.7514Z" fill="white" fill-opacity="0.3"/>
<path d="M15.6462 7.87309C16.0995 7.84048 16.8166 8.08467 17.7975 8.60564C17.0418 8.72226 16.3247 8.47808 15.6462 7.87309Z" fill="white" fill-opacity="0.3"/>
<path d="M60.3939 20.69C60.8039 20.7282 61.4084 21.0529 62.2075 21.6641C61.5149 21.6561 60.9104 21.3314 60.3939 20.69Z" fill="white" fill-opacity="0.3"/>
<path d="M32.6835 7.26653C33.0418 6.89264 33.8345 6.55123 35.0616 6.24229C34.5119 6.91819 33.7192 7.25961 32.6835 7.26653Z" fill="white" fill-opacity="0.3"/>
<path d="M24.575 31.1268C24.8913 30.6782 25.668 30.1948 26.9052 29.6766C26.4361 30.4721 25.6594 30.9555 24.575 31.1268Z" fill="white" fill-opacity="0.3"/>
<path d="M8.53989 22.1479C9.15803 22.1166 10.1273 22.4698 11.4476 23.2074C10.4153 23.3443 9.44612 22.9912 8.53989 22.1479Z" fill="white" fill-opacity="0.3"/>
<path d="M33.7255 21.8568C34.2821 21.5282 35.3498 21.3851 36.9286 21.4273C36.0402 22.0544 34.9725 22.1975 33.7255 21.8568Z" fill="white" fill-opacity="0.3"/>
<path d="M34.7758 17.3424C35.0716 16.915 35.8031 16.451 36.9703 15.9503C36.5326 16.7073 35.8011 17.1713 34.7758 17.3424Z" fill="white" fill-opacity="0.3"/>
<path d="M17.8035 18.8917C18.2108 18.5696 19.045 18.3395 20.3062 18.2014C19.6673 18.7971 18.8331 19.0272 17.8035 18.8917Z" fill="white" fill-opacity="0.3"/>
<path d="M50.7978 44.5349C51.1928 44.8621 51.5867 45.6208 51.9796 46.8109C51.2726 46.3162 50.8787 45.5575 50.7978 44.5349Z" fill="white" fill-opacity="0.3"/>
<path d="M16.5531 55.8661C17.0477 55.9285 17.7664 56.3453 18.7092 57.1165C17.8714 57.0794 17.1527 56.6626 16.5531 55.8661Z" fill="white" fill-opacity="0.3"/>
<path d="M36.4353 6.43697C36.4545 5.98669 36.7762 5.30793 37.4005 4.4007C37.4298 5.15834 37.1081 5.8371 36.4353 6.43697Z" fill="white" fill-opacity="0.3"/>
<path d="M41.5729 18.2986C41.811 17.9184 42.4232 17.4892 43.4095 17.0111C43.0623 17.6812 42.4501 18.1103 41.5729 18.2986Z" fill="white" fill-opacity="0.3"/>
<path d="M6.62796 10.2037C7.06169 10.5705 7.48948 11.415 7.91133 12.7372C7.13394 12.1815 6.70615 11.337 6.62796 10.2037Z" fill="white" fill-opacity="0.3"/>
<path d="M9.71478 51.7551C10.1853 51.3343 11.1807 50.9938 12.7009 50.7335C11.9695 51.5033 10.9741 51.8439 9.71478 51.7551Z" fill="white" fill-opacity="0.3"/>
<path d="M7.88455 58.9476C8.34784 59.1519 8.92642 59.7663 9.6203 60.7906C8.81555 60.5113 8.23697 59.897 7.88455 58.9476Z" fill="white" fill-opacity="0.3"/>
<path d="M54.9106 40.326C55.3736 40.3262 56.0843 40.627 57.0427 41.2284C56.2662 41.2914 55.5555 40.9906 54.9106 40.326Z" fill="white" fill-opacity="0.3"/>
<path d="M13.5883 1.1179C13.6983 0.512016 14.2602 -0.346753 15.2742 -1.4584C15.1727 -0.42744 14.6108 0.431329 13.5883 1.1179Z" fill="white" fill-opacity="0.3"/>
<path d="M30.1311 22.0901C30.5588 21.7223 31.454 21.4351 32.8168 21.2287C32.15 21.904 31.2548 22.1911 30.1311 22.0901Z" fill="white" fill-opacity="0.3"/>
<path d="M22.3132 55.0376C22.7203 55.04 23.3436 55.3079 24.1831 55.8413C23.5002 55.8929 22.877 55.625 22.3132 55.0376Z" fill="white" fill-opacity="0.3"/>
<path d="M24.5104 5.10102C25.0695 4.81702 26.112 4.74389 27.638 4.88163C26.7394 5.43423 25.6969 5.50736 24.5104 5.10102Z" fill="white" fill-opacity="0.3"/>
<path d="M12.8167 40.3227C13.4103 40.4759 14.2221 41.0963 15.2521 42.184C14.2359 42.0082 13.424 41.3878 12.8167 40.3227Z" fill="white" fill-opacity="0.3"/>
<path d="M51.8147 42.7923C52.133 43.1217 52.4077 43.8338 52.6389 44.9286C52.0604 44.4199 51.7856 43.7078 51.8147 42.7923Z" fill="white" fill-opacity="0.3"/>
<path d="M24.0575 9.98114C24.3532 9.70671 24.9852 9.47733 25.9535 9.293C25.4952 9.79356 24.8632 10.0229 24.0575 9.98114Z" fill="white" fill-opacity="0.3"/>
<path d="M62.4272 47.5543C62.6812 47.1611 63.3263 46.7224 64.3624 46.2381C63.9903 46.9321 63.3452 47.3709 62.4272 47.5543Z" fill="white" fill-opacity="0.3"/>
<path d="M23.0925 19.4699C23.7667 19.6413 24.6905 20.3419 25.8639 21.5717C24.71 21.3766 23.7862 20.676 23.0925 19.4699Z" fill="white" fill-opacity="0.3"/>
<path d="M46.5526 55.5312C46.88 54.9549 47.7567 54.2827 49.1827 53.5147C48.7124 54.5258 47.8357 55.198 46.5526 55.5312Z" fill="white" fill-opacity="0.3"/>
<path d="M60.7148 52.8308C61.0596 52.5738 61.7557 52.4032 62.8031 52.3189C62.26 52.7969 61.5639 52.9675 60.7148 52.8308Z" fill="white" fill-opacity="0.3"/>
<path d="M20.8861 63.158C20.8695 62.7435 21.113 62.0966 21.6165 61.2172C21.701 61.9098 21.4575 62.5567 20.8861 63.158Z" fill="white" fill-opacity="0.3"/>
<path d="M37.5547 57.1921C37.9426 57.0172 38.6515 57.0004 39.6815 57.1416C39.0551 57.488 38.3462 57.5048 37.5547 57.1921Z" fill="white" fill-opacity="0.3"/>
<path d="M63.2517 39.6328C63.7498 39.1709 64.8143 38.7851 66.445 38.4755C65.6729 39.3181 64.6085 39.7039 63.2517 39.6328Z" fill="white" fill-opacity="0.3"/>
<path d="M13.1562 54.3502C13.2084 53.8509 13.6125 53.1182 14.3686 52.1522C14.3494 52.9966 13.9453 53.7293 13.1562 54.3502Z" fill="white" fill-opacity="0.3"/>
<path d="M47.5942 19.7373C47.9202 19.9934 48.2546 20.5982 48.5971 21.5517C48.0154 21.1668 47.6811 20.562 47.5942 19.7373Z" fill="white" fill-opacity="0.3"/>
<path d="M41.9446 4.91722C42.0554 4.32591 42.6093 3.49009 43.6062 2.40976C43.5012 3.41641 42.9474 4.25223 41.9446 4.91722Z" fill="white" fill-opacity="0.3"/>
<path d="M6.73965 13.3521C7.13539 13.6477 7.55101 14.3583 7.98651 15.484C7.28256 15.0424 6.86694 14.3317 6.73965 13.3521Z" fill="white" fill-opacity="0.3"/>
<path d="M37.7259 15.3838C37.9191 14.7464 38.6295 13.8933 39.8569 12.8246C39.62 13.9198 38.9097 14.7728 37.7259 15.3838Z" fill="white" fill-opacity="0.3"/>
<path d="M45.4581 23.2096C45.8343 23.4643 46.2464 24.0994 46.6946 25.1149C46.029 24.7392 45.6169 24.1042 45.4581 23.2096Z" fill="white" fill-opacity="0.3"/>
<path d="M3.85941 50.1468C4.15081 49.8393 4.79771 49.5564 5.8001 49.2981C5.3535 49.8535 4.7066 50.1364 3.85941 50.1468Z" fill="white" fill-opacity="0.3"/>
<path d="M3.42047 33.7064C3.6785 33.3464 4.30826 32.9613 5.30974 32.5509C4.92626 33.1898 4.29651 33.575 3.42047 33.7064Z" fill="white" fill-opacity="0.3"/>
<path d="M59.4755 35.9507C60.0482 36.2335 60.7439 37.0393 61.5624 38.368C60.5635 37.9722 59.8679 37.1664 59.4755 35.9507Z" fill="white" fill-opacity="0.3"/>
<path d="M42.1439 8.67357C42.6033 8.15831 43.643 7.66552 45.2629 7.19518C44.563 8.12193 43.5233 8.61473 42.1439 8.67357Z" fill="white" fill-opacity="0.3"/>
<path d="M8.966 63.7879C9.20644 63.4071 9.82267 62.9787 10.8147 62.5025C10.4635 63.1738 9.84732 63.6023 8.966 63.7879Z" fill="white" fill-opacity="0.3"/>
<path d="M14.1062 42.4218C14.1861 41.9566 14.6107 41.2943 15.38 40.435C15.3096 41.226 14.885 41.8882 14.1062 42.4218Z" fill="white" fill-opacity="0.3"/>
<path d="M58.0542 50.5232C58.5395 50.6754 59.1857 51.224 59.9927 52.169C59.1582 51.9801 58.5121 51.4315 58.0542 50.5232Z" fill="white" fill-opacity="0.3"/>
<path d="M55.7675 59.3115C56.2001 58.8836 57.1418 58.5075 58.5927 58.1832C57.9259 58.9598 56.9841 59.3359 55.7675 59.3115Z" fill="white" fill-opacity="0.3"/>
<path d="M51.919 7.76983C52.5099 7.59077 53.5332 7.69941 54.9889 8.09575C54.0226 8.47673 52.9993 8.36809 51.919 7.76983Z" fill="white" fill-opacity="0.3"/>
<path d="M60.4355 12.6328C60.4159 12.1858 60.6759 11.4868 61.2155 10.536C61.3095 11.2828 61.0495 11.9818 60.4355 12.6328Z" fill="white" fill-opacity="0.3"/>
<path d="M30.238 54.7907C30.5395 55.131 30.7814 55.8491 30.9637 56.9451C30.4117 56.4156 30.1698 55.6974 30.238 54.7907Z" fill="white" fill-opacity="0.3"/>
<path d="M58.6274 45.9484C58.995 45.5025 59.8487 45.0566 61.1884 44.6107C60.633 45.4085 59.7793 45.8544 58.6274 45.9484Z" fill="white" fill-opacity="0.3"/>
<path d="M39.1859 36.1045C39.2958 35.5919 39.7973 34.8763 40.6904 33.9577C40.5761 34.8323 40.0746 35.5479 39.1859 36.1045Z" fill="white" fill-opacity="0.3"/>
<path d="M51.8503 4.25902C52.364 4.22173 53.1768 4.49787 54.2886 5.08744C53.4323 5.22017 52.6196 4.94403 51.8503 4.25902Z" fill="white" fill-opacity="0.3"/>
<path d="M20.5282 45.2326C20.9564 45.6215 21.3613 46.4964 21.7429 47.8573C20.9718 47.2637 20.5669 46.3888 20.5282 45.2326Z" fill="white" fill-opacity="0.3"/>
<path d="M5.09854 35.5489C5.29328 35.0183 5.93657 34.3302 7.02842 33.4846C6.7744 34.4009 6.1311 35.089 5.09854 35.5489Z" fill="white" fill-opacity="0.3"/>
<path d="M55.3194 51.6441C55.8434 51.7408 56.5851 52.2294 57.5443 53.1098C56.6524 53.0193 55.9108 52.5307 55.3194 51.6441Z" fill="white" fill-opacity="0.3"/>
<path d="M54.9717 25.3255C55.3046 25.0087 56.0212 24.7383 57.1215 24.5145C56.6067 25.0913 55.8901 25.3616 54.9717 25.3255Z" fill="white" fill-opacity="0.3"/>
<path d="M43.4948 10.2738C44.0398 10.1697 44.944 10.3636 46.2075 10.8555C45.3078 11.1046 44.4036 10.9107 43.4948 10.2738Z" fill="white" fill-opacity="0.3"/>
<path d="M41.9574 2.03392C41.9228 1.55502 42.1806 0.797403 42.7306 -0.238922C42.854 0.559374 42.5963 1.31699 41.9574 2.03392Z" fill="white" fill-opacity="0.3"/>
<path d="M34.3299 48.4029C34.537 47.9265 35.1641 47.3295 36.2113 46.6121C35.9291 47.4393 35.302 48.0362 34.3299 48.4029Z" fill="white" fill-opacity="0.3"/>
<path d="M5.21545 43.2728C5.78251 43.313 6.62692 43.7428 7.74868 44.5621C6.79234 44.5721 5.94794 44.1424 5.21545 43.2728Z" fill="white" fill-opacity="0.3"/>
<path d="M44.6282 63.3779C45.1713 63.3093 46.0497 63.5565 47.2632 64.1196C46.3618 64.3088 45.4834 64.0616 44.6282 63.3779Z" fill="white" fill-opacity="0.3"/>
<path d="M34.3625 60.249C34.8013 60.2522 35.4729 60.542 36.3772 61.1184C35.6409 61.1729 34.9693 60.8831 34.3625 60.249Z" fill="white" fill-opacity="0.3"/>
<path d="M52.5191 15.7879C52.87 15.9889 53.2784 16.5253 53.744 17.397C53.128 17.1079 52.7197 16.5715 52.5191 15.7879Z" fill="white" fill-opacity="0.3"/>
<path d="M50.1756 45.5433C50.5668 45.7591 51.0272 46.3443 51.5568 47.2989C50.8714 46.9904 50.411 46.4052 50.1756 45.5433Z" fill="white" fill-opacity="0.3"/>
<path d="M22.0872 55.6475C22.712 55.6351 23.6791 56.0216 24.9885 56.807C23.9426 56.9131 22.9755 56.5266 22.0872 55.6475Z" fill="white" fill-opacity="0.3"/>
<path d="M31.6552 31.7117C31.8843 31.3402 32.4771 30.9188 33.4336 30.4472C33.1002 31.1014 32.5073 31.5228 31.6552 31.7117Z" fill="white" fill-opacity="0.3"/>
<path d="M35.3462 52.0748C35.3141 51.3813 35.7148 50.296 36.5485 48.8188C36.6971 49.9772 36.2963 51.0625 35.3462 52.0748Z" fill="white" fill-opacity="0.3"/>
<path d="M61.9074 45.1609C61.8951 44.5415 62.2781 43.5827 63.0565 42.2845C63.1619 43.3214 62.7788 44.2802 61.9074 45.1609Z" fill="white" fill-opacity="0.3"/>
<path d="M55.1985 20.5909C55.6676 20.8792 56.2004 21.6262 56.7971 22.8319C55.9713 22.4125 55.4384 21.6655 55.1985 20.5909Z" fill="white" fill-opacity="0.3"/>
<path d="M40.618 14.3114C41.1186 14.5435 41.7366 15.2246 42.4719 16.3548C41.6007 16.0342 40.9827 15.353 40.618 14.3114Z" fill="white" fill-opacity="0.3"/>
<path d="M5.80478 25.0264C6.33814 24.7159 7.35844 24.5854 8.86568 24.6349C8.01378 25.2285 6.99348 25.359 5.80478 25.0264Z" fill="white" fill-opacity="0.3"/>
<path d="M36.2155 42.6898C36.4091 42.1403 37.063 41.4224 38.1772 40.5362C37.9276 41.4841 37.2737 42.2019 36.2155 42.6898Z" fill="white" fill-opacity="0.3"/>
<path d="M34.3272 39.765C34.9875 39.8656 35.9358 40.4486 37.1722 41.514C36.0513 41.4356 35.1029 40.8526 34.3272 39.765Z" fill="white" fill-opacity="0.3"/>
<path d="M38.416 14.2504C38.9118 13.9239 39.8849 13.7445 41.3351 13.7123C40.5483 14.3275 39.5753 14.5068 38.416 14.2504Z" fill="white" fill-opacity="0.3"/>
<path d="M26.781 27.3566C27.253 27.7079 27.7495 28.5534 28.2707 29.8933C27.4313 29.3688 26.9347 28.5232 26.781 27.3566Z" fill="white" fill-opacity="0.3"/>
<path d="M29.7147 56.924C30.2542 57.2529 30.8689 58.108 31.5589 59.4893C30.6093 59.0115 29.9945 58.1564 29.7147 56.924Z" fill="white" fill-opacity="0.3"/>
<path d="M6.50714 43.2524C7.02787 42.9376 8.03155 42.7923 9.51819 42.8165C8.68807 43.4156 7.68438 43.5609 6.50714 43.2524Z" fill="white" fill-opacity="0.3"/>
<path d="M50.9484 2.03122C51.2754 1.79648 51.9297 1.64836 52.9114 1.58687C52.3951 2.02516 51.7408 2.17328 50.9484 2.03122Z" fill="white" fill-opacity="0.3"/>
<path d="M31.2859 44.9086C31.702 44.6514 32.5078 44.5265 33.7033 44.534C33.0407 45.0223 32.2349 45.1472 31.2859 44.9086Z" fill="white" fill-opacity="0.3"/>
<path d="M25.1201 18.8441C25.1168 18.2805 25.4775 17.4131 26.2022 16.242C26.2848 17.1866 25.9241 18.054 25.1201 18.8441Z" fill="white" fill-opacity="0.3"/>
<path d="M33.8245 38.5938C33.787 37.9601 34.1408 36.963 34.8859 35.6025C35.0353 36.66 34.6815 37.6571 33.8245 38.5938Z" fill="white" fill-opacity="0.3"/>
<path d="M40.2143 25.3275C40.3467 24.846 40.8625 24.1929 41.7617 23.3681C41.6054 24.1935 41.0896 24.8466 40.2143 25.3275Z" fill="white" fill-opacity="0.3"/>
<path d="M39.1957 34.3395C39.7318 34.4982 40.4517 35.0899 41.3554 36.1144C40.4349 35.9215 39.715 35.3298 39.1957 34.3395Z" fill="white" fill-opacity="0.3"/>
<path d="M8.64716 6.17926C9.04859 6.46043 9.48234 7.1526 9.94841 8.25577C9.23687 7.83916 8.80312 7.14699 8.64716 6.17926Z" fill="white" fill-opacity="0.3"/>
<path d="M58.1197 24.5502C58.6189 24.5188 59.4057 24.7945 60.48 25.3774C59.6472 25.4984 58.8604 25.2226 58.1197 24.5502Z" fill="white" fill-opacity="0.3"/>
<path d="M31.4706 1.90385C31.5441 1.26571 32.0711 0.333808 33.0516 -0.891861C33.0155 0.188201 32.4885 1.1201 31.4706 1.90385Z" fill="white" fill-opacity="0.3"/>
<path d="M8.75491 63.3388C9.40189 63.4371 10.3312 64.008 11.543 65.0514C10.4447 64.9749 9.51533 64.404 8.75491 63.3388Z" fill="white" fill-opacity="0.3"/>
<path d="M21.9279 33.6361C22.1988 33.233 22.8761 32.79 23.96 32.307C23.561 33.0199 22.8836 33.463 21.9279 33.6361Z" fill="white" fill-opacity="0.3"/>
<path d="M49.7598 0.0630188C50.265 0.40278 50.8201 1.25228 51.4251 2.61151C50.5315 2.11085 49.9763 1.26135 49.7598 0.0630188Z" fill="white" fill-opacity="0.3"/>
<path d="M62.8261 25.7738C63.2906 26.092 63.7971 26.882 64.3456 28.1437C63.5233 27.6735 63.0168 26.8836 62.8261 25.7738Z" fill="white" fill-opacity="0.3"/>
<path d="M10.1344 18.5505C10.1301 18.0595 10.4421 17.3031 11.0705 16.2812C11.1448 17.1038 10.8328 17.8602 10.1344 18.5505Z" fill="white" fill-opacity="0.3"/>
<path d="M10.2471 53.0554C10.8898 53.1533 11.8127 53.7207 13.016 54.7576C11.925 54.6812 11.0021 54.1138 10.2471 53.0554Z" fill="white" fill-opacity="0.3"/>
<path d="M16.8394 23.4695C17.1155 23.1583 17.7415 22.8597 18.7172 22.5739C18.2967 23.1335 17.6707 23.4321 16.8394 23.4695Z" fill="white" fill-opacity="0.3"/>
<path d="M51.5744 10.6885C51.9493 10.5212 52.6334 10.5075 53.6266 10.6476C53.0209 10.9795 52.3369 10.9931 51.5744 10.6885Z" fill="white" fill-opacity="0.3"/>
<path d="M13.5679 0.837881C13.6641 0.372607 14.1137 -0.27923 14.9167 -1.11763C14.819 -0.324323 14.3694 0.327514 13.5679 0.837881Z" fill="white" fill-opacity="0.3"/>
<path d="M43.6284 11.4283C43.7874 11.0382 44.2847 10.5427 45.1202 9.94176C44.9068 10.6175 44.4095 11.113 43.6284 11.4283Z" fill="white" fill-opacity="0.3"/>
<path d="M43.6848 43.5615C44.0608 43.1867 44.8813 42.8553 46.1463 42.5675C45.567 43.2474 44.7465 43.5787 43.6848 43.5615Z" fill="white" fill-opacity="0.3"/>
<path d="M28.9827 60.525C29.6441 60.6659 30.568 61.3115 31.7544 62.4617C30.6261 62.3158 29.7022 61.6703 28.9827 60.525Z" fill="white" fill-opacity="0.3"/>
<path d="M3.47705 40.1752C3.88641 40.2759 4.44948 40.6961 5.16624 41.436C4.46607 41.3231 3.90301 40.9028 3.47705 40.1752Z" fill="white" fill-opacity="0.3"/>
<path d="M38.76 14.3691C39.1851 13.813 40.1986 13.2351 41.8005 12.6356C41.1638 13.6262 40.1503 14.204 38.76 14.3691Z" fill="white" fill-opacity="0.3"/>
<path d="M5.82754 6.47533C6.2497 6.90158 6.62112 7.82993 6.94178 9.26036C6.17565 8.60331 5.80423 7.67496 5.82754 6.47533Z" fill="white" fill-opacity="0.3"/>
<path d="M9.1445 29.8076C9.58636 29.9351 10.1819 30.4177 10.9311 31.2553C10.1727 31.1018 9.57721 30.6192 9.1445 29.8076Z" fill="white" fill-opacity="0.3"/>
<path d="M49.584 3.73117C50.2231 3.74939 51.1926 4.19221 52.4922 5.05963C51.4179 5.11643 50.4485 4.67361 49.584 3.73117Z" fill="white" fill-opacity="0.3"/>
<path d="M10.3674 21.354C10.775 21.3501 11.4033 21.6087 12.2521 22.1297C11.5692 22.1919 10.941 21.9333 10.3674 21.354Z" fill="white" fill-opacity="0.3"/>
<path d="M8.98193 2.70746C9.5245 2.77638 10.3127 3.23432 11.3464 4.08129C10.4272 4.03986 9.63906 3.58192 8.98193 2.70746Z" fill="white" fill-opacity="0.3"/>
<path d="M55.4639 25.6124C55.7725 25.0947 56.5821 24.5003 57.8929 23.8291C57.4463 24.7393 56.6366 25.3337 55.4639 25.6124Z" fill="white" fill-opacity="0.3"/>
<path d="M57.2989 1.47341C57.3419 0.841146 57.8184 -0.101489 58.7283 -1.35449C58.7425 -0.288427 58.266 0.654208 57.2989 1.47341Z" fill="white" fill-opacity="0.3"/>
<path d="M22.6858 13.0473C23.1503 13.4472 23.604 14.3626 24.0467 15.7934C23.2131 15.1864 22.7594 14.2711 22.6858 13.0473Z" fill="white" fill-opacity="0.3"/>
<path d="M59.3881 50.8624C59.9445 50.8122 60.8311 51.0961 62.0481 51.7143C61.1221 51.8746 60.2354 51.5906 59.3881 50.8624Z" fill="white" fill-opacity="0.3"/>
<path d="M61.8409 15.5799C62.2708 15.5267 62.9652 15.7241 63.9243 16.172C63.2107 16.32 62.5162 16.1226 61.8409 15.5799Z" fill="white" fill-opacity="0.3"/>
<path d="M53.0574 47.8469C53.4207 47.6736 54.091 47.6434 55.0681 47.7562C54.4826 48.0965 53.8123 48.1267 53.0574 47.8469Z" fill="white" fill-opacity="0.3"/>
<path d="M56.6693 19.1131C56.9003 18.6861 57.5321 18.1806 58.5646 17.5965C58.2356 18.344 57.6038 18.8496 56.6693 19.1131Z" fill="white" fill-opacity="0.3"/>
<path d="M63.2765 52.5693C63.6416 52.8788 64.0012 53.5907 64.3554 54.7052C63.7009 54.2363 63.3413 53.5243 63.2765 52.5693Z" fill="white" fill-opacity="0.3"/>
<path d="M20.1064 28.639C20.5526 28.2432 21.4945 27.9252 22.9321 27.6851C22.2379 28.4097 21.296 28.7277 20.1064 28.639Z" fill="white" fill-opacity="0.3"/>
<path d="M5.05002 7.99489C5.6704 8.30502 6.42147 9.18376 7.30322 10.6311C6.22059 10.1959 5.46952 9.31711 5.05002 7.99489Z" fill="white" fill-opacity="0.3"/>
<path d="M1.71954 27.7489C2.16549 27.4888 3.01889 27.3789 4.27974 27.4193C3.56752 27.9164 2.71412 28.0263 1.71954 27.7489Z" fill="white" fill-opacity="0.3"/>
<path d="M62.9504 20.0573C63.2813 19.6966 64.0232 19.3577 65.1763 19.0405C64.6709 19.6905 63.9289 20.0294 62.9504 20.0573Z" fill="white" fill-opacity="0.3"/>
<path d="M17.2873 10.1361C17.6963 10.3979 18.1542 11.0652 18.6611 12.1381C17.9395 11.755 17.4816 11.0876 17.2873 10.1361Z" fill="white" fill-opacity="0.3"/>
<path d="M27.5374 56.3486C28.1392 56.4164 29.019 56.9111 30.1769 57.8326C29.1585 57.8012 28.2787 57.3065 27.5374 56.3486Z" fill="white" fill-opacity="0.3"/>
<path d="M16.0805 63.6241C16.4611 63.7902 16.9374 64.2921 17.5096 65.1298C16.8489 64.9034 16.3725 64.4015 16.0805 63.6241Z" fill="white" fill-opacity="0.3"/>
<path d="M25.1629 40.4792C25.5917 40.2037 26.4287 40.0591 27.6741 40.0453C26.9927 40.5659 26.1557 40.7105 25.1629 40.4792Z" fill="white" fill-opacity="0.3"/>
<path d="M15.149 28.1795C15.347 27.7282 15.9438 27.1639 16.9395 26.4865C16.6692 27.2703 16.0724 27.8347 15.149 28.1795Z" fill="white" fill-opacity="0.3"/>
<path d="M4.03992 28.8912C4.47478 28.6514 5.29797 28.5656 6.50948 28.6336C5.81308 29.0951 4.9899 29.181 4.03992 28.8912Z" fill="white" fill-opacity="0.3"/>
<path d="M15.4663 6.17959C15.9051 5.92767 16.7423 5.82577 17.9778 5.8739C17.2764 6.35629 16.4392 6.45819 15.4663 6.17959Z" fill="white" fill-opacity="0.3"/>
<path d="M22.1027 30.1001C22.3182 29.5224 23.0239 28.7753 24.2199 27.8589C23.9375 28.8571 23.2318 29.6042 22.1027 30.1001Z" fill="white" fill-opacity="0.3"/>
<path d="M16.8121 49.267C17.0055 48.8961 17.5432 48.4523 18.4251 47.9356C18.1514 48.5839 17.6138 49.0277 16.8121 49.267Z" fill="white" fill-opacity="0.3"/>
<path d="M52.3111 61.5136C52.682 60.9685 53.6053 60.3724 55.0808 59.7254C54.5333 60.6901 53.6101 61.2862 52.3111 61.5136Z" fill="white" fill-opacity="0.3"/>
<path d="M33.3912 29.0943C33.511 28.621 34.002 27.9722 34.8643 27.1478C34.7281 27.9578 34.2371 28.6066 33.3912 29.0943Z" fill="white" fill-opacity="0.3"/>
<path d="M54.4746 28.3462C54.5731 27.9452 54.9844 27.3934 55.7087 26.691C55.5985 27.3769 55.1871 27.9286 54.4746 28.3462Z" fill="white" fill-opacity="0.3"/>
<path d="M25.2619 51.2637C25.5875 50.7703 26.4076 50.2244 27.7221 49.6257C27.2435 50.4974 26.4234 51.0434 25.2619 51.2637Z" fill="white" fill-opacity="0.3"/>
<path d="M58.9102 22.3953C59.0891 21.9625 59.6448 21.4142 60.5771 20.7505C60.3362 21.5008 59.7805 22.049 58.9102 22.3953Z" fill="white" fill-opacity="0.3"/>
<path d="M34.6127 0.385033C34.9033 -0.175665 35.7135 -0.847736 37.0431 -1.63118C36.6323 -0.651285 35.8221 0.020786 34.6127 0.385033Z" fill="white" fill-opacity="0.3"/>
<path d="M33.3721 27.0439C33.3562 26.3562 33.7782 25.29 34.638 23.8455C34.7587 24.9966 34.3367 26.0627 33.3721 27.0439Z" fill="white" fill-opacity="0.3"/>
<path d="M43.7989 35.3148C44.3375 35.6624 44.9388 36.5454 45.6027 37.964C44.6521 37.4549 44.0508 36.5718 43.7989 35.3148Z" fill="white" fill-opacity="0.3"/>
<path d="M58.6175 4.40691C59.0616 4.91564 59.4131 5.98481 59.672 7.61442C58.8579 6.82207 58.5064 5.7529 58.6175 4.40691Z" fill="white" fill-opacity="0.3"/>
<path d="M40.612 17.3133C40.9909 17.5874 41.3946 18.2541 41.8231 19.3133C41.1504 18.9054 40.7467 18.2388 40.612 17.3133Z" fill="white" fill-opacity="0.3"/>
<path d="M48.0614 9.73411C48.1436 9.194 48.6204 8.41825 49.4917 7.40686C49.4277 8.32375 48.9509 9.0995 48.0614 9.73411Z" fill="white" fill-opacity="0.3"/>
<path d="M14.4483 2.90262C15.0045 3.15521 15.6944 3.90395 16.518 5.14884C15.5509 4.80131 14.861 4.05257 14.4483 2.90262Z" fill="white" fill-opacity="0.3"/>
<path d="M51.8018 25.6818C52.3044 25.8359 52.9761 26.3987 53.8167 27.3702C52.9528 27.1805 52.2811 26.6177 51.8018 25.6818Z" fill="white" fill-opacity="0.3"/>
<path d="M28.7288 60.6761C29.2352 60.6018 30.061 60.8165 31.2059 61.3202C30.3668 61.5139 29.5411 61.2992 28.7288 60.6761Z" fill="white" fill-opacity="0.3"/>
<path d="M16.5585 7.62932C17.1697 7.79722 17.999 8.45165 19.0463 9.59261C17.9985 9.39459 17.1693 8.74016 16.5585 7.62932Z" fill="white" fill-opacity="0.3"/>
<path d="M32.0303 41.6426C32.3438 41.39 32.9891 41.2058 33.966 41.0899C33.4748 41.5563 32.8295 41.7405 32.0303 41.6426Z" fill="white" fill-opacity="0.3"/>
<path d="M14.7136 40.8118C15.1709 40.7794 15.8939 41.0263 16.8827 41.5527C16.1204 41.6696 15.3974 41.4226 14.7136 40.8118Z" fill="white" fill-opacity="0.3"/>
<path d="M51.0182 37.3397C51.4591 37.5009 52.0312 38.0343 52.7346 38.9401C51.9734 38.7302 51.4013 38.1967 51.0182 37.3397Z" fill="white" fill-opacity="0.3"/>
<path d="M12.8589 63.2629C13.5391 63.1011 14.6881 63.2942 16.3061 63.842C15.1878 64.2063 14.0388 64.0132 12.8589 63.2629Z" fill="white" fill-opacity="0.3"/>
<path d="M20.9452 23.3895C21.3809 23.5886 21.9205 24.177 22.564 25.1547C21.8062 24.8804 21.2666 24.292 20.9452 23.3895Z" fill="white" fill-opacity="0.3"/>
<path d="M3.51129 53.256C4.06875 53.4868 4.77473 54.2028 5.62921 55.4042C4.66293 55.0934 3.95696 54.3774 3.51129 53.256Z" fill="white" fill-opacity="0.3"/>
<path d="M12.219 16.3717C12.2351 15.9272 12.5485 15.2553 13.159 14.3559C13.1926 15.1035 12.8793 15.7755 12.219 16.3717Z" fill="white" fill-opacity="0.3"/>
<path d="M39.8775 27.6023C40.057 27.0935 40.6629 26.429 41.6951 25.6088C41.4635 26.4865 40.8576 27.151 39.8775 27.6023Z" fill="white" fill-opacity="0.3"/>
<path d="M14.4244 27.7186C15.0019 27.8648 15.7935 28.464 16.7992 29.5162C15.8109 29.35 15.0193 28.7508 14.4244 27.7186Z" fill="white" fill-opacity="0.3"/>
<path d="M18.4738 0.588638C18.8699 0.707464 19.4009 1.14697 20.0667 1.90715C19.3863 1.76203 18.8553 1.32253 18.4738 0.588638Z" fill="white" fill-opacity="0.3"/>
<path d="M47.2167 21.7346C47.6866 22.1726 48.1236 23.15 48.5278 24.6667C47.6801 23.9964 47.2431 23.0191 47.2167 21.7346Z" fill="white" fill-opacity="0.3"/>
<path d="M18.499 16.4829C19.0402 16.0486 20.1528 15.7332 21.8369 15.5366C20.9888 16.3388 19.8761 16.6542 18.499 16.4829Z" fill="white" fill-opacity="0.3"/>
<path d="M56.3769 60.3566C56.3833 59.8549 56.7187 59.0888 57.3832 58.0583C57.4411 58.9005 57.1057 59.6666 56.3769 60.3566Z" fill="white" fill-opacity="0.3"/>
<path d="M57.4576 56.9154C57.5434 56.2689 58.0947 55.3322 59.1116 54.1052C59.056 55.2009 58.5047 56.1377 57.4576 56.9154Z" fill="white" fill-opacity="0.3"/>
<path d="M14.1444 55.2521C14.6891 54.9698 15.7083 54.8901 17.2021 55.0128C16.3275 55.5604 15.3082 55.6402 14.1444 55.2521Z" fill="white" fill-opacity="0.3"/>
<path d="M10.7039 12.9019C10.9738 12.4391 11.6883 11.9039 12.8476 11.2962C12.4584 12.109 11.7438 12.6442 10.7039 12.9019Z" fill="white" fill-opacity="0.3"/>
<path d="M25.821 35.7426C25.8181 35.1942 26.1695 34.3504 26.8753 33.2113C26.9552 34.1304 26.6037 34.9742 25.821 35.7426Z" fill="white" fill-opacity="0.3"/>
<path d="M38.7552 58.1222C39.2513 58.1613 39.9876 58.5433 40.9639 59.2682C40.1266 59.2704 39.3904 58.8884 38.7552 58.1222Z" fill="white" fill-opacity="0.3"/>
<path d="M4.4915 42.7709C4.47393 42.2335 4.79574 41.3972 5.45691 40.2619C5.5598 41.1606 5.238 41.9969 4.4915 42.7709Z" fill="white" fill-opacity="0.3"/>
<path d="M12.1582 33.1285C12.8375 33.0749 13.915 33.4335 15.3907 34.2042C14.2591 34.3869 13.1816 34.0284 12.1582 33.1285Z" fill="white" fill-opacity="0.3"/>
<path d="M62.7204 9.46807C63.1927 9.02972 64.2023 8.66335 65.7491 8.36896C65.017 9.16853 64.0075 9.5349 62.7204 9.46807Z" fill="white" fill-opacity="0.3"/>
<path d="M17.4949 28.3406C17.9338 28.3805 18.5818 28.7267 19.4387 29.3791C18.6972 29.3722 18.0492 29.026 17.4949 28.3406Z" fill="white" fill-opacity="0.3"/>
<path d="M33.476 59.1572C33.7607 58.7734 34.4469 58.3689 35.5345 57.9439C35.1096 58.6264 34.4234 59.0308 33.476 59.1572Z" fill="white" fill-opacity="0.3"/>
<path d="M4.30283 53.1294C4.50446 52.6296 5.1384 51.9931 6.20464 51.2201C5.93484 52.0858 5.3009 52.7222 4.30283 53.1294Z" fill="white" fill-opacity="0.3"/>
<path d="M61.4729 41.6357C62.0103 41.4793 62.9366 41.5881 64.2519 41.9619C63.3723 42.2975 62.4459 42.1887 61.4729 41.6357Z" fill="white" fill-opacity="0.3"/>
<path d="M34.223 56.8964C34.616 56.591 35.4176 56.3772 36.6278 56.255C36.0105 56.8209 35.2089 57.0347 34.223 56.8964Z" fill="white" fill-opacity="0.3"/>
<path d="M17.7666 0.940079C18.2589 0.9329 19.0193 1.24138 20.0477 1.86553C19.2232 1.94484 18.4629 1.63636 17.7666 0.940079Z" fill="white" fill-opacity="0.3"/>
<path d="M36.1306 43.5457C36.6871 43.9442 37.2827 44.9172 37.9173 46.4646C36.9298 45.8724 36.3342 44.8994 36.1306 43.5457Z" fill="white" fill-opacity="0.3"/>
<path d="M37.5034 1.11031C38.0767 1.42203 38.7545 2.27265 39.5366 3.66216C38.5328 3.2178 37.855 2.36718 37.5034 1.11031Z" fill="white" fill-opacity="0.3"/>
<path d="M53.6128 49.539C54.02 49.4121 54.7275 49.4815 55.7353 49.7473C55.0698 50.0158 54.3623 49.9464 53.6128 49.539Z" fill="white" fill-opacity="0.3"/>
<path d="M58.5571 45.5195C58.9676 45.2984 59.7414 45.2253 60.8784 45.3003C60.2202 45.7273 59.4464 45.8004 58.5571 45.5195Z" fill="white" fill-opacity="0.3"/>
<path d="M62.626 6.7843C63.1213 6.88 63.8194 7.34835 64.7204 8.18933C63.8769 8.09653 63.1788 7.62819 62.626 6.7843Z" fill="white" fill-opacity="0.3"/>
<path d="M49.2 11.7845C49.6695 11.4263 50.6227 11.1811 52.0596 11.0491C51.3213 11.7138 50.3681 11.959 49.2 11.7845Z" fill="white" fill-opacity="0.3"/>
<path d="M41.7708 58.8409C42.3362 59.0622 43.0606 59.7688 43.9439 60.9608C42.9656 60.667 42.2412 59.9604 41.7708 58.8409Z" fill="white" fill-opacity="0.3"/>
<path d="M54.0251 4.5739C54.6376 4.39336 55.6948 4.51368 57.197 4.93485C56.1948 5.32127 55.1375 5.20095 54.0251 4.5739Z" fill="white" fill-opacity="0.3"/>
<path d="M34.5807 24.4789C35.1266 24.3505 36.0479 24.5078 37.3446 24.9507C36.4468 25.2405 35.5255 25.0832 34.5807 24.4789Z" fill="white" fill-opacity="0.3"/>
<path d="M50.6504 18.8953C51.0485 18.5443 51.8875 18.2639 53.1673 18.054C52.5477 18.697 51.7087 18.9774 50.6504 18.8953Z" fill="white" fill-opacity="0.3"/>
<path d="M63.0295 44.8058C63.5928 44.4741 64.6728 44.3306 66.2695 44.3752C65.3703 45.0083 64.2903 45.1518 63.0295 44.8058Z" fill="white" fill-opacity="0.3"/>
<path d="M25.8461 28.3691C26.2986 28.5161 26.8977 29.0355 27.6436 29.9273C26.8648 29.7426 26.2656 29.2232 25.8461 28.3691Z" fill="white" fill-opacity="0.3"/>
<path d="M47.8198 60.1274C47.9741 59.549 48.5864 58.7612 49.6568 57.7641C49.477 58.7551 48.8647 59.5428 47.8198 60.1274Z" fill="white" fill-opacity="0.3"/>
<path d="M29.109 26.2522C29.5884 26.0334 30.4663 26.0087 31.7426 26.178C30.9687 26.6103 30.0909 26.6351 29.109 26.2522Z" fill="white" fill-opacity="0.3"/>
<path d="M14.8833 20.1941C15.202 19.8355 15.9241 19.4918 17.0494 19.1632C16.5639 19.8081 15.8419 20.1517 14.8833 20.1941Z" fill="white" fill-opacity="0.3"/>
<path d="M20.131 8.04803C20.4502 7.62518 21.2147 7.18324 22.4244 6.72221C21.947 7.47487 21.1825 7.91681 20.131 8.04803Z" fill="white" fill-opacity="0.3"/>
<path d="M23.3619 40.8304C23.9668 40.8433 24.8869 41.2557 26.1222 42.0676C25.1063 42.1286 24.1862 41.7162 23.3619 40.8304Z" fill="white" fill-opacity="0.3"/>
<path d="M45.051 60.1761C45.4459 60.5636 45.8005 61.4147 46.115 62.7293C45.4 62.1336 45.0453 61.2825 45.051 60.1761Z" fill="white" fill-opacity="0.3"/>
<path d="M16.9475 16.7124C17.3337 16.3901 18.1356 16.1458 19.3534 15.9797C18.75 16.573 17.9481 16.8172 16.9475 16.7124Z" fill="white" fill-opacity="0.3"/>
<path d="M58.1808 53.6193C58.4337 53.0463 59.1937 52.3309 60.4609 51.4731C60.1152 52.4683 59.3552 53.1837 58.1808 53.6193Z" fill="white" fill-opacity="0.3"/>
<path d="M44.9749 23.8253C45.4932 23.5053 46.4966 23.3504 47.985 23.3608C47.1596 23.9682 46.1562 24.123 44.9749 23.8253Z" fill="white" fill-opacity="0.3"/>
<path d="M24.0496 44.9265C24.5078 44.952 25.1946 45.2886 26.1101 45.9361C25.3383 45.956 24.6515 45.6194 24.0496 44.9265Z" fill="white" fill-opacity="0.3"/>
<path d="M55.9426 30.3314C56.0232 29.7161 56.5462 28.8238 57.5117 27.6546C57.4607 28.6973 56.9377 29.5896 55.9426 30.3314Z" fill="white" fill-opacity="0.3"/>
<path d="M32.8353 46.1383C32.8525 45.5078 33.2881 44.5509 34.1421 43.2678C34.1995 44.3275 33.7639 45.2843 32.8353 46.1383Z" fill="white" fill-opacity="0.3"/>
<path d="M58.5746 12.1487C58.7616 11.5018 59.4685 10.6301 60.6954 9.53374C60.4702 10.644 59.7632 11.5156 58.5746 12.1487Z" fill="white" fill-opacity="0.3"/>
<path d="M59.0534 49.0573C59.2431 48.5214 59.8821 47.8219 60.9704 46.9588C60.7256 47.8833 60.0865 48.5828 59.0534 49.0573Z" fill="white" fill-opacity="0.3"/>
<path d="M20.2612 51.8468C20.6718 52.1234 21.1225 52.8145 21.6134 53.9201C20.8872 53.5124 20.4365 52.8213 20.2612 51.8468Z" fill="white" fill-opacity="0.3"/>
<path d="M2.44789 0.810516C2.72413 1.12638 2.94317 1.79053 3.10501 2.80299C2.59867 2.31111 2.37963 1.64695 2.44789 0.810516Z" fill="white" fill-opacity="0.3"/>
<path d="M10.8179 49.4407C11.267 49.2772 12.0627 49.3176 13.2048 49.562C12.4741 49.8976 11.6784 49.8572 10.8179 49.4407Z" fill="white" fill-opacity="0.3"/>
<path d="M48.4804 9.73466C48.79 9.47703 49.4325 9.28247 50.4078 9.15097C49.9239 9.62526 49.2814 9.81983 48.4804 9.73466Z" fill="white" fill-opacity="0.3"/>
<path d="M23.892 31.2724C24.4348 31.4994 25.1207 32.2001 25.9497 33.3745C25.0086 33.0681 24.3227 32.3674 23.892 31.2724Z" fill="white" fill-opacity="0.3"/>
<path d="M10.3623 51.1869C10.7881 51.2832 11.3792 51.7074 12.1356 52.4595C11.4085 52.3562 10.8174 51.932 10.3623 51.1869Z" fill="white" fill-opacity="0.3"/>
<path d="M15.1261 40.9584C15.5382 41.2997 15.9494 42.091 16.3595 43.3324C15.6219 42.8165 15.2108 42.0252 15.1261 40.9584Z" fill="white" fill-opacity="0.3"/>
<path d="M22.7687 34.9514C23.0902 35.2753 23.3736 35.981 23.6188 37.0687C23.0355 36.5697 22.7521 35.8639 22.7687 34.9514Z" fill="white" fill-opacity="0.3"/>
<path d="M10.8808 18.6058C11.269 18.4535 11.9638 18.4715 12.9652 18.66C12.3351 18.9685 11.6403 18.9505 10.8808 18.6058Z" fill="white" fill-opacity="0.3"/>
<path d="M51.6688 22.3414C51.7046 21.8636 52.0697 21.1533 52.764 20.2107C52.7692 21.0167 52.4042 21.727 51.6688 22.3414Z" fill="white" fill-opacity="0.3"/>
<path d="M13.7365 54.8519C14.403 54.9494 15.3629 55.5316 16.6162 56.5985C15.4852 56.5262 14.5253 55.944 13.7365 54.8519Z" fill="white" fill-opacity="0.3"/>
<path d="M26.0876 38.3876C26.6153 38.5485 27.3209 39.1379 28.2046 40.1558C27.2978 39.9582 26.5921 39.3688 26.0876 38.3876Z" fill="white" fill-opacity="0.3"/>
<path d="M3.40121 11.5888C3.87315 11.6834 4.53622 12.135 5.39043 12.9434C4.58616 12.8493 3.92309 12.3977 3.40121 11.5888Z" fill="white" fill-opacity="0.3"/>
<path d="M27.5389 39.0722C28.0286 39.1943 28.7011 39.6996 29.5563 40.5881C28.7185 40.4502 28.046 39.9449 27.5389 39.0722Z" fill="white" fill-opacity="0.3"/>
<path d="M14.6835 31.4088C14.9826 30.9304 15.7522 30.3903 16.9924 29.7883C16.5562 30.6312 15.7866 31.1714 14.6835 31.4088Z" fill="white" fill-opacity="0.3"/>
<path d="M53.5709 19.1709C54.0019 19.3896 54.5215 20.0051 55.1298 21.0173C54.3773 20.7094 53.8576 20.094 53.5709 19.1709Z" fill="white" fill-opacity="0.3"/>
<path d="M61.3264 32.5125C61.3677 31.9589 61.7902 31.1359 62.5941 30.0435C62.6006 30.9773 62.1781 31.8003 61.3264 32.5125Z" fill="white" fill-opacity="0.3"/>
<path d="M48.3307 60.1132C48.7501 60.0836 49.4129 60.3104 50.3193 60.7936C49.6202 60.9004 48.9574 60.6736 48.3307 60.1132Z" fill="white" fill-opacity="0.3"/>
<path d="M41.6014 2.94547C42.0195 2.75096 42.7876 2.72375 43.9057 2.86385C43.2312 3.24713 42.4631 3.27433 41.6014 2.94547Z" fill="white" fill-opacity="0.3"/>
<path d="M3.12561 19.965C3.67463 20.2175 4.35353 20.9615 5.16232 22.197C4.20722 21.8485 3.52832 21.1046 3.12561 19.965Z" fill="white" fill-opacity="0.3"/>
<path d="M14.6474 37.9825C14.9648 37.6851 15.6451 37.4345 16.6883 37.2308C16.1967 37.7729 15.5164 38.0235 14.6474 37.9825Z" fill="white" fill-opacity="0.3"/>
<path d="M45.4242 4.23562C45.7998 4.07394 46.4814 4.06953 47.4689 4.2224C46.8611 4.54484 46.1796 4.54925 45.4242 4.23562Z" fill="white" fill-opacity="0.3"/>
<path d="M3.06662 4.19561C3.53379 4.15599 4.27666 4.39839 5.29523 4.92279C4.51729 5.05306 3.77442 4.81067 3.06662 4.19561Z" fill="white" fill-opacity="0.3"/>
<path d="M7.48337 42.2811C7.95888 41.8513 8.9678 41.5001 10.5101 41.2275C9.77155 42.0132 8.76262 42.3644 7.48337 42.2811Z" fill="white" fill-opacity="0.3"/>
<path d="M45.729 58.0522C46.2044 58.2626 46.7976 58.8943 47.5085 59.9471C46.6826 59.6591 46.0895 59.0275 45.729 58.0522Z" fill="white" fill-opacity="0.3"/>
<path d="M57.1349 26.9434C57.7956 26.8966 58.8402 27.2535 60.2687 28.0142C59.1673 28.183 58.1227 27.826 57.1349 26.9434Z" fill="white" fill-opacity="0.3"/>
<path d="M62.974 9.07262C63.1562 8.56685 63.7641 7.90869 64.7978 7.09813C64.5614 7.97109 63.9535 8.62925 62.974 9.07262Z" fill="white" fill-opacity="0.3"/>
<path d="M26.9699 44.6751C27.4973 44.4458 28.4558 44.4361 29.8452 44.646C28.9922 45.1025 28.0338 45.1123 26.9699 44.6751Z" fill="white" fill-opacity="0.3"/>
<path d="M6.21576 34.89C6.7681 34.6834 7.75014 34.7246 9.16187 35.0137C8.26395 35.4357 7.28191 35.3945 6.21576 34.89Z" fill="white" fill-opacity="0.3"/>
<path d="M60.7896 34.1042C60.8591 33.6832 61.239 33.0821 61.9292 32.3008C61.8703 33.0161 61.4904 33.6173 60.7896 34.1042Z" fill="white" fill-opacity="0.3"/>
<path d="M5.34854 50.4688C5.93019 50.5504 6.77011 51.0532 7.8683 51.9772C6.88184 51.9198 6.04192 51.417 5.34854 50.4688Z" fill="white" fill-opacity="0.3"/>
<path d="M14.1784 16.1331C14.4182 15.5391 15.1719 14.7831 16.4393 13.8649C16.1183 14.8935 15.3647 15.6496 14.1784 16.1331Z" fill="white" fill-opacity="0.3"/>
<path d="M5.35269 43.9069C5.65374 43.614 6.30594 43.3599 7.30929 43.1444C6.84453 43.6766 6.19232 43.9307 5.35269 43.9069Z" fill="white" fill-opacity="0.3"/>
<path d="M59.4458 29.8815C59.8935 30.0847 60.449 30.6872 61.1122 31.689C60.3336 31.4095 59.7782 30.807 59.4458 29.8815Z" fill="white" fill-opacity="0.3"/>
<path d="M35.5332 46.5417C36.019 46.5793 36.7404 46.9524 37.6973 47.661C36.8775 47.6643 36.1562 47.2912 35.5332 46.5417Z" fill="white" fill-opacity="0.3"/>
<path d="M2.15521 42.5052C2.63871 42.4223 3.43471 42.6089 4.54321 43.0649C3.74381 43.27 2.94781 43.0834 2.15521 42.5052Z" fill="white" fill-opacity="0.3"/>
<path d="M5.1578 11.988C5.12584 11.5207 5.38001 10.7828 5.92034 9.774C6.03778 10.5531 5.7836 11.2911 5.1578 11.988Z" fill="white" fill-opacity="0.3"/>
<path d="M34.0631 33.5731C34.4905 33.1912 35.3945 32.8823 36.7751 32.6464C36.1107 33.3452 35.2066 33.6541 34.0631 33.5731Z" fill="white" fill-opacity="0.3"/>
<path d="M1.08536 2.20019C1.76029 2.12939 2.84233 2.45876 4.33147 3.18829C3.20943 3.39923 2.12739 3.06987 1.08536 2.20019Z" fill="white" fill-opacity="0.3"/>
<path d="M10.3341 30.6828C10.4102 30.0078 10.9652 29.0211 11.9991 27.7227C11.9636 28.8648 11.4086 29.8515 10.3341 30.6828Z" fill="white" fill-opacity="0.3"/>
<path d="M26.2927 16.787C26.7108 16.8815 27.2911 17.2979 28.0339 18.0361C27.32 17.9348 26.7396 17.5184 26.2927 16.787Z" fill="white" fill-opacity="0.3"/>
<path d="M40.3081 8.25093C40.8494 8.44598 41.5537 9.09671 42.4211 10.2031C41.4868 9.95001 40.7825 9.29928 40.3081 8.25093Z" fill="white" fill-opacity="0.3"/>
<path d="M36.1509 24.8536C36.2416 24.4199 36.6622 23.8128 37.4128 23.0325C37.3201 23.7722 36.8995 24.3792 36.1509 24.8536Z" fill="white" fill-opacity="0.3"/>
<path d="M34.5128 4.86405C34.8305 4.3282 35.6659 3.71177 37.0191 3.01477C36.5597 3.95669 35.7243 4.57312 34.5128 4.86405Z" fill="white" fill-opacity="0.3"/>
<path d="M55.828 47.9732C56.1958 47.3885 57.1399 46.7296 58.6603 45.9965C58.1235 47.0272 57.1794 47.6861 55.828 47.9732Z" fill="white" fill-opacity="0.3"/>
<path d="M41.383 40.0788C41.4444 39.3959 41.9817 38.3874 42.9952 37.0532C42.9857 38.2067 42.4483 39.2152 41.383 40.0788Z" fill="white" fill-opacity="0.3"/>
<path d="M30.152 6.48374C30.4128 5.87244 31.2098 5.10328 32.5431 4.17625C32.1894 5.2369 31.3924 6.00606 30.152 6.48374Z" fill="white" fill-opacity="0.3"/>
<path d="M31.0461 33.4262C31.1957 32.9227 31.7521 32.2469 32.7153 31.3987C32.5333 32.2634 31.9769 32.9392 31.0461 33.4262Z" fill="white" fill-opacity="0.3"/>
<path d="M59.3322 24.7044C59.9545 24.8825 60.7941 25.5599 61.8511 26.7364C60.7834 26.5228 59.9437 25.8454 59.3322 24.7044Z" fill="white" fill-opacity="0.3"/>
<path d="M51.7856 55.8936C52.2241 55.7867 52.9665 55.9073 54.0129 56.2553C53.2923 56.4943 52.5498 56.3738 51.7856 55.8936Z" fill="white" fill-opacity="0.3"/>
<path d="M34.3551 7.84227C34.5584 7.33972 35.1967 6.7002 36.2698 5.92369C35.9976 6.79414 35.3594 7.43367 34.3551 7.84227Z" fill="white" fill-opacity="0.3"/>
<path d="M33.1963 55.6563C33.3121 55.2264 33.7689 54.6417 34.5666 53.9022C34.4312 54.6388 33.9744 55.2235 33.1963 55.6563Z" fill="white" fill-opacity="0.3"/>
<path d="M59.8204 35.0805C60.3721 35.2195 61.1288 35.7909 62.0905 36.7948C61.1464 36.6371 60.3897 36.0657 59.8204 35.0805Z" fill="white" fill-opacity="0.3"/>
<path d="M50.435 52.2627C50.8457 52.5885 51.2647 53.3551 51.6921 54.5626C50.9589 54.0725 50.5399 53.3059 50.435 52.2627Z" fill="white" fill-opacity="0.3"/>
<path d="M27.5012 6.54452C27.7511 6.13042 28.4037 5.657 29.4587 5.12424C29.0961 5.85275 28.4436 6.32617 27.5012 6.54452Z" fill="white" fill-opacity="0.3"/>
<path d="M32.1327 44.206C32.3875 43.6472 33.1414 42.9547 34.3944 42.1287C34.0434 43.1005 33.2895 43.7929 32.1327 44.206Z" fill="white" fill-opacity="0.3"/>
<path d="M41.4642 9.62035C41.9789 9.34516 42.9476 9.25677 44.3704 9.35518C43.5449 9.88696 42.5762 9.97535 41.4642 9.62035Z" fill="white" fill-opacity="0.3"/>
<path d="M7.23971 36.6409C7.68219 37.08 8.07645 38.0413 8.42251 39.5246C7.62057 38.8488 7.2263 37.8876 7.23971 36.6409Z" fill="white" fill-opacity="0.3"/>
<path d="M19.8091 25.5434C20.1498 25.2133 20.8871 24.9278 22.0209 24.6867C21.4947 25.2868 20.7574 25.5723 19.8091 25.5434Z" fill="white" fill-opacity="0.3"/>
<path d="M9.43365 20.2993C9.87737 20.6968 10.3005 21.595 10.7031 22.9939C9.9048 22.388 9.48164 21.4898 9.43365 20.2993Z" fill="white" fill-opacity="0.3"/>
<path d="M44.8852 35.1023C45.0035 34.4343 45.6186 33.4857 46.7306 32.2563C46.6235 33.3926 46.0084 34.3412 44.8852 35.1023Z" fill="white" fill-opacity="0.3"/>
<path d="M54.2512 63.9975C54.824 63.6244 55.9456 63.4235 57.6158 63.3948C56.7062 64.0987 55.5846 64.2995 54.2512 63.9975Z" fill="white" fill-opacity="0.3"/>
<path d="M30.9316 16.5044C31.3338 16.9535 31.6599 17.904 31.9097 19.3559C31.1738 18.6578 30.8478 17.7073 30.9316 16.5044Z" fill="white" fill-opacity="0.3"/>
<path d="M49.9195 51.833C50.3692 51.394 51.3446 51.012 52.8455 50.687C52.1513 51.4846 51.176 51.8666 49.9195 51.833Z" fill="white" fill-opacity="0.3"/>
<path d="M18.6892 45.9824C18.8641 45.5462 19.4156 44.9901 20.3438 44.314C20.1103 45.0693 19.5587 45.6255 18.6892 45.9824Z" fill="white" fill-opacity="0.3"/>
<path d="M49.2366 11.5755C49.6464 11.256 50.4828 11.0316 51.7457 10.9022C51.1023 11.4938 50.2659 11.7182 49.2366 11.5755Z" fill="white" fill-opacity="0.3"/>
<path d="M45.0121 0.181518C45.3407 -0.0803359 46.015 -0.269062 47.0351 -0.384659C46.52 0.0993134 45.8457 0.288039 45.0121 0.181518Z" fill="white" fill-opacity="0.3"/>
<path d="M34.5264 35.7913C34.7599 35.4385 35.3473 35.0486 36.2887 34.6216C35.9453 35.2449 35.3578 35.6348 34.5264 35.7913Z" fill="white" fill-opacity="0.3"/>
<path d="M25.7357 0.0628511C26.3257 0.0625531 27.2316 0.445016 28.4534 1.21024C27.4642 1.29136 26.5583 0.9089 25.7357 0.0628511Z" fill="white" fill-opacity="0.3"/>
<path d="M36.0237 61.6109C36.4152 61.8021 36.8921 62.3496 37.4543 63.2535C36.7718 62.9864 36.2949 62.4389 36.0237 61.6109Z" fill="white" fill-opacity="0.3"/>
<path d="M12.0164 22.8031C12.3245 23.0927 12.6094 23.7372 12.8712 24.7366C12.3151 24.2931 12.0302 23.6486 12.0164 22.8031Z" fill="white" fill-opacity="0.3"/>
<path d="M1.41858 21.8215C1.91942 21.967 2.59383 22.5154 3.4418 23.4667C2.58211 23.2912 1.9077 22.7428 1.41858 21.8215Z" fill="white" fill-opacity="0.3"/>
<path d="M59.6109 27.8141C59.9528 27.3379 60.7869 26.8288 62.1129 26.2867C61.6046 27.132 60.7706 27.6411 59.6109 27.8141Z" fill="white" fill-opacity="0.3"/>
<path d="M16.3238 53.4876C16.91 53.2352 17.9736 53.2282 19.5147 53.4666C18.5663 53.9699 17.5027 53.9769 16.3238 53.4876Z" fill="white" fill-opacity="0.3"/>
<path d="M35.8507 19.7968C36.5191 19.8697 37.4979 20.4155 38.7869 21.434C37.6562 21.4031 36.6775 20.8574 35.8507 19.7968Z" fill="white" fill-opacity="0.3"/>
<path d="M47.0797 17.2479C47.3351 16.9202 47.9398 16.5829 48.8939 16.2359C48.5105 16.8203 47.9057 17.1577 47.0797 17.2479Z" fill="white" fill-opacity="0.3"/>
</g>
<defs>
<clipPath id="clip0_17_503">
<rect width="64" height="64" fill="white"/>
</clipPath>
</defs>
</svg>
