<svg width="64" height="64" viewBox="0 0 64 64" fill="none" xmlns="http://www.w3.org/2000/svg">
<rect width="64" height="64" fill="#F2ECDA"/>
<circle cx="3" cy="3" r="1" fill="#CCCABE"/>
<circle cx="12" cy="5" r="1" fill="#CCCABE"/>
<circle cx="7" cy="7" r="1" fill="#CCCABE"/>
<circle cx="3" cy="10" r="1" fill="#CCCABE"/>
<circle cx="8" cy="14" r="1" fill="#CCCABE"/>
<circle cx="3" cy="59" r="1" fill="#CCCABE"/>
<circle cx="5" cy="18" r="1" fill="#CCCABE"/>
<circle cx="3" cy="22" r="1" fill="#CCCABE"/>
<circle cx="8" cy="26" r="1" fill="#CCCABE"/>
<circle cx="3" cy="29" r="1" fill="#CCCABE"/>
<circle cx="12" cy="34" r="1" fill="#CCCABE"/>
<circle cx="4" cy="38" r="1" fill="#CCCABE"/>
<circle cx="14" cy="61" r="1" fill="#CCCABE"/>
<circle cx="60" cy="4" r="1" fill="#CCCABE"/>
<circle cx="54" cy="3" r="1" fill="#CCCABE"/>
<circle cx="54" cy="9" r="1" fill="#CCCABE"/>
<circle cx="60" cy="10" r="1" fill="#CCCABE"/>
<circle cx="57" cy="15" r="1" fill="#CCCABE"/>
<circle cx="60" cy="18" r="1" fill="#CCCABE"/>
<circle cx="61" cy="23" r="1" fill="#CCCABE"/>
<circle cx="56" cy="23" r="1" fill="#CCCABE"/>
<circle cx="61" cy="31" r="1" fill="#CCCABE"/>
<circle cx="51" cy="31" r="1" fill="#CCCABE"/>
<circle cx="49" cy="39" r="1" fill="#CCCABE"/>
<circle cx="57" cy="36" r="1" fill="#CCCABE"/>
<circle cx="54" cy="43" r="1" fill="#CCCABE"/>
<circle cx="60" cy="46" r="1" fill="#CCCABE"/>
<circle cx="58" cy="51" r="1" fill="#CCCABE"/>
<circle cx="53" cy="51" r="1" fill="#CCCABE"/>
<circle cx="4" cy="43" r="1" fill="#CCCABE"/>
<circle cx="9" cy="45" r="1" fill="#CCCABE"/>
<circle cx="3" cy="50" r="1" fill="#CCCABE"/>
<circle cx="9" cy="54" r="1" fill="#CCCABE"/>
</svg>
