<svg width="128" height="128" viewBox="0 0 128 128" fill="none" xmlns="http://www.w3.org/2000/svg">
<rect width="128" height="128" fill="#F2ECDA"/>
<circle cx="3.5" cy="3.5" r="1.5" fill="#CCCABE"/>
<circle cx="19" cy="4" r="2" fill="#CCCABE"/>
<ellipse cx="10.5" cy="11" rx="1.5" ry="2" fill="#CCCABE"/>
<circle cx="3.5" cy="16.5" r="1.5" fill="#CCCABE"/>
<ellipse cx="12" cy="23.5" rx="2" ry="1.5" fill="#CCCABE"/>
<circle cx="3.5" cy="102.5" r="1.5" fill="#CCCABE"/>
<circle cx="7" cy="32" r="2" fill="#CCCABE"/>
<circle cx="3.5" cy="38.5" r="1.5" fill="#CCCABE"/>
<ellipse cx="12" cy="46.5" rx="2" ry="1.5" fill="#CCCABE"/>
<circle cx="3.5" cy="51.5" r="1.5" fill="#CCCABE"/>
<circle cx="15" cy="60" r="2" fill="#CCCABE"/>
<circle cx="5.5" cy="66.5" r="1.5" fill="#CCCABE"/>
<circle cx="22.5" cy="105.5" r="1.5" fill="#CCCABE"/>
<ellipse cx="125" cy="3.5" rx="2" ry="1.5" fill="#CCCABE"/>
<circle cx="114.5" cy="1.5" r="1.5" fill="#CCCABE"/>
<ellipse cx="113.5" cy="15" rx="1.5" ry="2" fill="#CCCABE"/>
<circle cx="120" cy="22" r="2" fill="#CCCABE"/>
<circle cx="117.5" cy="5.5" r="0.5" fill="#CCCABE"/>
<circle cx="123.5" cy="8.5" r="0.5" fill="#CCCABE"/>
<circle cx="119.5" cy="11.5" r="0.5" fill="#CCCABE"/>
<circle cx="122.5" cy="19.5" r="0.5" fill="#CCCABE"/>
<circle cx="124.5" cy="114.5" r="1.5" fill="#CCCABE"/>
<ellipse cx="118" cy="35.5" rx="2" ry="1.5" fill="#CCCABE"/>
<ellipse cx="123.5" cy="45" rx="1.5" ry="2" fill="#CCCABE"/>
<ellipse cx="110.5" cy="31" rx="1.5" ry="2" fill="#CCCABE"/>
<circle cx="124.5" cy="30.5" r="1.5" fill="#CCCABE"/>
<ellipse cx="117" cy="53.5" rx="2" ry="1.5" fill="#CCCABE"/>
<circle cx="114.5" cy="43.5" r="0.5" fill="#CCCABE"/>
<circle cx="113.5" cy="47.5" r="0.5" fill="#CCCABE"/>
<circle cx="117.5" cy="46.5" r="0.5" fill="#CCCABE"/>
<circle cx="115.5" cy="86.5" r="0.5" fill="#CCCABE"/>
<circle cx="114.5" cy="90.5" r="0.5" fill="#CCCABE"/>
<ellipse cx="119.5" cy="89.9999" rx="0.5" ry="1" transform="rotate(-19 119.5 89.9999)" fill="#CCCABE"/>
<circle cx="111.5" cy="55.5" r="0.5" fill="#CCCABE"/>
<circle cx="118.5" cy="117.5" r="0.5" fill="#CCCABE"/>
<circle cx="109.5" cy="59.5" r="0.5" fill="#CCCABE"/>
<circle cx="15.5" cy="121.5" r="1.5" fill="#CCCABE"/>
<circle cx="10.5" cy="71.5" r="0.5" fill="#CCCABE"/>
<circle cx="16.5" cy="74.5" r="0.5" fill="#CCCABE"/>
<circle cx="4.5" cy="21.5" r="0.5" fill="#CCCABE"/>
<circle cx="15.5" cy="85.5" r="0.5" fill="#CCCABE"/>
<circle cx="7.5" cy="109.5" r="0.5" fill="#CCCABE"/>
<circle cx="10.5" cy="112.5" r="0.5" fill="#CCCABE"/>
<circle cx="4.5" cy="121.5" r="0.5" fill="#CCCABE"/>
<circle cx="2.5" cy="125.5" r="0.5" fill="#CCCABE"/>
<circle cx="16.5" cy="16.5" r="0.5" fill="#CCCABE"/>
<circle cx="19.5" cy="19.5" r="0.5" fill="#CCCABE"/>
<circle cx="13.5" cy="28.5" r="0.5" fill="#CCCABE"/>
<circle cx="11.5" cy="32.5" r="0.5" fill="#CCCABE"/>
<circle cx="111.5" cy="65.5" r="1.5" fill="#CCCABE"/>
<ellipse cx="122" cy="70.5" rx="2" ry="1.5" fill="#CCCABE"/>
<circle cx="118.5" cy="78.5" r="1.5" fill="#CCCABE"/>
<circle cx="123.5" cy="54.5" r="0.5" fill="#CCCABE"/>
<circle cx="121.5" cy="59.5" r="0.5" fill="#CCCABE"/>
<ellipse cx="125.5" cy="62" rx="0.5" ry="1" fill="#CCCABE"/>
<circle cx="124.5" cy="65.5" r="0.5" fill="#CCCABE"/>
<ellipse cx="110" cy="78.5" rx="2" ry="1.5" fill="#CCCABE"/>
<circle cx="5.5" cy="75.5" r="1.5" fill="#CCCABE"/>
<ellipse cx="14" cy="78.5" rx="2" ry="1.5" fill="#CCCABE"/>
<ellipse cx="3.5" cy="87" rx="1.5" ry="2" fill="#CCCABE"/>
<ellipse cx="14" cy="93.5" rx="2" ry="1.5" fill="#CCCABE"/>
<circle cx="125.5" cy="90.5" r="1.5" fill="#CCCABE"/>
<ellipse cx="106.5" cy="89" rx="1.5" ry="2" fill="#CCCABE"/>
<ellipse cx="112" cy="121.5" rx="2" ry="1.5" fill="#CCCABE"/>
<ellipse cx="110.5" cy="111" rx="1.5" ry="2" fill="#CCCABE"/>
<circle cx="122" cy="103" r="1" fill="#CCCABE"/>
<ellipse cx="120.5" cy="108" rx="0.5" ry="1" fill="#CCCABE"/>
<circle cx="115" cy="99" r="2" fill="#CCCABE"/>
</svg>
