<svg width="128" height="128" viewBox="0 0 128 128" fill="none" xmlns="http://www.w3.org/2000/svg">
<g clip-path="url(#clip0_43_2051)">
<rect width="128" height="128" transform="matrix(0 -1 1 0 0 128)" fill="#F2DFA7"/>
<ellipse cx="5" cy="4" rx="3" ry="2" transform="rotate(-90 5 4)" fill="#CCCABE"/>
<ellipse cx="2" cy="18.5" rx="2.5" ry="2" transform="rotate(-90 2 18.5)" fill="#CCCABE"/>
<ellipse cx="21" cy="20" rx="2" ry="3" transform="rotate(-90 21 20)" fill="#CCCABE"/>
<circle cx="31" cy="11" r="3" transform="rotate(-90 31 11)" fill="#CCCABE"/>
<circle cx="7.5" cy="14.5" r="0.5" transform="rotate(-90 7.5 14.5)" fill="#CCCABE"/>
<circle cx="12" cy="6" r="1" transform="rotate(-90 12 6)" fill="#CCCABE"/>
<ellipse cx="16" cy="11.5" rx="0.5" ry="1" transform="rotate(-90 16 11.5)" fill="#CCCABE"/>
<circle cx="27.5" cy="7.5" r="0.5" transform="rotate(-90 27.5 7.5)" fill="#CCCABE"/>
<ellipse cx="50" cy="13.5" rx="2.5" ry="2" transform="rotate(-90 50 13.5)" fill="#CCCABE"/>
<ellipse cx="63" cy="6" rx="2" ry="3" transform="rotate(-90 63 6)" fill="#CCCABE"/>
<ellipse cx="43.5" cy="24" rx="2" ry="2.5" transform="rotate(-90 43.5 24)" fill="#CCCABE"/>
<ellipse cx="43" cy="4.5" rx="2.5" ry="2" transform="rotate(-90 43 4.5)" fill="#CCCABE"/>
<ellipse cx="75" cy="15" rx="3" ry="2" transform="rotate(-90 75 15)" fill="#CCCABE"/>
<ellipse cx="61" cy="18.5" rx="0.5" ry="1" transform="rotate(-90 61 18.5)" fill="#CCCABE"/>
<ellipse cx="66.5" cy="20" rx="1" ry="0.5" transform="rotate(-90 66.5 20)" fill="#CCCABE"/>
<circle cx="65.5" cy="14.5" r="0.5" transform="rotate(-90 65.5 14.5)" fill="#CCCABE"/>
<ellipse cx="121.5" cy="17" rx="1" ry="0.5" transform="rotate(-90 121.5 17)" fill="#CCCABE"/>
<ellipse cx="127" cy="18.5" rx="0.5" ry="1" transform="rotate(-90 127 18.5)" fill="#CCCABE"/>
<ellipse cx="126.428" cy="11.5357" rx="0.702381" ry="1.40476" transform="rotate(-109 126.428 11.5357)" fill="#CCCABE"/>
<ellipse cx="78" cy="22.5" rx="0.5" ry="1" transform="rotate(-90 78 22.5)" fill="#CCCABE"/>
<circle cx="83.5" cy="25.5" r="0.5" transform="rotate(-90 83.5 25.5)" fill="#CCCABE"/>
<circle cx="92" cy="23" r="2" transform="rotate(-90 92 23)" fill="#CCCABE"/>
<ellipse cx="99" cy="8" rx="3" ry="2" transform="rotate(-90 99 8)" fill="#CCCABE"/>
<circle cx="110" cy="13" r="2" transform="rotate(-90 110 13)" fill="#CCCABE"/>
<ellipse cx="76.5" cy="6" rx="1" ry="0.5" transform="rotate(-90 76.5 6)" fill="#CCCABE"/>
<circle cx="83.5" cy="8.5" r="0.5" transform="rotate(-90 83.5 8.5)" fill="#CCCABE"/>
<ellipse cx="87.5" cy="3" rx="1" ry="1.5" transform="rotate(-90 87.5 3)" fill="#CCCABE"/>
<ellipse cx="92" cy="4.5" rx="0.5" ry="1" transform="rotate(-90 92 4.5)" fill="#CCCABE"/>
<ellipse cx="110" cy="25" rx="3" ry="2" transform="rotate(-90 110 25)" fill="#CCCABE"/>
<circle cx="127" cy="3" r="2" transform="rotate(-90 127 3)" fill="#CCCABE"/>
<ellipse cx="125" cy="30" rx="2" ry="3" transform="rotate(-90 125 30)" fill="#CCCABE"/>
</g>
<g clip-path="url(#clip1_43_2051)">
<ellipse cx="123" cy="124" rx="3" ry="2" transform="rotate(90 123 124)" fill="#CCCABE"/>
<ellipse cx="126" cy="109.5" rx="2.5" ry="2" transform="rotate(90 126 109.5)" fill="#CCCABE"/>
<ellipse cx="107" cy="108" rx="2" ry="3" transform="rotate(90 107 108)" fill="#CCCABE"/>
<circle cx="97" cy="117" r="3" transform="rotate(90 97 117)" fill="#CCCABE"/>
<circle cx="120.5" cy="113.5" r="0.5" transform="rotate(90 120.5 113.5)" fill="#CCCABE"/>
<circle cx="116" cy="122" r="1" transform="rotate(90 116 122)" fill="#CCCABE"/>
<ellipse cx="112" cy="116.5" rx="0.5" ry="1" transform="rotate(90 112 116.5)" fill="#CCCABE"/>
<circle cx="100.5" cy="120.5" r="0.5" transform="rotate(90 100.5 120.5)" fill="#CCCABE"/>
<ellipse cx="78" cy="114.5" rx="2.5" ry="2" transform="rotate(90 78 114.5)" fill="#CCCABE"/>
<ellipse cx="65" cy="122" rx="2" ry="3" transform="rotate(90 65 122)" fill="#CCCABE"/>
<ellipse cx="84.5" cy="104" rx="2" ry="2.5" transform="rotate(90 84.5 104)" fill="#CCCABE"/>
<ellipse cx="85" cy="123.5" rx="2.5" ry="2" transform="rotate(90 85 123.5)" fill="#CCCABE"/>
<ellipse cx="53" cy="113" rx="3" ry="2" transform="rotate(90 53 113)" fill="#CCCABE"/>
<ellipse cx="67" cy="109.5" rx="0.5" ry="1" transform="rotate(90 67 109.5)" fill="#CCCABE"/>
<ellipse cx="61.5" cy="108" rx="1" ry="0.5" transform="rotate(90 61.5 108)" fill="#CCCABE"/>
<circle cx="62.5" cy="113.5" r="0.5" transform="rotate(90 62.5 113.5)" fill="#CCCABE"/>
<ellipse cx="6.5" cy="111" rx="1" ry="0.5" transform="rotate(90 6.5 111)" fill="#CCCABE"/>
<ellipse cx="1" cy="109.5" rx="0.5" ry="1" transform="rotate(90 1 109.5)" fill="#CCCABE"/>
<ellipse cx="1.57159" cy="116.464" rx="0.702381" ry="1.40476" transform="rotate(71 1.57159 116.464)" fill="#CCCABE"/>
<ellipse cx="50" cy="105.5" rx="0.5" ry="1" transform="rotate(90 50 105.5)" fill="#CCCABE"/>
<circle cx="44.5" cy="102.5" r="0.5" transform="rotate(90 44.5 102.5)" fill="#CCCABE"/>
<circle cx="36" cy="105" r="2" transform="rotate(90 36 105)" fill="#CCCABE"/>
<ellipse cx="29" cy="120" rx="3" ry="2" transform="rotate(90 29 120)" fill="#CCCABE"/>
<circle cx="18" cy="115" r="2" transform="rotate(90 18 115)" fill="#CCCABE"/>
<ellipse cx="51.5" cy="122" rx="1" ry="0.5" transform="rotate(90 51.5 122)" fill="#CCCABE"/>
<circle cx="44.5" cy="119.5" r="0.5" transform="rotate(90 44.5 119.5)" fill="#CCCABE"/>
<ellipse cx="40.5" cy="125" rx="1" ry="1.5" transform="rotate(90 40.5 125)" fill="#CCCABE"/>
<ellipse cx="36" cy="123.5" rx="0.5" ry="1" transform="rotate(90 36 123.5)" fill="#CCCABE"/>
<ellipse cx="18" cy="103" rx="3" ry="2" transform="rotate(90 18 103)" fill="#CCCABE"/>
<circle cx="1" cy="125" r="2" transform="rotate(90 1 125)" fill="#CCCABE"/>
<ellipse cx="3" cy="98" rx="2" ry="3" transform="rotate(90 3 98)" fill="#CCCABE"/>
</g>
<defs>
<clipPath id="clip0_43_2051">
<rect width="128" height="128" fill="white" transform="matrix(0 -1 1 0 0 128)"/>
</clipPath>
<clipPath id="clip1_43_2051">
<rect width="128" height="128" fill="white" transform="matrix(0 1 -1 0 128 0)"/>
</clipPath>
</defs>
</svg>
