<svg width="128" height="128" viewBox="0 0 128 128" fill="none" xmlns="http://www.w3.org/2000/svg">
<rect width="128" height="128" transform="matrix(0 -1 1 0 0 128)" fill="#F2ECDA"/>
<circle cx="3.5" cy="124.5" r="1.5" transform="rotate(-90 3.5 124.5)" fill="#CCCABE"/>
<circle cx="4" cy="109" r="2" transform="rotate(-90 4 109)" fill="#CCCABE"/>
<ellipse cx="11" cy="117.5" rx="1.5" ry="2" transform="rotate(-90 11 117.5)" fill="#CCCABE"/>
<circle cx="16.5" cy="124.5" r="1.5" transform="rotate(-90 16.5 124.5)" fill="#CCCABE"/>
<ellipse cx="23.5" cy="116" rx="2" ry="1.5" transform="rotate(-90 23.5 116)" fill="#CCCABE"/>
<circle cx="102.5" cy="124.5" r="1.5" transform="rotate(-90 102.5 124.5)" fill="#CCCABE"/>
<circle cx="32" cy="121" r="2" transform="rotate(-90 32 121)" fill="#CCCABE"/>
<circle cx="38.5" cy="124.5" r="1.5" transform="rotate(-90 38.5 124.5)" fill="#CCCABE"/>
<ellipse cx="46.5" cy="116" rx="2" ry="1.5" transform="rotate(-90 46.5 116)" fill="#CCCABE"/>
<circle cx="51.5" cy="124.5" r="1.5" transform="rotate(-90 51.5 124.5)" fill="#CCCABE"/>
<circle cx="60" cy="113" r="2" transform="rotate(-90 60 113)" fill="#CCCABE"/>
<circle cx="66.5" cy="122.5" r="1.5" transform="rotate(-90 66.5 122.5)" fill="#CCCABE"/>
<circle cx="105.5" cy="105.5" r="1.5" transform="matrix(0 -1 1 0 0 211)" fill="#CCCABE"/>
<ellipse cx="3.5" cy="3" rx="2" ry="1.5" transform="rotate(-90 3.5 3)" fill="#CCCABE"/>
<circle cx="1.5" cy="13.5" r="1.5" transform="rotate(-90 1.5 13.5)" fill="#CCCABE"/>
<ellipse cx="15" cy="14.5" rx="1.5" ry="2" transform="rotate(-90 15 14.5)" fill="#CCCABE"/>
<circle cx="22" cy="8" r="2" transform="rotate(-90 22 8)" fill="#CCCABE"/>
<circle cx="5.5" cy="10.5" r="0.5" transform="rotate(-90 5.5 10.5)" fill="#CCCABE"/>
<circle cx="8.5" cy="4.5" r="0.5" transform="rotate(-90 8.5 4.5)" fill="#CCCABE"/>
<circle cx="11.5" cy="8.5" r="0.5" transform="rotate(-90 11.5 8.5)" fill="#CCCABE"/>
<circle cx="19.5" cy="5.5" r="0.5" transform="rotate(-90 19.5 5.5)" fill="#CCCABE"/>
<circle cx="114.5" cy="3.5" r="1.5" transform="rotate(-90 114.5 3.5)" fill="#CCCABE"/>
<ellipse cx="35.5" cy="10" rx="2" ry="1.5" transform="rotate(-90 35.5 10)" fill="#CCCABE"/>
<ellipse cx="45" cy="4.5" rx="1.5" ry="2" transform="rotate(-90 45 4.5)" fill="#CCCABE"/>
<ellipse cx="31" cy="17.5" rx="1.5" ry="2" transform="rotate(-90 31 17.5)" fill="#CCCABE"/>
<circle cx="30.5" cy="3.5" r="1.5" transform="rotate(-90 30.5 3.5)" fill="#CCCABE"/>
<ellipse cx="53.5" cy="11" rx="2" ry="1.5" transform="rotate(-90 53.5 11)" fill="#CCCABE"/>
<circle cx="43.5" cy="13.5" r="0.5" transform="rotate(-90 43.5 13.5)" fill="#CCCABE"/>
<circle cx="47.5" cy="14.5" r="0.5" transform="rotate(-90 47.5 14.5)" fill="#CCCABE"/>
<circle cx="46.5" cy="10.5" r="0.5" transform="rotate(-90 46.5 10.5)" fill="#CCCABE"/>
<circle cx="86.5" cy="12.5" r="0.5" transform="rotate(-90 86.5 12.5)" fill="#CCCABE"/>
<circle cx="90.5" cy="13.5" r="0.5" transform="rotate(-90 90.5 13.5)" fill="#CCCABE"/>
<ellipse cx="89.9999" cy="8.5" rx="0.5" ry="1" transform="rotate(-109 89.9999 8.5)" fill="#CCCABE"/>
<circle cx="55.5" cy="16.5" r="0.5" transform="rotate(-90 55.5 16.5)" fill="#CCCABE"/>
<circle cx="117.5" cy="9.5" r="0.5" transform="rotate(-90 117.5 9.5)" fill="#CCCABE"/>
<circle cx="59.5" cy="18.5" r="0.5" transform="rotate(-90 59.5 18.5)" fill="#CCCABE"/>
<circle cx="121.5" cy="112.5" r="1.5" transform="matrix(0 -1 1 0 9 234)" fill="#CCCABE"/>
<circle cx="71.5" cy="117.5" r="0.5" transform="rotate(-90 71.5 117.5)" fill="#CCCABE"/>
<circle cx="74.5" cy="111.5" r="0.5" transform="rotate(-90 74.5 111.5)" fill="#CCCABE"/>
<circle cx="21.5" cy="123.5" r="0.5" transform="rotate(-90 21.5 123.5)" fill="#CCCABE"/>
<circle cx="85.5" cy="112.5" r="0.5" transform="rotate(-90 85.5 112.5)" fill="#CCCABE"/>
<circle cx="109.5" cy="120.5" r="0.5" transform="rotate(-90 109.5 120.5)" fill="#CCCABE"/>
<circle cx="112.5" cy="117.5" r="0.5" transform="rotate(-90 112.5 117.5)" fill="#CCCABE"/>
<circle cx="121.5" cy="123.5" r="0.5" transform="rotate(-90 121.5 123.5)" fill="#CCCABE"/>
<circle cx="125.5" cy="125.5" r="0.5" transform="matrix(0 -1 1 0 0 251)" fill="#CCCABE"/>
<circle cx="16.5" cy="111.5" r="0.5" transform="rotate(-90 16.5 111.5)" fill="#CCCABE"/>
<circle cx="19.5" cy="108.5" r="0.5" transform="rotate(-90 19.5 108.5)" fill="#CCCABE"/>
<circle cx="28.5" cy="114.5" r="0.5" transform="rotate(-90 28.5 114.5)" fill="#CCCABE"/>
<circle cx="32.5" cy="116.5" r="0.5" transform="rotate(-90 32.5 116.5)" fill="#CCCABE"/>
<circle cx="65.5" cy="16.5" r="1.5" transform="rotate(-90 65.5 16.5)" fill="#CCCABE"/>
<ellipse cx="70.5" cy="6" rx="2" ry="1.5" transform="rotate(-90 70.5 6)" fill="#CCCABE"/>
<circle cx="78.5" cy="9.5" r="1.5" transform="rotate(-90 78.5 9.5)" fill="#CCCABE"/>
<circle cx="54.5" cy="4.5" r="0.5" transform="rotate(-90 54.5 4.5)" fill="#CCCABE"/>
<circle cx="59.5" cy="6.5" r="0.5" transform="rotate(-90 59.5 6.5)" fill="#CCCABE"/>
<ellipse cx="62" cy="2.5" rx="0.5" ry="1" transform="rotate(-90 62 2.5)" fill="#CCCABE"/>
<circle cx="65.5" cy="3.5" r="0.5" transform="rotate(-90 65.5 3.5)" fill="#CCCABE"/>
<ellipse cx="78.5" cy="18" rx="2" ry="1.5" transform="rotate(-90 78.5 18)" fill="#CCCABE"/>
<circle cx="75.5" cy="122.5" r="1.5" transform="rotate(-90 75.5 122.5)" fill="#CCCABE"/>
<ellipse cx="78.5" cy="114" rx="2" ry="1.5" transform="rotate(-90 78.5 114)" fill="#CCCABE"/>
<ellipse cx="87" cy="124.5" rx="1.5" ry="2" transform="rotate(-90 87 124.5)" fill="#CCCABE"/>
<ellipse cx="93.5" cy="114" rx="2" ry="1.5" transform="rotate(-90 93.5 114)" fill="#CCCABE"/>
<circle cx="90.5" cy="2.5" r="1.5" transform="rotate(-90 90.5 2.5)" fill="#CCCABE"/>
<ellipse cx="89" cy="21.5" rx="1.5" ry="2" transform="rotate(-90 89 21.5)" fill="#CCCABE"/>
<ellipse cx="121.5" cy="16" rx="2" ry="1.5" transform="rotate(-90 121.5 16)" fill="#CCCABE"/>
<ellipse cx="111" cy="17.5" rx="1.5" ry="2" transform="rotate(-90 111 17.5)" fill="#CCCABE"/>
<circle cx="103" cy="6" r="1" transform="rotate(-90 103 6)" fill="#CCCABE"/>
<ellipse cx="108" cy="7.5" rx="0.5" ry="1" transform="rotate(-90 108 7.5)" fill="#CCCABE"/>
<circle cx="99" cy="13" r="2" transform="rotate(-90 99 13)" fill="#CCCABE"/>
</svg>
