<svg width="128" height="128" viewBox="0 0 128 128" fill="none" xmlns="http://www.w3.org/2000/svg">
<g clip-path="url(#clip0_43_1911)">
<rect width="128" height="128" transform="matrix(-1 0 0 -1 128 128)" fill="#E5DBC7"/>
<ellipse cx="4" cy="123" rx="3" ry="2" transform="rotate(-180 4 123)" fill="#CCCABE"/>
<ellipse cx="18.5" cy="126" rx="2.5" ry="2" transform="rotate(-180 18.5 126)" fill="#CCCABE"/>
<ellipse cx="20" cy="107" rx="2" ry="3" transform="rotate(-180 20 107)" fill="#CCCABE"/>
<circle cx="11" cy="97" r="3" transform="rotate(-180 11 97)" fill="#CCCABE"/>
<circle cx="14.5" cy="120.5" r="0.5" transform="rotate(-180 14.5 120.5)" fill="#CCCABE"/>
<circle cx="6" cy="116" r="1" transform="rotate(-180 6 116)" fill="#CCCABE"/>
<ellipse cx="11.5" cy="112" rx="0.5" ry="1" transform="rotate(-180 11.5 112)" fill="#CCCABE"/>
<circle cx="7.5" cy="100.5" r="0.5" transform="rotate(-180 7.5 100.5)" fill="#CCCABE"/>
<ellipse cx="13.5" cy="78" rx="2.5" ry="2" transform="rotate(-180 13.5 78)" fill="#CCCABE"/>
<ellipse cx="6" cy="65" rx="2" ry="3" transform="rotate(-180 6 65)" fill="#CCCABE"/>
<ellipse cx="24" cy="84.5" rx="2" ry="2.5" transform="rotate(-180 24 84.5)" fill="#CCCABE"/>
<ellipse cx="4.5" cy="85" rx="2.5" ry="2" transform="rotate(-180 4.5 85)" fill="#CCCABE"/>
<ellipse cx="15" cy="53" rx="3" ry="2" transform="rotate(-180 15 53)" fill="#CCCABE"/>
<ellipse cx="18.5" cy="67" rx="0.5" ry="1" transform="rotate(-180 18.5 67)" fill="#CCCABE"/>
<ellipse cx="20" cy="61.5" rx="1" ry="0.5" transform="rotate(-180 20 61.5)" fill="#CCCABE"/>
<circle cx="14.5" cy="62.5" r="0.5" transform="rotate(-180 14.5 62.5)" fill="#CCCABE"/>
<ellipse cx="17" cy="6.5" rx="1" ry="0.5" transform="rotate(-180 17 6.5)" fill="#CCCABE"/>
<ellipse cx="18.5" cy="1" rx="0.5" ry="1" transform="rotate(-180 18.5 1)" fill="#CCCABE"/>
<ellipse cx="11.5357" cy="1.57157" rx="0.702381" ry="1.40476" transform="rotate(161 11.5357 1.57157)" fill="#CCCABE"/>
<ellipse cx="22.5" cy="50" rx="0.5" ry="1" transform="rotate(-180 22.5 50)" fill="#CCCABE"/>
<circle cx="25.5" cy="44.5" r="0.5" transform="rotate(-180 25.5 44.5)" fill="#CCCABE"/>
<circle cx="23" cy="36" r="2" transform="rotate(-180 23 36)" fill="#CCCABE"/>
<ellipse cx="8" cy="29" rx="3" ry="2" transform="rotate(-180 8 29)" fill="#CCCABE"/>
<circle cx="13" cy="18" r="2" transform="rotate(-180 13 18)" fill="#CCCABE"/>
<ellipse cx="6" cy="51.5" rx="1" ry="0.5" transform="rotate(-180 6 51.5)" fill="#CCCABE"/>
<circle cx="8.5" cy="44.5" r="0.5" transform="rotate(-180 8.5 44.5)" fill="#CCCABE"/>
<ellipse cx="3" cy="40.5" rx="1" ry="1.5" transform="rotate(-180 3 40.5)" fill="#CCCABE"/>
<ellipse cx="4.5" cy="36" rx="0.5" ry="1" transform="rotate(-180 4.5 36)" fill="#CCCABE"/>
<ellipse cx="25" cy="18" rx="3" ry="2" transform="rotate(-180 25 18)" fill="#CCCABE"/>
<circle cx="3" cy="1" r="2" transform="rotate(-180 3 1)" fill="#CCCABE"/>
<ellipse cx="30" cy="3" rx="2" ry="3" transform="rotate(-180 30 3)" fill="#CCCABE"/>
</g>
<g clip-path="url(#clip1_43_1911)">
<ellipse cx="124" cy="5" rx="3" ry="2" fill="#CCCABE"/>
<ellipse cx="109.5" cy="2" rx="2.5" ry="2" fill="#CCCABE"/>
<ellipse cx="108" cy="21" rx="2" ry="3" fill="#CCCABE"/>
<circle cx="117" cy="31" r="3" fill="#CCCABE"/>
<circle cx="113.5" cy="7.5" r="0.5" fill="#CCCABE"/>
<circle cx="122" cy="12" r="1" fill="#CCCABE"/>
<ellipse cx="116.5" cy="16" rx="0.5" ry="1" fill="#CCCABE"/>
<circle cx="120.5" cy="27.5" r="0.5" fill="#CCCABE"/>
<ellipse cx="114.5" cy="50" rx="2.5" ry="2" fill="#CCCABE"/>
<ellipse cx="122" cy="63" rx="2" ry="3" fill="#CCCABE"/>
<ellipse cx="104" cy="43.5" rx="2" ry="2.5" fill="#CCCABE"/>
<ellipse cx="123.5" cy="43" rx="2.5" ry="2" fill="#CCCABE"/>
<ellipse cx="113" cy="75" rx="3" ry="2" fill="#CCCABE"/>
<ellipse cx="109.5" cy="61" rx="0.5" ry="1" fill="#CCCABE"/>
<ellipse cx="108" cy="66.5" rx="1" ry="0.5" fill="#CCCABE"/>
<circle cx="113.5" cy="65.5" r="0.5" fill="#CCCABE"/>
<ellipse cx="111" cy="121.5" rx="1" ry="0.5" fill="#CCCABE"/>
<ellipse cx="109.5" cy="127" rx="0.5" ry="1" fill="#CCCABE"/>
<ellipse cx="116.464" cy="126.428" rx="0.702381" ry="1.40476" transform="rotate(-19 116.464 126.428)" fill="#CCCABE"/>
<ellipse cx="105.5" cy="78" rx="0.5" ry="1" fill="#CCCABE"/>
<circle cx="102.5" cy="83.5" r="0.5" fill="#CCCABE"/>
<circle cx="105" cy="92" r="2" fill="#CCCABE"/>
<ellipse cx="120" cy="99" rx="3" ry="2" fill="#CCCABE"/>
<circle cx="115" cy="110" r="2" fill="#CCCABE"/>
<ellipse cx="122" cy="76.5" rx="1" ry="0.5" fill="#CCCABE"/>
<circle cx="119.5" cy="83.5" r="0.5" fill="#CCCABE"/>
<ellipse cx="125" cy="87.5" rx="1" ry="1.5" fill="#CCCABE"/>
<ellipse cx="123.5" cy="92" rx="0.5" ry="1" fill="#CCCABE"/>
<ellipse cx="103" cy="110" rx="3" ry="2" fill="#CCCABE"/>
<circle cx="125" cy="127" r="2" fill="#CCCABE"/>
<ellipse cx="98" cy="125" rx="2" ry="3" fill="#CCCABE"/>
</g>
<defs>
<clipPath id="clip0_43_1911">
<rect width="128" height="128" fill="white" transform="matrix(-1 0 0 -1 128 128)"/>
</clipPath>
<clipPath id="clip1_43_1911">
<rect width="128" height="128" fill="white"/>
</clipPath>
</defs>
</svg>
