<svg width="64" height="64" viewBox="0 0 64 64" fill="none" xmlns="http://www.w3.org/2000/svg">
<rect width="64" height="64" transform="matrix(0 -1 1 0 0 64)" fill="#F2ECDA"/>
<circle cx="3" cy="61" r="1" transform="rotate(-90 3 61)" fill="#CCCABE"/>
<circle cx="5" cy="52" r="1" transform="rotate(-90 5 52)" fill="#CCCABE"/>
<circle cx="7" cy="57" r="1" transform="rotate(-90 7 57)" fill="#CCCABE"/>
<circle cx="10" cy="61" r="1" transform="rotate(-90 10 61)" fill="#CCCABE"/>
<circle cx="14" cy="56" r="1" transform="rotate(-90 14 56)" fill="#CCCABE"/>
<circle cx="59" cy="61" r="1" transform="rotate(-90 59 61)" fill="#CCCABE"/>
<circle cx="18" cy="59" r="1" transform="rotate(-90 18 59)" fill="#CCCABE"/>
<circle cx="22" cy="61" r="1" transform="rotate(-90 22 61)" fill="#CCCABE"/>
<circle cx="26" cy="56" r="1" transform="rotate(-90 26 56)" fill="#CCCABE"/>
<circle cx="29" cy="61" r="1" transform="rotate(-90 29 61)" fill="#CCCABE"/>
<circle cx="34" cy="52" r="1" transform="rotate(-90 34 52)" fill="#CCCABE"/>
<circle cx="38" cy="60" r="1" transform="rotate(-90 38 60)" fill="#CCCABE"/>
<circle cx="61" cy="50" r="1" transform="rotate(-90 61 50)" fill="#CCCABE"/>
<circle cx="4" cy="4" r="1" transform="rotate(-90 4 4)" fill="#CCCABE"/>
<circle cx="3" cy="10" r="1" transform="rotate(-90 3 10)" fill="#CCCABE"/>
<circle cx="9" cy="10" r="1" transform="rotate(-90 9 10)" fill="#CCCABE"/>
<circle cx="10" cy="4" r="1" transform="rotate(-90 10 4)" fill="#CCCABE"/>
<circle cx="15" cy="7" r="1" transform="rotate(-90 15 7)" fill="#CCCABE"/>
<circle cx="18" cy="4" r="1" transform="rotate(-90 18 4)" fill="#CCCABE"/>
<circle cx="23" cy="3" r="1" transform="rotate(-90 23 3)" fill="#CCCABE"/>
<circle cx="23" cy="8" r="1" transform="rotate(-90 23 8)" fill="#CCCABE"/>
<circle cx="31" cy="3" r="1" transform="rotate(-90 31 3)" fill="#CCCABE"/>
<circle cx="31" cy="13" r="1" transform="rotate(-90 31 13)" fill="#CCCABE"/>
<circle cx="39" cy="15" r="1" transform="rotate(-90 39 15)" fill="#CCCABE"/>
<circle cx="36" cy="7" r="1" transform="rotate(-90 36 7)" fill="#CCCABE"/>
<circle cx="43" cy="10" r="1" transform="rotate(-90 43 10)" fill="#CCCABE"/>
<circle cx="46" cy="4" r="1" transform="rotate(-90 46 4)" fill="#CCCABE"/>
<circle cx="51" cy="6" r="1" transform="rotate(-90 51 6)" fill="#CCCABE"/>
<circle cx="51" cy="11" r="1" transform="rotate(-90 51 11)" fill="#CCCABE"/>
<circle cx="43" cy="60" r="1" transform="rotate(-90 43 60)" fill="#CCCABE"/>
<circle cx="45" cy="55" r="1" transform="rotate(-90 45 55)" fill="#CCCABE"/>
<circle cx="50" cy="61" r="1" transform="rotate(-90 50 61)" fill="#CCCABE"/>
<circle cx="54" cy="55" r="1" transform="rotate(-90 54 55)" fill="#CCCABE"/>
<circle cx="58" cy="2" r="1" transform="rotate(-90 58 2)" fill="#CCCABE"/>
<circle cx="57" cy="13" r="1" transform="rotate(-90 57 13)" fill="#CCCABE"/>
<circle cx="63" cy="8" r="1" transform="rotate(-90 63 8)" fill="#CCCABE"/>
</svg>
